<svg viewBox="0 0 948 948" fill="none" xmlns="http://www.w3.org/2000/svg">
  <path d="m291.57 375 28.369 9.907c6.899 5.749 7.474 5.174 5.749 16.673l-11.498 36.796c-1.557 4.599-7.474 6.899-13.224 6.899L270.228 434.5M482.5 681.403l-4.606-29.954c1.816-8.795 1.038-9.031 11.991-12.934l37.869-7.215c4.79-.797 9.609 3.336 12.321 8.406l5.425 29.231M645.803 357.5l-20.801 18.035c-8.355 3.294-8.126 4.074-17.387-2.958l-26.762-27.747c-3.288-3.573-2.466-9.868.293-14.912l20.259-19.063m344.639 163.167c0 260.69-211.332 472.022-472.022 472.022C213.331 946.044 2 734.712 2 474.022 2 213.331 213.331 2 474.022 2c260.69 0 472.022 211.331 472.022 472.022Zm-206.977 0c0 146.38-118.665 265.045-265.045 265.045-146.381 0-265.045-118.665-265.045-265.045 0-146.381 118.664-265.045 265.045-265.045 146.38 0 265.045 118.664 265.045 265.045Zm-31.047 0c0 129.234-104.764 233.998-233.998 233.998-129.234 0-233.999-104.764-233.999-233.998 0-129.234 104.765-233.999 233.999-233.999 129.234 0 233.998 104.765 233.998 233.999Zm-26.447 0c0 114.627-92.924 207.551-207.551 207.551-114.628 0-207.552-92.924-207.552-207.551 0-114.628 92.924-207.552 207.552-207.552 114.627 0 207.551 92.924 207.551 207.552Zm-95.439 0c0 61.918-50.194 112.112-112.112 112.112-61.918 0-112.113-50.194-112.113-112.112 0-61.918 50.195-112.113 112.113-112.113s112.112 50.195 112.112 112.113Zm-17.248 0c0 52.392-42.472 94.864-94.864 94.864s-94.865-42.472-94.865-94.864 42.473-94.865 94.865-94.865c52.392 0 94.864 42.473 94.864 94.865Zm-12.649 0c0 45.406-36.809 82.215-82.215 82.215-45.407 0-82.216-36.809-82.216-82.215 0-45.407 36.809-82.216 82.216-82.216 45.406 0 82.215 36.809 82.215 82.216Z" stroke="#A77946" stroke-width="3.4"/>
  <path d="M712.271 450.398c4.232 1.44 6.403 2.944 6.513 4.512.11 1.568-1.817 3.454-5.779 5.658l-.176-2.504 3.681-2.922-4.09-2.398-.149-2.346Zm10.68 1.645-3.715 2.945 4.052 2.38.175 2.505c-4.231-1.631-6.402-3.23-6.511-4.798-.11-1.568 1.83-3.36 5.821-5.376l.178 2.344Zm-8.956 14.509-.039-2.277 6.678-.115c1.294-.022 2.329.459 3.105 1.444.483.658.733 1.484.75 2.476.025 1.46-.484 2.573-1.527 3.341-.649.449-1.416.681-2.302.696-1.44.025-2.554-.538-3.343-1.687-.371-.651-.564-1.383-.578-2.195l-.001-.073c-.011-.623.131-1.178.424-1.665l-3.167.055Zm6.628 3.398c.837-.015 1.445-.329 1.824-.944.141-.275.209-.561.204-.858l-.003-.146c-.012-.71-.395-1.232-1.151-1.564-.308-.092-.596-.136-.863-.131l-.11.002c-.851.014-1.456.37-1.814 1.067-.107.294-.158.55-.154.769.014.866.474 1.442 1.38 1.729.307.053.536.078.687.076Zm3.443 11.073c-.053 1.469-.226 2.563-.519 3.283l-1.977-.071c.266-.501.421-1.353.464-2.554l.01-.292c.057-1.595-.396-2.409-1.359-2.444-.224-.008-.339.102-.348.331l-.089 2.517c-.032.889-.162 1.669-.391 2.337-.443 1.109-1.251 1.643-2.423 1.601l-.292-.01c-.297-.011-.613-.073-.95-.188-1.428-.645-2.099-2.161-2.014-4.549.017-.486.107-1.028.27-1.626.158-.467.324-.821.498-1.063.2-.417.599-.826 1.198-1.228.392-.21.669-.332.831-.365l-.085 2.385c-.521.395-.798 1.05-.83 1.964l-.019.533c.114 1.314.579 1.985 1.396 2.014.577-.062.901-.763.973-2.105l.172-4.792 2.157.113c.511.019 1.042.137 1.594.357 1.225.603 1.803 1.888 1.733 3.852Zm-5.28 17.073-2.268-.201.656-7.395 2.24.192-.427 5.143-.201 2.261Zm-7.073 8.146c.01-.072.115-.843.314-2.314l6.469.912c.891.127 1.631.486 2.221 1.076.938 1.003 1.29 2.334 1.054 3.991-.16 1.127-.531 2.038-1.111 2.732-.927 1.023-2.041 1.442-3.342 1.257l-6.561-.933.347-2.443 6.525.928c.27.039.565.024.884-.044.812-.282 1.275-.828 1.39-1.638l.024-.166c.09-.631-.067-1.186-.471-1.667-.406-.352-.803-.556-1.188-.611l-6.579-.914.024-.166Zm4.787 16.588c-.29 1.48-.963 2.342-2.018 2.586-.454.065-.872.059-1.254-.016l-2.206-.433c-1.012-.199-1.657-.944-1.934-2.233-.07-.549-.056-1.079.045-1.59.351-1.786 1.132-2.795 2.343-3.028.279-.03.535-.022.769.024l.208.041c.926.182 1.462.749 1.607 1.7.05.53.01 1.122-.119 1.776l-.35 1.784c-.005.024.005.038.029.043.706.138 1.157-.289 1.352-1.282l.041-.207c.161-.817.165-1.518.012-2.103l1.633.321c.105.675.053 1.547-.158 2.617Zm-4.482-2.741c-.458-.09-.814.254-1.066 1.033l-.072.365c-.136.692.001 1.193.412 1.502.086.042.181.073.287.093l.637.126.331-1.683c.125-.635.071-1.058-.16-1.267-.098-.083-.221-.14-.369-.169Zm5.318 12.269-.594 2.356-5.825-1.468-.003.015c.086.097.62.786 1.601 2.067.469.63.713.947.732.952l-.653 2.59-2.75-3.636c-.002.01-1.516.699-4.541 2.07l.721-2.86c.092-.027 1.256-.544 3.492-1.551l-2.916-.735.594-2.357 10.142 2.557Zm-7.517 16.04c-.445 1.441-1.205 2.227-2.28 2.359-.458.016-.873-.033-1.245-.148l-2.148-.664c-.985-.304-1.548-1.112-1.688-2.424-.012-.554.059-1.079.212-1.577.538-1.738 1.421-2.66 2.65-2.764.28 0 .534.035.762.106l.202.062c.902.279 1.375.899 1.419 1.86-.006.532-.108 1.117-.305 1.754l-.537 1.737c-.007.023.001.038.024.045.689.213 1.182-.164 1.481-1.131l.062-.203c.246-.795.324-1.491.234-2.09l1.59.492c.033.682-.111 1.544-.433 2.586Zm-4.168-3.198c-.447-.138-.836.167-1.169.915l-.11.355c-.208.674-.125 1.187.251 1.537.081.05.173.091.275.123l.621.192.506-1.639c.191-.618.182-1.044-.026-1.276-.088-.094-.204-.163-.348-.207Zm.145 13.208c.116.556.068 1.124-.145 1.704l-.025.069c-.123.333-.281.656-.474.969l-1.945-.716c.348-.24.591-.55.731-.929.075-.205.113-.463.113-.774-.114-.774-.569-1.306-1.364-1.599l-3.391-1.247.746-2.028c3.609 1.338 5.941 2.201 6.996 2.589l.014.005-.784 2.131-.472-.174Zm-4.137 11.648-.895 2.087-6.821-2.927.876-2.062 4.761 2.01 2.079.892Zm2.101 2.101c-.132.309-.352.524-.658.647-.305.129-.609.128-.913-.002-.299-.129-.51-.349-.63-.66-.123-.307-.118-.614.015-.923.13-.304.35-.52.658-.647.307-.122.61-.119.91.009.304.131.515.348.633.653.121.311.116.619-.015.923Zm-13.842 5.865c.028-.057.329-.679.904-1.866l3.155 1.556c.807.398 1.412.943 1.814 1.635.622 1.159.605 2.404-.051 3.735-.445.903-1.033 1.555-1.761 1.955-1.142.566-2.302.558-3.48-.023l-3.241-1.598.965-1.957 3.208 1.582c.244.12.526.204.844.253.84.023 1.42-.29 1.741-.94l.064-.131c.25-.506.248-1.031-.005-1.573-.292-.432-.612-.734-.962-.906l-3.26-1.591.065-.131Zm-12.513 22.675 1.216-1.925 5.646 3.568c1.094.692 1.695 1.662 1.804 2.911.043.816-.201 1.643-.731 2.482-.78 1.234-1.817 1.886-3.11 1.955-.789.019-1.558-.208-2.307-.681-1.217-.77-1.84-1.851-1.869-3.245.047-.748.287-1.465.722-2.152l.039-.062c.332-.526.755-.913 1.267-1.159l-2.677-1.692Zm3.677 6.477c.707.448 1.388.518 2.042.212.269-.152.483-.354.641-.605l.078-.123c.38-.601.345-1.247-.104-1.94-.207-.246-.423-.44-.65-.583l-.092-.059c-.72-.455-1.421-.489-2.103-.102-.25.187-.434.373-.551.558-.463.732-.394 1.466.205 2.202.228.213.406.36.534.44Zm-2.207-2.819-4.329.864 1.209-1.912 4.329-.865-1.209 1.913Zm-9.329 8.184c.875-1.235 1.844-1.747 2.906-1.538.44.128.819.304 1.137.529l1.834 1.3c.842.596 1.125 1.539.849 2.829-.164.534-.395 1.011-.693 1.432-1.052 1.485-2.178 2.085-3.379 1.801-.266-.087-.496-.199-.691-.337l-.172-.123c-.771-.545-1.027-1.282-.77-2.209.173-.504.451-1.028.837-1.572l1.051-1.483c.014-.019.011-.036-.009-.05-.588-.417-1.174-.212-1.759.614l-.123.172c-.855 1.249-1.331 2.17-1.429 2.763l-1.358-.963c.552-1.225 1.142-2.28 1.769-3.165Zm2.969 4.331c.381.27.847.102 1.396-.505l.215-.304c.408-.575.488-1.088.24-1.538a1.156 1.156 0 0 0-.223-.203l-.53-.375-.991 1.399c-.375.528-.5.937-.378 1.227.058.112.148.212.271.299Zm-10.64 5.94c.939-1.187 1.933-1.648 2.983-1.382.433.15.802.346 1.108.588l1.763 1.394c.809.64 1.042 1.597.698 2.87-.191.525-.447.989-.767 1.394-1.129 1.427-2.286 1.967-3.469 1.621-.262-.102-.486-.226-.673-.374l-.166-.131c-.74-.586-.957-1.335-.652-2.247.199-.494.505-1.003.919-1.526l1.128-1.425c.015-.019.013-.036-.006-.051-.565-.447-1.162-.274-1.79.52l-.131.166c-.92 1.202-1.444 2.096-1.573 2.683l-1.305-1.033c.616-1.194 1.26-2.216 1.933-3.067Zm2.737 4.482c.366.289.839.146 1.42-.431l.231-.292c.438-.553.545-1.061.321-1.524-.057-.076-.128-.147-.212-.214l-.509-.403-1.065 1.345c-.401.508-.548.91-.441 1.205.051.116.136.22.255.314Zm-2.53 11.665-1.505 1.709-7.849-6.913 1.475-1.696 5.485 4.792 2.394 2.108Zm-19.777 20.2-.091.084c-1.354 1.244-2.825 1.743-4.413 1.497.014-.013.205-.806.571-2.378l.016-.015c1.004.374 1.969-.061 2.896-1.303.931-1.238.801-2.494-.388-3.766-1.13-1.13-2.371-1.268-3.722-.416-1.352.859-1.869 1.835-1.55 2.93l-.016.015-2.295.265c-.218-1.683.42-3.211 1.914-4.584 1.742-1.6 3.631-1.982 5.669-1.145.712.365 1.316.817 1.813 1.358 1.35 1.469 1.772 3.123 1.267 4.961-.315.931-.872 1.763-1.671 2.497Zm-11.628 6.212-.068.056c-1.309 1.081-2.686 1.275-4.13.58-.468-.276-.871-.618-1.209-1.027-.867-1.051-1.131-2.187-.789-3.409.238-.728.71-1.383 1.416-1.965 1.306-1.078 2.673-1.28 4.101-.604.495.285.911.633 1.249 1.042.911 1.103 1.151 2.302.72 3.599-.26.656-.69 1.232-1.29 1.728Zm-1.066-3.995c-.542-.657-1.189-.905-1.94-.745-.242.073-.45.181-.622.324l-.09.074c-.383.316-.584.726-.605 1.228.002.484.18.94.533 1.368l.019.023c.542.656 1.177.909 1.903.757.273-.075.509-.194.708-.358.646-.533.803-1.225.473-2.075-.107-.221-.233-.42-.379-.596Zm-14.023 9.021c-.258.191-.541.267-.848.228-.311-.036-.557-.175-.736-.417-.183-.247-.246-.524-.189-.832.052-.305.207-.553.465-.745.258-.191.543-.268.854-.232.308.038.553.181.735.427.18.243.243.517.191.822-.057.308-.214.558-.472.749ZM201.077 470.44H19.3972v7.868H201.077v-7.868Zm723.268 0H742.666v7.868h181.679v-7.868Zm-719.838 47.082L25.5879 549.071l1.3662 7.748L205.873 525.27l-1.366-7.748Zm712.281-125.594-178.92 31.548 1.366 7.749 178.92-31.549-1.366-7.748ZM202.88 505.82 22.7547 529.534l1.027 7.8L203.907 513.62l-1.027-7.8Zm717.081-94.406-180.125 23.714 1.026 7.8 180.126-23.714-1.027-7.8Zm-718.197 82.642L20.7762 509.891l.6857 7.838L202.45 501.894l-.686-7.838Zm720.516-63.037-180.988 15.835.686 7.838 180.988-15.835-.686-7.838Zm-721.117 51.236L19.6566 490.18l.3432 7.86 181.5062-7.924-.343-7.861Zm722.58-31.548-181.506 7.925.343 7.86 181.506-7.925-.343-7.86Zm-717.099 78.437L29.271 568.467l1.7028 7.681 177.3732-39.323-1.703-7.681ZM912.768 372.6l-177.373 39.323 1.703 7.681 177.373-39.323-1.703-7.681ZM220.184 574.368 52.3337 643.894l3.0108 7.268 167.8495-69.525-3.01-7.269Zm668.213-276.783-167.85 69.526 3.01 7.268 167.85-69.525-3.01-7.269Zm-672.335 265.71L45.3391 625.433l2.6909 7.393 170.723-62.138-2.691-7.393Zm679.65-247.373L724.989 378.06l2.691 7.394 170.723-62.139-2.691-7.393Zm-683.285 236.13L39.156 606.684l2.3658 7.503 173.2712-54.632-2.366-7.503ZM902.22 334.561l-173.271 54.632 2.366 7.503 173.271-54.632-2.366-7.503Zm-692.934 206.1L33.7968 587.683l2.0363 7.599L211.322 548.26l-2.036-7.599Zm698.623-187.196L732.42 400.487l2.037 7.6 175.489-47.022-2.037-7.6ZM224.786 585.251 60.1285 662.032l3.3251 7.131 164.6574-76.781-3.325-7.131ZM880.29 279.585l-164.658 76.781 3.325 7.13 164.658-76.781-3.325-7.13ZM247.793 626.473 98.97 730.68l4.513 6.444 148.823-104.207-4.513-6.444Zm592.467-414.85L691.437 315.83l4.512 6.445 148.824-104.207-4.513-6.445ZM241.373 616.554 88.1456 714.17l4.2272 6.636L245.6 623.19l-4.227-6.636Zm609.998-388.612-153.227 97.617 4.227 6.635 153.227-97.616-4.227-6.636ZM235.39 606.364l-157.339 90.84 3.9338 6.814 157.3392-90.84-3.934-6.814ZM861.759 244.73 704.42 335.57l3.934 6.814 157.339-90.84-3.934-6.814ZM229.858 595.923 68.7063 679.814l3.6329 6.978 161.1518-83.89-3.633-6.979Zm641.547-333.968-161.152 83.89 3.633 6.979 161.152-83.89-3.633-6.979ZM254.641 636.102l-144.136 110.6 4.79 6.242 144.136-110.6-4.79-6.242Zm573.808-440.298-144.137 110.6 4.79 6.242 144.136-110.6-4.789-6.242ZM286.025 671.367 163.284 805.315l5.8 5.315 122.741-133.948-5.8-5.315Zm488.633-533.249L651.917 272.066l5.8 5.315 122.741-133.948-5.8-5.315ZM277.61 663.073 149.143 791.54l5.563 5.563 128.467-128.467-5.563-5.563Zm511.428-511.428L660.571 280.112l5.563 5.563 128.467-128.467-5.563-5.563ZM269.563 654.42 135.615 777.161l5.316 5.801 133.948-122.741-5.316-5.801Zm533.25-488.633L668.865 288.528l5.315 5.8 133.948-122.74-5.315-5.801Zm-540.91 479.637L122.728 762.205l5.057 6.027L266.96 651.451l-5.057-6.027Zm554.055-464.908L676.784 297.297l5.057 6.027 139.175-116.781-5.058-6.027Zm-521.164 498.77L178.013 818.46l6.027 5.058 116.781-139.175-6.027-5.057ZM759.702 125.23 642.921 264.405l6.027 5.057 116.781-139.175-6.027-5.057ZM333.067 706.922l-90.84 157.339 6.813 3.934 90.84-157.339-6.813-3.934ZM694.701 80.5531l-90.84 157.3389 6.814 3.934 90.839-157.3391-6.813-3.9338ZM323.056 700.646l-97.617 153.227 6.636 4.227 97.616-153.227-6.635-4.227ZM711.668 90.6477 614.051 243.875l6.636 4.227 97.616-153.227-6.635-4.2273ZM313.328 693.939 209.12 842.763l6.445 4.512 104.207-148.823-6.444-4.513Zm414.849-592.466L623.97 250.296l6.445 4.513 104.207-148.824-6.445-4.512ZM303.901 686.814 193.302 830.95l6.241 4.79 110.6-144.136-6.242-4.79Zm440.298-573.807L633.6 257.143l6.241 4.79 110.6-144.136-6.242-4.79ZM343.343 712.755l-83.891 161.152 6.979 3.633 83.89-161.152-6.978-3.633ZM677.311 71.2084 593.421 232.36l6.978 3.633L684.29 74.8412l-6.979-3.6328ZM386.689 731.453l-54.632 173.27 7.504 2.366 54.632-173.271-7.504-2.365ZM604.18 41.6593 549.548 214.93l7.504 2.366 54.632-173.2709-7.504-2.3658ZM375.557 727.492l-62.138 170.723 7.394 2.691 62.138-170.723-7.394-2.691ZM622.93 47.8423 560.792 218.565l7.393 2.691 62.138-170.7228-7.393-2.6909ZM364.608 723.05 295.083 890.9l7.268 3.011 69.526-167.85-7.269-3.011ZM641.391 54.8374 571.865 222.687l7.269 3.011L648.66 57.8483l-7.269-3.0109ZM353.863 718.134l-76.781 164.658 7.131 3.325 76.781-164.658-7.131-3.325ZM659.53 62.6306 582.749 227.288l7.13 3.325L666.66 65.9556l-7.13-3.325ZM397.985 734.923l-47.022 175.489 7.599 2.036 47.022-175.489-7.599-2.036ZM585.181 36.299l-47.023 175.489 7.6 2.036L592.78 38.3353l-7.599-2.0363Zm-140.83 707.496-15.834 180.988 7.837.686 15.835-180.988-7.838-.686Zm63.037-720.5163L491.554 204.267l7.837.686 15.835-180.9886-7.838-.6857ZM432.626 742.338l-23.714 180.125 7.8 1.027 23.714-180.125-7.8-1.027Zm94.405-717.081-23.714 180.125 7.801 1.027 23.714-180.125-7.801-1.027ZM420.975 740.371 389.426 919.29l7.749 1.367 31.548-178.92-7.748-1.366ZM546.569 28.0906 515.021 207.01l7.748 1.366 31.548-178.9192-7.748-1.3662ZM409.42 737.897 370.098 915.27l7.681 1.703L417.101 739.6l-7.681-1.703ZM565.964 31.7732 526.642 209.146l7.681 1.703 39.322-177.373-7.681-1.7028ZM456.13 744.739l-7.925 181.506 7.86.344 7.925-181.507-7.86-.343Zm31.548-722.5802-7.925 181.5062 7.86.344 7.925-181.507-7.86-.3432Zm15.639 721.2062 23.714 180.125 7.8-1.026-23.714-180.126-7.8 1.027ZM408.911 26.2845 432.625 206.41l7.801-1.027-23.714-180.1254-7.801 1.0269Zm82.643 718.1965 15.835 180.988 7.837-.686-15.834-180.988-7.838.686ZM428.517 23.9644l15.835 180.9886 7.837-.686-15.834-180.9883-7.838.6857Zm51.237 721.1176 7.924 181.507 7.861-.344-7.925-181.506-7.86.343Zm-31.549-722.58 7.925 181.507 7.86-.344-7.925-181.5061-7.86.3431Zm19.733 722.666v181.679h7.867V745.168h-7.867Zm0-723.2686V203.579h7.867V21.8994h-7.867Zm59.854 717.7016 39.323 177.373 7.681-1.703-39.323-177.373-7.681 1.703ZM371.248 33.4772 410.571 210.85l7.681-1.703-39.323-177.3727-7.681 1.7029ZM516.171 741.737l31.549 178.92 7.748-1.366-31.548-178.92-7.749 1.366ZM390.577 29.4571l31.548 178.9199 7.749-1.367-31.549-178.9191-7.748 1.3662ZM539.309 736.959l47.022 175.489 7.6-2.037-47.022-175.489-7.6 2.037ZM352.114 38.335l47.022 175.489 7.599-2.036-47.022-175.4893-7.599 2.0363ZM583.9 721.459l76.781 164.658 7.13-3.325-76.781-164.658-7.13 3.325ZM278.233 65.9553l76.781 164.6577 7.131-3.325-76.781-164.6577-7.131 3.325ZM573.017 726.06l69.525 167.85 7.269-3.011-69.525-167.85-7.269 3.011ZM296.234 57.847l69.526 167.85 7.268-3.011-69.525-167.8499-7.269 3.0109Zm265.709 672.335 62.138 170.723 7.393-2.691-62.138-170.723-7.393 2.691ZM314.571 50.5321l62.138 170.7229 7.393-2.691-62.138-170.7228-7.393 2.6909ZM550.7 733.817l54.632 173.271 7.503-2.366-54.632-173.271-7.503 2.366ZM333.209 44.0236l54.632 173.2704 7.503-2.365-54.632-173.2712-7.503 2.3658ZM594.572 716.387l83.89 161.152 6.979-3.633-83.89-161.151-6.979 3.632ZM260.604 74.8405l83.89 161.1515 6.979-3.633-83.89-161.1514-6.979 3.6329ZM634.751 691.604 745.35 835.74l6.242-4.789-110.6-144.136-6.241 4.789ZM194.453 117.797l110.599 144.136 6.242-4.79-110.599-144.136-6.242 4.79Zm430.669 580.654 104.207 148.823 6.444-4.512-104.207-148.823-6.444 4.512Zm-414.85-592.466 104.207 148.823 6.445-4.513-104.207-148.823-6.445 4.513Zm404.931 598.888 97.616 153.226 6.636-4.227-97.617-153.227-6.635 4.228ZM226.591 94.8742l97.616 153.2268 6.636-4.227-97.617-153.2271-6.635 4.2273ZM605.013 710.855l90.839 157.339 6.814-3.934-90.84-157.339-6.813 3.934ZM243.378 84.486l90.84 157.339 6.814-3.934-90.84-157.3388-6.814 3.9338Zm400.694 599.857 116.781 139.175 6.027-5.058-116.781-139.174-6.027 5.057ZM179.164 130.287l116.781 139.175 6.027-5.057L185.191 125.23l-6.027 5.057Zm498.77 521.164 139.175 116.781 5.057-6.027-139.175-116.781-5.057 6.027ZM123.879 186.543l139.174 116.781 5.057-6.027-139.174-116.781-5.057 6.027ZM670.015 660.22l133.949 122.741 5.315-5.801-133.948-122.741-5.316 5.801ZM136.766 171.587l133.948 122.741 5.316-5.801-133.949-122.741-5.315 5.801Zm524.955 497.049 128.467 128.467 5.564-5.564-128.467-128.466-5.564 5.563ZM150.293 157.208 278.76 285.675l5.564-5.564-128.467-128.466-5.564 5.563Zm502.775 519.474L775.809 810.63l5.8-5.315-122.741-133.949-5.8 5.316Zm-488.633-533.25 122.741 133.949 5.8-5.316-122.741-133.948-5.8 5.315Zm521.028 498.912 144.136 110.6 4.79-6.242-144.136-110.6-4.79 6.242ZM111.656 202.046l144.136 110.6 4.79-6.242-144.136-110.6-4.79 6.242Zm599.748 400.857 161.151 83.89 3.633-6.979-161.151-83.89-3.633 6.979ZM69.8569 268.934l161.1521 83.891 3.632-6.979-161.1512-83.89-3.6329 6.978ZM705.571 613.178l157.339 90.839 3.933-6.813-157.339-90.84-3.933 6.814ZM79.2018 251.543l157.3392 90.84 3.934-6.813-157.3394-90.84-3.9338 6.813ZM699.295 623.189l153.227 97.617 4.227-6.636-153.227-97.616-4.227 6.635ZM89.2964 234.577l153.2266 97.617 4.228-6.636-153.2273-97.616-4.2273 6.635Zm603.2916 398.34 148.823 104.208 4.513-6.445L697.1 626.473l-4.512 6.444ZM100.121 218.068l148.823 104.207 4.513-6.445-148.823-104.207-4.513 6.445Zm616.662 374.313 164.657 76.781 3.325-7.13-164.657-76.781-3.325 7.13ZM61.2787 286.715l164.6573 76.781 3.325-7.131-164.6572-76.781-3.3251 7.131ZM733.571 548.26l175.489 47.022 2.037-7.599-175.489-47.022-2.037 7.599ZM34.9477 361.065l175.4893 47.022 2.036-7.6-175.489-47.022-2.0363 7.6ZM730.1 559.554l173.271 54.632 2.366-7.503-173.271-54.632-2.366 7.503ZM40.307 342.063l173.271 54.632 2.366-7.503L42.6729 334.56l-2.3659 7.503ZM726.14 570.687l170.723 62.138 2.691-7.393-170.723-62.138-2.691 7.393ZM46.4902 323.314l170.7228 62.138 2.691-7.393-170.7229-62.138-2.6909 7.393ZM721.698 581.636l167.85 69.526 3.01-7.269-167.849-69.526-3.011 7.269ZM53.4848 304.853l167.8502 69.526 3.011-7.269-167.8504-69.526-3.0108 7.269ZM736.546 536.825l177.373 39.322 1.703-7.681-177.373-39.323-1.703 7.682ZM30.4223 380.281l177.3727 39.322 1.703-7.681-177.3729-39.323-1.7028 7.682ZM743.388 490.116l181.506 7.924.343-7.86-181.506-7.925-.343 7.861ZM20.8076 458.567l181.5064 7.925.343-7.86-181.5062-7.925-.3432 7.86Zm721.6354 43.326 180.989 15.835.685-7.838-180.988-15.835-.686 7.838ZM21.9272 438.856l180.9878 15.835.686-7.838-180.9881-15.835-.6857 7.838Zm719.0598 74.763 180.125 23.714 1.027-7.8-180.125-23.714-1.027 7.8ZM23.9059 419.213l180.1251 23.714 1.027-7.8-180.1252-23.714-1.0269 7.8ZM739.019 525.27l178.92 31.549 1.366-7.748-178.92-31.549-1.366 7.748ZM26.7389 399.676l178.9191 31.548 1.366-7.748-178.9189-31.548-1.3662 7.748Z" fill="#A77946"/>
  <path d="M201.077 470.44H19.3972v7.868H201.077v-7.868Zm723.268 0H742.666v7.868h181.679v-7.868Zm-719.838 47.082L25.5879 549.071l1.3662 7.748L205.873 525.27l-1.366-7.748Zm712.281-125.594-178.92 31.548 1.366 7.749 178.92-31.549-1.366-7.748ZM202.88 505.82 22.7547 529.534l1.027 7.8L203.907 513.62l-1.027-7.8Zm717.081-94.406-180.125 23.714 1.026 7.8 180.126-23.714-1.027-7.8Zm-718.197 82.642L20.7762 509.891l.6857 7.838L202.45 501.894l-.686-7.838Zm720.516-63.037-180.988 15.835.686 7.838 180.988-15.835-.686-7.838Zm-721.117 51.236L19.6566 490.18l.3432 7.86 181.5062-7.924-.343-7.861Zm722.58-31.548-181.506 7.925.343 7.86 181.506-7.925-.343-7.86Zm-717.099 78.437L29.271 568.467l1.7028 7.681 177.3732-39.323-1.703-7.681ZM912.768 372.6l-177.373 39.323 1.703 7.681 177.373-39.323-1.703-7.681ZM220.184 574.368 52.3337 643.894l3.0108 7.268 167.8495-69.525-3.01-7.269Zm668.213-276.783-167.85 69.526 3.01 7.268 167.85-69.525-3.01-7.269Zm-672.335 265.71L45.3391 625.433l2.6909 7.393 170.723-62.138-2.691-7.393Zm679.65-247.373L724.989 378.06l2.691 7.394 170.723-62.139-2.691-7.393Zm-683.285 236.13L39.156 606.684l2.3658 7.503 173.2712-54.632-2.366-7.503ZM902.22 334.561l-173.271 54.632 2.366 7.503 173.271-54.632-2.366-7.503Zm-692.934 206.1L33.7968 587.683l2.0363 7.599L211.322 548.26l-2.036-7.599Zm698.623-187.196L732.42 400.487l2.037 7.6 175.489-47.022-2.037-7.6ZM224.786 585.251 60.1285 662.032l3.3251 7.131 164.6574-76.781-3.325-7.131ZM880.29 279.585l-164.658 76.781 3.325 7.13 164.658-76.781-3.325-7.13ZM247.793 626.473 98.97 730.68l4.513 6.444 148.823-104.207-4.513-6.444Zm592.467-414.85L691.437 315.83l4.512 6.445 148.824-104.207-4.513-6.445ZM241.373 616.554 88.1456 714.17l4.2272 6.636L245.6 623.19l-4.227-6.636Zm609.998-388.612-153.227 97.617 4.227 6.635 153.227-97.616-4.227-6.636ZM235.39 606.364l-157.339 90.84 3.9338 6.814 157.3392-90.84-3.934-6.814ZM861.759 244.73 704.42 335.57l3.934 6.814 157.339-90.84-3.934-6.814ZM229.858 595.923 68.7063 679.814l3.6329 6.978 161.1518-83.89-3.633-6.979Zm641.547-333.968-161.152 83.89 3.633 6.979 161.152-83.89-3.633-6.979ZM254.641 636.102l-144.136 110.6 4.79 6.242 144.136-110.6-4.79-6.242Zm573.808-440.298-144.137 110.6 4.79 6.242 144.136-110.6-4.789-6.242ZM286.025 671.367 163.284 805.315l5.8 5.315 122.741-133.948-5.8-5.315Zm488.633-533.249L651.917 272.066l5.8 5.315 122.741-133.948-5.8-5.315ZM277.61 663.073 149.143 791.54l5.563 5.563 128.467-128.467-5.563-5.563Zm511.428-511.428L660.571 280.112l5.563 5.563 128.467-128.467-5.563-5.563ZM269.563 654.42 135.615 777.161l5.316 5.801 133.948-122.741-5.316-5.801Zm533.25-488.633L668.865 288.528l5.315 5.8 133.948-122.74-5.315-5.801Zm-540.91 479.637L122.728 762.205l5.057 6.027L266.96 651.451l-5.057-6.027Zm554.055-464.908L676.784 297.297l5.057 6.027 139.175-116.781-5.058-6.027Zm-521.164 498.77L178.013 818.46l6.027 5.058 116.781-139.175-6.027-5.057ZM759.702 125.23 642.921 264.405l6.027 5.057 116.781-139.175-6.027-5.057ZM333.067 706.922l-90.84 157.339 6.813 3.934 90.84-157.339-6.813-3.934ZM694.701 80.5531l-90.84 157.3389 6.814 3.934 90.839-157.3391-6.813-3.9338ZM323.056 700.646l-97.617 153.227 6.636 4.227 97.616-153.227-6.635-4.227ZM711.668 90.6477 614.051 243.875l6.636 4.227 97.616-153.227-6.635-4.2273ZM313.328 693.939 209.12 842.763l6.445 4.512 104.207-148.823-6.444-4.513Zm414.849-592.466L623.97 250.296l6.445 4.513 104.207-148.824-6.445-4.512ZM303.901 686.814 193.302 830.95l6.241 4.79 110.6-144.136-6.242-4.79Zm440.298-573.807L633.6 257.143l6.241 4.79 110.6-144.136-6.242-4.79ZM343.343 712.755l-83.891 161.152 6.979 3.633 83.89-161.152-6.978-3.633ZM677.311 71.2084 593.421 232.36l6.978 3.633L684.29 74.8412l-6.979-3.6328ZM386.689 731.453l-54.632 173.27 7.504 2.366 54.632-173.271-7.504-2.365ZM604.18 41.6593 549.548 214.93l7.504 2.366 54.632-173.2709-7.504-2.3658ZM375.557 727.492l-62.138 170.723 7.394 2.691 62.138-170.723-7.394-2.691ZM622.93 47.8423 560.792 218.565l7.393 2.691 62.138-170.7228-7.393-2.6909ZM364.608 723.05 295.083 890.9l7.268 3.011 69.526-167.85-7.269-3.011ZM641.391 54.8374 571.865 222.687l7.269 3.011L648.66 57.8483l-7.269-3.0109ZM353.863 718.134l-76.781 164.658 7.131 3.325 76.781-164.658-7.131-3.325ZM659.53 62.6306 582.749 227.288l7.13 3.325L666.66 65.9556l-7.13-3.325ZM397.985 734.923l-47.022 175.489 7.599 2.036 47.022-175.489-7.599-2.036ZM585.181 36.299l-47.023 175.489 7.6 2.036L592.78 38.3353l-7.599-2.0363Zm-140.83 707.496-15.834 180.988 7.837.686 15.835-180.988-7.838-.686Zm63.037-720.5163L491.554 204.267l7.837.686 15.835-180.9886-7.838-.6857ZM432.626 742.338l-23.714 180.125 7.8 1.027 23.714-180.125-7.8-1.027Zm94.405-717.081-23.714 180.125 7.801 1.027 23.714-180.125-7.801-1.027ZM420.975 740.371 389.426 919.29l7.749 1.367 31.548-178.92-7.748-1.366ZM546.569 28.0906 515.021 207.01l7.748 1.366 31.548-178.9192-7.748-1.3662ZM409.42 737.897 370.098 915.27l7.681 1.703L417.101 739.6l-7.681-1.703ZM565.964 31.7732 526.642 209.146l7.681 1.703 39.322-177.373-7.681-1.7028ZM456.13 744.739l-7.925 181.506 7.86.344 7.925-181.507-7.86-.343Zm31.548-722.5802-7.925 181.5062 7.86.344 7.925-181.507-7.86-.3432Zm15.639 721.2062 23.714 180.125 7.8-1.026-23.714-180.126-7.8 1.027ZM408.911 26.2845 432.625 206.41l7.801-1.027-23.714-180.1254-7.801 1.0269Zm82.643 718.1965 15.835 180.988 7.837-.686-15.834-180.988-7.838.686ZM428.517 23.9644l15.835 180.9886 7.837-.686-15.834-180.9883-7.838.6857Zm51.237 721.1176 7.924 181.507 7.861-.344-7.925-181.506-7.86.343Zm-31.549-722.58 7.925 181.507 7.86-.344-7.925-181.5061-7.86.3431Zm19.733 722.666v181.679h7.867V745.168h-7.867Zm0-723.2686V203.579h7.867V21.8994h-7.867Zm59.854 717.7016 39.323 177.373 7.681-1.703-39.323-177.373-7.681 1.703ZM371.248 33.4772 410.571 210.85l7.681-1.703-39.323-177.3727-7.681 1.7029ZM516.171 741.737l31.549 178.92 7.748-1.366-31.548-178.92-7.749 1.366ZM390.577 29.4571l31.548 178.9199 7.749-1.367-31.549-178.9191-7.748 1.3662ZM539.309 736.959l47.022 175.489 7.6-2.037-47.022-175.489-7.6 2.037ZM352.114 38.335l47.022 175.489 7.599-2.036-47.022-175.4893-7.599 2.0363ZM583.9 721.459l76.781 164.658 7.13-3.325-76.781-164.658-7.13 3.325ZM278.233 65.9553l76.781 164.6577 7.131-3.325-76.781-164.6577-7.131 3.325ZM573.017 726.06l69.525 167.85 7.269-3.011-69.525-167.85-7.269 3.011ZM296.234 57.847l69.526 167.85 7.268-3.011-69.525-167.8499-7.269 3.0109Zm265.709 672.335 62.138 170.723 7.393-2.691-62.138-170.723-7.393 2.691ZM314.571 50.5321l62.138 170.7229 7.393-2.691-62.138-170.7228-7.393 2.6909ZM550.7 733.817l54.632 173.271 7.503-2.366-54.632-173.271-7.503 2.366ZM333.209 44.0236l54.632 173.2704 7.503-2.365-54.632-173.2712-7.503 2.3658ZM594.572 716.387l83.89 161.152 6.979-3.633-83.89-161.151-6.979 3.632ZM260.604 74.8405l83.89 161.1515 6.979-3.633-83.89-161.1514-6.979 3.6329ZM634.751 691.604 745.35 835.74l6.242-4.789-110.6-144.136-6.241 4.789ZM194.453 117.797l110.599 144.136 6.242-4.79-110.599-144.136-6.242 4.79Zm430.669 580.654 104.207 148.823 6.444-4.512-104.207-148.823-6.444 4.512Zm-414.85-592.466 104.207 148.823 6.445-4.513-104.207-148.823-6.445 4.513Zm404.931 598.888 97.616 153.226 6.636-4.227-97.617-153.227-6.635 4.228ZM226.591 94.8742l97.616 153.2268 6.636-4.227-97.617-153.2271-6.635 4.2273ZM605.013 710.855l90.839 157.339 6.814-3.934-90.84-157.339-6.813 3.934ZM243.378 84.486l90.84 157.339 6.814-3.934-90.84-157.3388-6.814 3.9338Zm400.694 599.857 116.781 139.175 6.027-5.058-116.781-139.174-6.027 5.057ZM179.164 130.287l116.781 139.175 6.027-5.057L185.191 125.23l-6.027 5.057Zm498.77 521.164 139.175 116.781 5.057-6.027-139.175-116.781-5.057 6.027ZM123.879 186.543l139.174 116.781 5.057-6.027-139.174-116.781-5.057 6.027ZM670.015 660.22l133.949 122.741 5.315-5.801-133.948-122.741-5.316 5.801ZM136.766 171.587l133.948 122.741 5.316-5.801-133.949-122.741-5.315 5.801Zm524.955 497.049 128.467 128.467 5.564-5.564-128.467-128.466-5.564 5.563ZM150.293 157.208 278.76 285.675l5.564-5.564-128.467-128.466-5.564 5.563Zm502.775 519.474L775.809 810.63l5.8-5.315-122.741-133.949-5.8 5.316Zm-488.633-533.25 122.741 133.949 5.8-5.316-122.741-133.948-5.8 5.315Zm521.028 498.912 144.136 110.6 4.79-6.242-144.136-110.6-4.79 6.242ZM111.656 202.046l144.136 110.6 4.79-6.242-144.136-110.6-4.79 6.242Zm599.748 400.857 161.151 83.89 3.633-6.979-161.151-83.89-3.633 6.979ZM69.8569 268.934l161.1521 83.891 3.632-6.979-161.1512-83.89-3.6329 6.978ZM705.571 613.178l157.339 90.839 3.933-6.813-157.339-90.84-3.933 6.814ZM79.2018 251.543l157.3392 90.84 3.934-6.813-157.3394-90.84-3.9338 6.813ZM699.295 623.189l153.227 97.617 4.227-6.636-153.227-97.616-4.227 6.635ZM89.2964 234.577l153.2266 97.617 4.228-6.636-153.2273-97.616-4.2273 6.635Zm603.2916 398.34 148.823 104.208 4.513-6.445L697.1 626.473l-4.512 6.444ZM100.121 218.068l148.823 104.207 4.513-6.445-148.823-104.207-4.513 6.445Zm616.662 374.313 164.657 76.781 3.325-7.13-164.657-76.781-3.325 7.13ZM61.2787 286.715l164.6573 76.781 3.325-7.131-164.6572-76.781-3.3251 7.131ZM733.571 548.26l175.489 47.022 2.037-7.599-175.489-47.022-2.037 7.599ZM34.9477 361.065l175.4893 47.022 2.036-7.6-175.489-47.022-2.0363 7.6ZM730.1 559.554l173.271 54.632 2.366-7.503-173.271-54.632-2.366 7.503ZM40.307 342.063l173.271 54.632 2.366-7.503L42.6729 334.56l-2.3659 7.503ZM726.14 570.687l170.723 62.138 2.691-7.393-170.723-62.138-2.691 7.393ZM46.4902 323.314l170.7228 62.138 2.691-7.393-170.7229-62.138-2.6909 7.393ZM721.698 581.636l167.85 69.526 3.01-7.269-167.849-69.526-3.011 7.269ZM53.4848 304.853l167.8502 69.526 3.011-7.269-167.8504-69.526-3.0108 7.269ZM736.546 536.825l177.373 39.322 1.703-7.681-177.373-39.323-1.703 7.682ZM30.4223 380.281l177.3727 39.322 1.703-7.681-177.3729-39.323-1.7028 7.682ZM743.388 490.116l181.506 7.924.343-7.86-181.506-7.925-.343 7.861ZM20.8076 458.567l181.5064 7.925.343-7.86-181.5062-7.925-.3432 7.86Zm721.6354 43.326 180.989 15.835.685-7.838-180.988-15.835-.686 7.838ZM21.9272 438.856l180.9878 15.835.686-7.838-180.9881-15.835-.6857 7.838Zm719.0598 74.763 180.125 23.714 1.027-7.8-180.125-23.714-1.027 7.8ZM23.9059 419.213l180.1251 23.714 1.027-7.8-180.1252-23.714-1.0269 7.8ZM739.019 525.27l178.92 31.549 1.366-7.748-178.92-31.549-1.366 7.748ZM26.7389 399.676l178.9191 31.548 1.366-7.748-178.9189-31.548-1.3662 7.748Z" stroke="#A77946" stroke-width=".1809"/>
</svg>
