<svg viewBox="0 0 909 213" fill="none" xmlns="http://www.w3.org/2000/svg">
  <path fill-rule="evenodd" clip-rule="evenodd" d="M83.5783 2.547c-5.691.917-15.5247 3.4253-21.8529 5.5728-6.3282 2.1462-15.6032 6.21-20.6102 9.0295-5.342 3.0064-12.8168 8.722-18.0873 13.8305-5.4275 5.2594-10.677 11.7388-13.2608 16.3679-2.3518 4.2148-5.329 11.7412-6.6163 16.7266-1.355 5.2513-2.339 12.8683-2.339 18.1079 0 4.9739.5752 11.8108 1.2767 15.1944.7028 3.3824 3.3591 10.4724 5.903 15.7554 3.2139 6.671 6.9829 12.079 12.346 17.713 4.2446 4.46 11.361 10.509 15.814 13.443 4.4519 2.933 12.4467 7.092 17.7653 9.241 5.3174 2.148 14.3874 5.093 20.1534 6.543 9.3137 2.342 13.2326 2.63 35.0808 2.574 22.907-.058 25.398-.276 36.281-3.182 6.427-1.717 16.968-5.703 23.425-8.857 6.456-3.155 14.733-8.096 18.392-10.981 3.659-2.884 9.292-8.388 12.518-12.23 3.227-3.842 7.508-10.396 9.514-14.562 2.007-4.167 4.403-11.099 5.323-15.4051.921-4.3065 1.683-11.2734 1.695-15.48.011-4.2077-1.019-11.6773-2.29-16.6001-1.271-4.9216-4.175-12.4491-6.456-16.7254-2.28-4.2774-6.809-10.7695-10.064-14.4283-3.255-3.6575-10.574-9.7364-16.264-13.5089-5.69-3.7713-14.568-8.4713-19.728-10.4434-5.16-1.9733-14.307-4.7057-20.323-6.0731-7.935-1.8027-15.928-2.5966-29.095-2.888-12.061-.2681-21.6267.1567-28.5007 1.2652Zm237.5657-.9473c-1.932.2473-7.73 1.271-12.883 2.274-5.154 1.0029-13.499 3.3128-18.544 5.1329-5.047 1.8201-12.512 5.1584-16.589 7.4184-4.077 2.2589-7.722 4.108-8.1 4.108-.379 0-.689-2.8729-.689-6.3842V7.7646h-32.794V212.059h32.794V177.72c0-18.887.396-34.146.879-33.911.482.236 6.412 3.157 13.176 6.49 6.764 3.334 17.569 7.465 24.011 9.182 10.997 2.93 13.249 3.12 36.893 3.12 23.685 0 25.878-.187 36.894-3.134 6.442-1.724 17.741-6.06 25.108-9.637 11.797-5.726 14.603-7.7 23.502-16.536 7.413-7.36 11.233-12.275 14.339-18.444 2.33-4.627 5.13-12.4 6.224-17.2737 1.422-6.332 1.822-11.8828 1.4-19.4474-.361-6.4585-1.601-13.5264-3.183-18.13-1.426-4.1497-4.428-10.5467-6.671-14.2147-2.242-3.668-6.648-9.4556-9.788-12.8613-3.14-3.4056-9.426-8.6627-13.969-11.683-4.542-3.0203-11.554-6.9727-15.583-8.7824-4.028-1.8096-11.013-4.3819-15.523-5.7156-4.509-1.3337-12.878-3.2165-18.6-4.1834-5.991-1.0133-16.421-1.6842-24.596-1.5844-7.806.0952-15.775.3772-17.708.6257Zm227.667.4411c-3.619.5282-10.135 1.776-14.48 2.7743-4.344.9994-11.924 3.4138-16.845 5.3662-4.919 1.9512-11.644 5.0795-14.943 6.9506-3.3 1.87-6.33 3.4011-6.735 3.4011-.404 0-.735-2.8729-.735-6.3842V7.7646h-32.795V212.059h32.795v-34.243c0-18.833.203-34.242.453-34.242.249 0 4.862 2.307 10.248 5.128 5.388 2.821 13.834 6.459 18.77 8.084s14.108 3.821 20.383 4.882c8.783 1.483 15.881 1.79 30.847 1.335 15.599-.475 21.637-1.165 30.566-3.487 6.119-1.592 14.025-4.134 17.568-5.647 3.543-1.515 9.868-4.577 14.055-6.806 4.689-2.494 11.492-7.844 17.714-13.927 8.339-8.154 10.924-11.596 14.828-19.742 2.599-5.427 5.301-12.635 6.003-16.0174.702-3.3836 1.277-10.4561 1.277-15.7167s-.799-12.679-1.774-16.484c-.976-3.805-3.577-10.578-5.78-15.0528-2.204-4.4736-6.995-11.408-10.65-15.4103-3.655-4.0023-9.882-9.5507-13.839-12.3308-3.956-2.78-9.967-6.4341-13.358-8.1218-3.39-1.6866-10.783-4.6013-16.428-6.476-5.647-1.8745-15.259-4.2112-21.36-5.192-6.134-.9855-17.38-1.7214-25.15-1.646-7.73.0755-17.016.5676-20.635 1.0946Zm226.698.4968c-5.193.9043-13.889 3.0354-19.325 4.7336-5.435 1.6982-13.044 4.6651-16.909 6.592-3.865 1.928-9.983 5.4916-13.594 7.9187-3.611 2.4283-9.744 7.8526-13.63 12.0557-3.885 4.202-8.957 11.2083-11.269 15.5693-2.312 4.361-4.999 11.271-5.971 15.3546-.971 4.0836-1.765 11.8653-1.765 17.2919 0 5.4266.777 13.1329 1.727 17.1259.95 3.9917 3.521 10.7827 5.714 15.0897 2.194 4.307 6.284 10.428 9.09 13.603 2.806 3.175 6.859 7.354 9.006 9.286 2.146 1.933 8.267 6.166 13.602 9.409 5.338 3.244 14.698 7.537 20.811 9.547 6.11 2.008 16.064 4.504 22.119 5.548 8.499 1.464 15.548 1.759 30.92 1.291 14.772-.448 22.179-1.211 28.695-2.953 4.832-1.292 11.695-3.357 15.252-4.591 3.558-1.233 9.356-3.68 12.884-5.436 3.529-1.757 9.659-5.473 13.624-8.258 3.964-2.785 9.926-8.077 13.25-11.759 3.322-3.682 8.127-10.874 10.674-15.982 2.548-5.107 5.404-12.942 6.348-17.4111.943-4.4689 1.724-10.8334 1.736-14.1439.011-3.3093-.79-9.834-1.78-14.4979-.99-4.6651-3.062-11.2118-4.603-14.549-1.541-3.3372-4.447-8.4364-6.456-11.3302-2.009-2.8938-6.366-7.9501-9.68-11.235-3.316-3.2862-9.899-8.4782-14.632-11.5403-4.732-3.0621-12.75-7.1515-17.82-9.0888-5.067-1.9362-14.138-4.642-20.154-6.0128-8.079-1.8386-15.842-2.592-29.68-2.8821-12.62-.2635-21.824.1462-28.184 1.2547ZM126.461 29.2224c6.3.9414 14.996 3.1062 19.325 4.8114 4.33 1.7051 10.507 4.7696 13.728 6.8113 3.221 2.0407 8.253 6.2716 11.181 9.4011 2.929 3.1294 6.538 8.1787 8.019 11.2211 1.482 3.0423 3.263 9.1781 3.96 13.6354.929 5.9466.907 10.0163-.083 15.2896-.742 3.9512-2.744 10.0127-4.451 13.4697-1.706 3.457-5.903 9.06-9.324 12.451-3.755 3.722-9.631 7.835-14.823 10.379-4.731 2.317-12.539 5.263-17.352 6.546-5.568 1.485-14.288 2.566-23.976 2.972-12.618.528-17.2326.226-26.9387-1.764-7.5357-1.545-15.1077-4.067-21.2333-7.071-5.2365-2.567-12.2112-7.065-15.5001-9.996-4.0852-3.639-7.3776-8.13-10.39-14.173-4.2598-8.5409-4.4108-9.2652-4.4108-21.1166 0-11.6297.2108-12.6976 4.0173-20.3737 2.4959-5.032 6.3668-10.3424 10.2202-14.0186 3.4118-3.2548 9.2457-7.4997 12.9655-9.4347 3.7199-1.9338 9.644-4.4434 13.1647-5.5763 3.5219-1.1329 10.6371-2.7115 15.8117-3.5089 5.1756-.7975 12.8355-1.4986 17.0225-1.5578 4.187-.0592 12.768.6616 19.067 1.603Zm227.478-.5188c4.509.6372 11.328 1.9477 15.152 2.91 3.824.9634 10.665 3.6251 15.202 5.9164 4.537 2.2914 10.009 5.6053 12.16 7.3627 2.152 1.7574 5.986 5.9304 8.52 9.2722 2.721 3.5891 5.628 9.4103 7.102 14.2217 1.996 6.5118 2.371 9.9825 1.865 17.2895-.473 6.8485-1.53 11.0459-4.208 16.7169-2.167 4.59-6.05 10.025-9.854 13.795-4.22 4.183-9.513 7.767-16.152 10.938-5.432 2.594-13.829 5.656-18.66 6.804-6.361 1.513-13.47 2.09-25.768 2.093-12.35.005-19.47-.572-26.103-2.114-5.016-1.166-13.338-4.212-18.492-6.769-5.558-2.757-11.914-7.109-15.618-10.692-3.435-3.324-7.378-8.245-8.764-10.934-1.384-2.691-3.361-8.156-4.393-12.1443-1.251-4.8381-1.665-9.7667-1.239-14.7998.35-4.1508 1.731-10.419 3.069-13.9291 1.338-3.5113 4.306-8.7115 6.596-11.5566 2.289-2.845 6.903-7.2164 10.25-9.7144 3.349-2.4968 8.987-5.8212 12.53-7.3859 3.543-1.5659 9.385-3.6019 12.981-4.5235 3.597-.9217 9.658-2.1277 13.469-2.6779 3.812-.5514 10.356-1.0551 14.543-1.1201 4.187-.065 11.303.4027 15.812 1.0412Zm233.729.4805c6.156.9193 14.652 2.9159 18.879 4.4365 4.227 1.5206 10.24 4.2483 13.363 6.0626 3.122 1.8131 8.229 5.8247 11.347 8.9147 3.199 3.1723 7.206 8.8775 9.202 13.1027 2.508 5.3093 3.722 9.9547 4.182 15.993.358 4.6813.064 11.2222-.654 14.5362-.717 3.314-2.445 8.4292-3.838 11.3682-1.394 2.939-5.089 8.115-8.213 11.501-3.769 4.087-8.816 7.776-15.008 10.969-5.133 2.646-13.436 5.87-18.451 7.165-5.016 1.295-14.959 2.658-22.095 3.028-7.728.402-16.835.115-22.517-.709-5.248-.761-13.251-2.633-17.786-4.162-4.534-1.528-10.976-4.243-14.315-6.034-3.339-1.791-8.769-5.868-12.065-9.06-3.297-3.192-7.423-8.709-9.17-12.261-1.746-3.552-3.789-9.7286-4.539-13.7274-1.047-5.5821-1.037-9.1585.044-15.408.774-4.4759 2.778-10.91 4.452-14.2983 1.675-3.3894 5.463-8.5919 8.419-11.5635 2.955-2.9715 8.299-7.1596 11.875-9.307 3.576-2.1474 9.879-5.0273 14.007-6.4016 4.128-1.3743 12.034-3.1979 17.568-4.0522 5.535-.8555 13.226-1.6019 17.091-1.6599 3.865-.058 12.065.6465 18.222 1.567Zm237.692 1.1666c4.832 1.0087 13.001 3.8293 18.155 6.2669 5.393 2.5526 12.216 7.0145 16.076 10.5166 4.297 3.8978 7.985 8.6558 10.267 13.2501 1.958 3.9419 4.083 10.3853 4.722 14.3191.732 4.5084.766 9.9211.092 14.6465-.589 4.1231-2.508 10.4016-4.262 13.9521-1.755 3.552-6.084 9.326-9.621 12.831-3.537 3.505-9.412 7.948-13.054 9.873-3.644 1.924-11.356 4.931-17.136 6.681-9.652 2.922-12.087 3.181-29.834 3.17-16.108-.008-20.846-.425-28.457-2.497-5.022-1.368-12.664-4.155-16.983-6.195-5.072-2.396-10.369-6.207-14.963-10.77-4.157-4.129-8.526-9.957-10.514-14.028-3.118-6.3798-3.406-8.0385-3.431-19.7332-.025-12.007.2-13.2397 3.755-20.679 2.381-4.982 6.083-10.1381 10.002-13.9292 3.421-3.3105 9.363-7.6691 13.202-9.6854 3.84-2.0174 10.702-4.78 15.251-6.1404 4.548-1.3604 11.663-2.9449 15.812-3.5206 4.147-.5746 13.075-.8474 19.839-.6048 6.764.2426 16.251 1.2676 21.082 2.2763Z" fill="#090B0C"/>
</svg>
