<svg viewBox="0 0 538 143" fill="none" xmlns="http://www.w3.org/2000/svg">
  <path fill-rule="evenodd" clip-rule="evenodd" d="M135.651 9.1978c-5.75 4.9863-12.576 10.5099-15.17 12.2753-2.594 1.7641-6.718 5.2643-9.163 7.7757-3.12 3.2034-4.33 5.391-4.055 7.324.255 1.7982 1.565 3.1694 3.763 3.9424 3.146 1.105 3.708.8024 8.366-4.5077 2.747-3.1295 5.907-7.3922 7.024-9.4707 1.116-2.0797 3.403-4.7212 5.084-5.8719 1.679-1.1495 5.22-4.7999 7.866-8.1112 2.647-3.3113 5.453-7.2525 6.235-8.7598.782-1.5061 1.215-2.9465.963-3.201-.254-.2535-5.165 3.6186-10.913 8.6049ZM12.3385 15.4111c0 .5853 2.2373 2.4867 4.9705 4.2251 2.7331 1.7383 9.1807 5.3863 14.3266 8.1064 5.1459 2.7214 12.7771 6.1488 16.9581 7.6174 4.1811 1.4686 8.9176 3.5658 10.5257 4.6591 1.6081 1.0944 5.8184 3.4403 9.3562 5.2139 3.5378 1.7735 6.6008 3.3735 6.8066 3.5553.2059.183-.7157 2.4738-2.0466 5.0907-1.3508 2.6545-2.4209 7.0168-2.4209 9.8636 0 3.5049.7426 5.9025 2.3717 7.6561 1.3041 1.404 3.6723 2.8808 5.2629 3.2808 1.5894.4012 4.3202.3683 6.0675-.0716 1.7473-.4398 5.9599-2.4691 9.362-4.5101 3.401-2.0398 6.009-4.2368 5.795-4.8807-.214-.6452-2.1648-1.6833-4.3354-2.3073-2.1706-.624-5.9447-3.1389-8.3878-5.5893-2.442-2.4491-4.4407-5.2455-4.4407-6.2132 0-1.1812 1.1777-1.7595 3.5857-1.7595 1.9719 0 4.6033-.5466 5.8477-1.2141 1.3063-.7014 2.2618-2.448 2.2618-4.1347 0-2.0949-.9087-3.2797-3.2162-4.1922-1.7695-.6991-11.3654-3.3466-21.3262-5.8814-9.9609-2.536-19.2749-5.3757-20.6983-6.3106-1.4233-.9361-6.0897-3.0228-10.369-4.638-4.2792-1.6152-11.9373-4.218-17.0189-5.7828-5.0804-1.5647-9.238-2.3671-9.238-1.7829ZM156.817 28.5274c-.323 1.4509-1.385 6.2344-2.362 10.6295-.975 4.3952-1.774 10.0443-1.774 12.5544 0 2.5102.629 5.9482 1.398 7.6397.768 1.6914 2.847 3.8274 4.619 4.747 2.343 1.2152 7.729 1.6715 19.713 1.6715 12.452 0 17.33-.4351 19.92-1.7794 1.887-.9782 4.161-3.2222 5.055-4.9852.893-1.7629 2.782-8.748 4.197-15.522 1.416-6.774 2.865-13.5397 3.22-15.0353.602-2.5266.33-2.692-3.837-2.346l-4.484.373-2.672 13.3885c-1.488 7.459-3.532 14.3432-4.615 15.542-1.383 1.5331-3.6 2.1536-7.688 2.1536-4.934 0-5.655-.2898-5.112-2.0528.349-1.1295 1.437-5.9141 2.418-10.633.981-4.7201 1.784-9.3381 1.784-10.2636 0-1.1249-1.291-1.6833-3.891-1.6833-3.882 0-3.894.0165-5.321 7.9177-.787 4.3553-1.958 9.9234-2.602 12.3749l-1.172 4.4585-6.079-.353c-5.906-.3414-6.09-.4587-6.443-4.1278-.2-2.0773.72-8.7985 2.047-14.9355 1.326-6.1371 2.41-11.4319 2.41-11.7662 0-.3331-1.831-.6064-4.071-.6064-3.269 0-4.187.5208-4.658 2.6392Zm67.732-.9889c-1.962.8563-4.941 3.1952-6.62 5.1975-1.681 2.0023-3.628 6.3212-4.328 9.5974-.701 3.2761-1.274 7.8132-1.274 10.0817 0 2.2686.588 5.2773 1.306 6.6872.718 1.4088 2.429 3.4732 3.801 4.5887 1.978 1.607 4.866 2.0316 13.934 2.0527 8.129.0188 11.583-.3988 11.933-1.4404.27-.8058.649-2.5219.839-3.8122.324-2.1806-.474-2.387-11.346-2.9324l-11.696-.5865-.369-3.2257-.371-3.2257h8.725c6.875 0 8.874-.393 9.433-1.8557.391-1.0205.71-2.8679.71-4.1054 0-2.0035-.896-2.2498-8.187-2.2498-6.4 0-8.186-.3742-8.186-1.7137 0-.9431 1.152-2.7905 2.56-4.1055 2.174-2.0316 4.109-2.3917 12.865-2.3917 7.455 0 10.309-.4058 10.321-1.4662.008-.8058.333-2.6545.72-4.1054.696-2.6017.55-2.6381-10.249-2.5935-6.437.027-12.426.6885-14.521 1.6046Zm32.22-.6252c0 .5643-1.287 7.2479-2.86 14.8535-2.532 12.2424-2.677 14.267-1.269 17.6487.875 2.1008 2.654 4.3893 3.953 5.0872 1.299.6968 5.756 1.2668 9.904 1.2668 6.832 0 7.608-.2486 8.247-2.6392.388-1.451.713-3.2984.721-4.1054.012-1.024-2.275-1.4662-7.586-1.4662h-7.602l.026-3.8122c.014-2.0961 1.067-8.5358 2.339-14.3092 1.273-5.7734 2.314-11.1844 2.314-12.0231 0-.9618-1.514-1.526-4.094-1.526-2.251 0-4.093.4609-4.093 1.0251Zm19.527-.1454c-.27.4844-.837 2.3307-1.26 4.1054-.768 3.2222-.763 3.2257 5.686 3.2257 5.686 0 6.454.2804 6.454 2.3589 0 1.2961-1.056 7.2349-2.347 13.196-1.29 5.96-2.616 12.0254-2.946 13.4764-.532 2.3436-.146 2.6392 3.439 2.6392 2.838 0 4.211-.6087 4.627-2.0527.326-1.1296 1.696-7.3311 3.045-13.7825 1.348-6.4514 2.732-12.653 3.074-13.7826.481-1.5847 1.908-2.0527 6.265-2.0527 4.068 0 5.843-.5184 6.355-1.8556.39-1.0205.709-2.868.709-4.1055 0-2.1102-1.011-2.2497-16.304-2.2497-8.968 0-16.525.3953-16.797.8797Zm38.949-.3343c0 .3003-1.602 8.0854-3.561 17.3015-1.958 9.2161-3.857 17.9442-4.22 19.3952-.589 2.3612-.227 2.6392 3.444 2.6392 3.994 0 4.141-.1642 5.493-6.1581.762-3.3876 1.64-7.0813 1.949-8.2109.464-1.7008 1.937-2.0527 8.586-2.0527 5.905 0 8.535.5126 9.958 1.9401 1.425 1.4287 1.738 3.0521 1.191 6.1582-.41 2.3201-1.025 5.1763-1.37 6.3481-.539 1.8357-.007 2.0786 3.86 1.7595 4.351-.3601 4.513-.5349 5.492-5.9435.554-3.0638.682-6.876.283-8.4713-.399-1.594-1.89-3.9869-3.312-5.3159-2.145-2.0046-2.344-2.7624-1.163-4.4315.784-1.1073 3.002-4.6533 4.93-7.879 1.927-3.2257 3.508-6.2602 3.515-6.7446.006-.4844-2.015-.8797-4.49-.8797-4.13 0-4.677.3917-6.642 4.7658-1.179 2.6204-3.668 6.0514-5.531 7.6244-2.365 1.9952-4.812 2.8585-8.106 2.8585h-4.719l.813-4.3987c.448-2.4187 1.098-5.8496 1.446-7.6243.597-3.0428.392-3.2257-3.606-3.2257-2.332 0-4.24.2451-4.24.5454Zm40.035 12.0641c-1.437 6.9347-2.613 14.613-2.611 17.061.001 3.1624.832 5.2867 2.872 7.3312 2.495 2.5031 3.93 2.8796 10.974 2.8796 7.414 0 8.163-.224 8.808-2.6392.388-1.451.713-3.2984.721-4.1054.012-1.0123-2.166-1.4662-7.037-1.4662-5.504 0-7.218-.4294-7.802-1.9542-.412-1.0745.222-6.4854 1.408-12.0231 1.186-5.5376 2.386-11.7838 2.667-13.8811.488-3.6491.342-3.8121-3.438-3.8121h-3.948l-2.614 12.6095Zm36.378-10.1932c-2.035 1.3079-4.555 3.6867-5.601 5.2866-1.045 1.6011-3.196 8.7833-4.78 15.9631-1.582 7.1787-2.878 13.7638-2.878 14.633 0 1.017 1.419 1.5823 3.967 1.5823 3.811 0 4.007-.2193 4.979-5.5716l1.013-5.5717 10.951-.339c9.239-.2862 10.85-.0704 10.294 1.383-.362.9466-1.011 3.6069-1.443 5.9106-.775 4.15-.745 4.1887 3.28 4.1887h4.062l2.501-11.7744c1.374-6.476 2.499-13.6546 2.499-15.9525 0-3.1882-.942-5.1236-3.976-8.1663-3.806-3.8169-4.345-3.987-12.573-3.9682-6.612.0152-9.449.5677-12.295 2.3964Zm40.539-1.1167c-1.608.6323-3.832 2.3143-4.944 3.7371-1.111 1.4229-2.033 4.2732-2.047 6.3341-.015 2.2569 1.021 4.9242 2.606 6.706 1.831 2.0586 5.299 3.6163 11.403 5.1236 7.927 1.9565 8.771 2.4398 8.771 5.0238 0 2.8117-.205 2.8692-12.28 3.4463l-12.28.5865-.366 3.8121-.367 3.8122h12.412c8.784 0 13.411-.5184 15.828-1.7712 1.878-.9747 3.958-2.787 4.62-4.0292.663-1.241 1.204-4.3635 1.204-6.9405 0-3.6198-.674-5.2162-2.975-7.0308-1.636-1.2903-6.442-3.1401-10.679-4.109-4.237-.9701-8.231-2.292-8.875-2.9383-.645-.6463-.855-2.0023-.468-3.0134.576-1.5073 2.915-1.8381 13.02-1.8381 9.065 0 12.321-.3871 12.333-1.4662.008-.8058.333-2.6545.72-4.1054.701-2.6216.621-2.6392-12.003-2.5653-6.99.041-14.025.5923-15.633 1.2257Zm37.162.529c-1.753.9537-3.726 2.746-4.386 3.9811-.659 1.2364-1.198 4.028-1.198 6.2051 0 2.1771.694 4.9125 1.544 6.0772.904 1.2399 5.638 3.2058 11.403 4.7353 8.907 2.3648 9.858 2.8891 9.858 5.4368 0 2.7671-.219 2.8257-11.682 3.1589-6.426.1865-12.015.7143-12.422 1.1729-.405.4587-1.079 2.285-1.497 4.0597l-.757 3.2257h12.945c8.916 0 13.948-.5196 16.167-1.6715 1.773-.9196 3.852-3.0556 4.62-4.747.768-1.6915 1.398-4.6579 1.398-6.5934 0-2.1113-1.081-4.6004-2.704-6.2285-1.783-1.7864-5.798-3.4028-11.765-4.7341-8.131-1.8146-9.022-2.2827-8.698-4.5653.339-2.3893 1.072-2.5653 12.043-2.8832 6.426-.1865 12.015-.7143 12.422-1.173.406-.4586 1.079-2.2849 1.497-4.0596l.758-3.2257-13.18.0469c-9.34.0328-14.108.5525-16.366 1.7817Zm43.56-.5196c-1.595.6381-3.889 2.0562-5.096 3.1518-1.206 1.0944-3.286 4.1019-4.62 6.6825-1.821 3.5201-2.447 6.9886-2.508 13.8881-.077 8.8466.053 9.3053 3.428 12.0406 3.262 2.6451 4.33 2.8222 15.204 2.5337l11.695-.3109.364-3.7687.362-3.7688-11.473-.3367-11.474-.3366-.365-3.1753-.366-3.1753 9.138-.3436 9.136-.3437.366-3.8122.367-3.8122h-8.261c-6.465 0-8.261-.373-8.261-1.7137 0-.9431 1.152-2.7905 2.561-4.1055 2.168-2.0269 4.11-2.3917 12.727-2.3917 9.557 0 10.212-.1583 10.875-2.6392.387-1.451.712-3.2984.72-4.1054.012-1.0733-2.879-1.4463-10.802-1.3923-5.949.041-12.123.597-13.717 1.2351Zm-101.836 8.5851c.766.9254 1.224 3.4321 1.02 5.5716l-.372 3.8885-10.234.3389c-10.121.3355-10.233.3074-10.233-2.4808 0-1.5507 1.091-4.211 2.424-5.9107 2.121-2.7049 3.272-3.0908 9.213-3.0908 4.471 0 7.265.5748 8.182 1.6833Zm-307.45 9.975c-1.709 1.7137-2.411 3.9307-2.411 7.6126 0 3.1577.721 5.9166 1.838 7.0379 1.011 1.0135 2.195 1.8404 2.631 1.8381.437-.0023 2.415-.9959 4.396-2.2064 1.981-1.2117 4.295-3.8826 5.143-5.9353 1.375-3.3301 1.29-4.0726-.793-6.8842-1.284-1.7325-3.699-3.3148-5.365-3.5154-1.877-.2252-3.947.556-5.439 2.0527Zm99.321 24.9118c-.008.8539-.333 2.7401-.72 4.191-.523 1.9554-.206 2.6392 1.222 2.6392 1.06 0 2.149-.6592 2.42-1.4662.27-.8058.649-2.5031.84-3.7699.217-1.4346-.424-2.4621-1.699-2.7249-1.126-.2322-2.053.2768-2.063 1.1308Zm8.94 1.2586c-.387 1.451-.712 3.2996-.72 4.1054-.01.807.717 1.4662 1.613 1.4662.895 0 1.948-.8351 2.339-1.8556.39-1.0205.71-2.8679.71-4.1054 0-1.2375-.729-2.2498-1.618-2.2498-.89 0-1.935 1.1882-2.324 2.6392ZM51.3397 80.1386c-3.1799 3.3875-7.5574 8.7973-9.728 12.023-2.1707 3.2257-7.4148 9.5614-11.6532 14.0784-4.2383 4.518-12.5688 14.185-18.5112 21.483C5.505 135.021.6433 141.522.6433 142.169c0 .648 1.7098-.01 3.8009-1.461s10.4041-7.762 18.4761-14.024c8.0709-6.262 16.3593-13.31 18.42-15.663 2.0596-2.353 3.7495-4.92 3.7554-5.704.0046-.784 3.5577-3.625 7.8942-6.3134 4.3355-2.6885 9.9363-6.6731 12.4449-8.8548 4.1823-3.6374 4.4665-4.2556 3.4186-7.4285-.6281-1.9038-2.8911-4.6497-5.0266-6.1007-2.1356-1.451-4.5191-2.6392-5.2957-2.6392-.7765 0-4.0126 2.7706-7.1914 6.1582Zm170.9963-2.346c-.244.807-1.798 7.7792-3.452 15.4951-2.274 10.6073-3.685 14.7083-5.782 16.8113-2.102 2.109-4.441 2.914-9.668 3.33-4.452.354-7.932-.001-9.819-1.003-2.26-1.199-3.004-2.629-3.274-6.294-.192-2.609.73-9.6984 2.047-15.7533 1.318-6.0561 2.396-11.4307 2.396-11.9445 0-.5138-.93-.9349-2.066-.9349-1.685 0-2.549 2.3261-4.68 12.6096-1.437 6.9347-2.612 14.3651-2.611 16.5121.001 2.778 1.021 4.924 3.539 7.451 3.46 3.471 3.749 3.539 13.373 3.135 8.997-.378 10.139-.704 13.394-3.832 1.956-1.88 4.086-5.047 4.734-7.038.647-1.99 2.237-8.8231 3.535-15.1842 1.297-6.361 2.359-12.2998 2.359-13.196 0-.8973-.806-1.6304-1.79-1.6304-.986 0-1.991.6604-2.235 1.4662Zm53.627-.3906c-.264.2686-.482 1.1917-.482 2.0527 0 1.0451 1.569 1.5636 4.731 1.5636 4.706 0 4.727.0211 4.014 3.8122-.396 2.0961-1.867 9.3545-3.27 16.1285l-2.551 12.316-4.97.36c-3.445.251-4.971.894-4.971 2.096 0 1.434 1.958 1.677 11.308 1.399 7.758-.23 11.46-.796 11.793-1.802.336-1.017-1.017-1.466-4.418-1.466-4.685 0-4.868-.134-4.145-3.027.417-1.663 1.8-8.129 3.075-14.3685 1.274-6.238 2.605-12.2659 2.957-13.3955.466-1.4979 1.881-2.0527 5.238-2.0527 3.211 0 4.6-.5067 4.6-1.6785 0-1.315-2.439-1.7607-11.214-2.0528-6.167-.2064-11.429-.1536-11.695.115Zm38.131.1255c-2.263.5337-5.685 2.7237-7.696 4.9242-2.848 3.1166-4.075 6.13-5.743 14.1016-1.791 8.5617-1.887 10.7057-.618 13.7787.826 2.003 2.982 4.407 4.789 5.344 2.022 1.049 6.681 1.705 12.115 1.705 6.701 0 8.83-.389 8.83-1.61 0-1.182-2.461-1.751-9.291-2.147-5.111-.297-10.11-1.221-11.11-2.054-1.044-.868-1.812-3.332-1.802-5.769.01-2.341.76-7.4156 1.666-11.2782 1.2-5.1212 2.626-7.9012 5.263-10.2636 3.308-2.9653 4.409-3.2409 12.953-3.2409 8.558 0 9.338-.1959 9.338-2.346 0-2.109-.74-2.3342-7.31-2.2263-4.019.0669-9.143.5525-11.384 1.0815Zm26.995 3.1975c-.629 2.4199-2.491 10.8736-4.138 18.7865-1.646 7.9125-2.994 15.1715-2.994 16.1285 0 .957.737 1.741 1.638 1.741 1.02 0 2.162-2.324 3.026-6.158.763-3.388 1.641-7.082 1.95-8.211.487-1.782 2.113-2.053 12.305-2.053h11.743l-.735 2.934c-.403 1.612-1.058 5.307-1.455 8.21-.589 4.315-.387 5.278 1.109 5.278 1.29 0 2.234-1.991 3.196-6.745.751-3.709 2.605-12.5508 4.118-19.6474 1.544-7.2361 2.309-13.3473 1.743-13.9151-.554-.5559-1.51-.7014-2.123-.3214-.613.3789-1.741 4.0023-2.507 8.0502-.767 4.048-1.663 8.2824-1.991 9.412-.517 1.7771-2.157 2.0527-12.213 2.0527-6.389 0-11.598-.3964-11.576-.8797.022-.4833.794-4.3107 1.713-8.5041.92-4.1934 1.691-8.2836 1.714-9.0906.022-.8058-.729-1.4662-1.668-1.4662-.993 0-2.191 1.8462-2.855 4.3986Zm-192.306-2.4433c-.429.4293-.78 1.2211-.78 1.7595 0 .5372 6.251.9771 13.892.9771 11.12 0 14.191.3624 15.395 1.8181 1.233 1.4909 1.206 2.1067-.149 3.4169-.91.8786-7.706 4.8878-15.104 8.91-7.397 4.0209-14.897 8.6527-16.665 10.2917-1.769 1.64-3.216 3.938-3.216 5.107 0 1.17 1.052 3.182 2.339 4.473 2.099 2.105 3.898 2.346 17.542 2.346 12.735 0 15.204-.286 15.204-1.76 0-1.461-2.263-1.759-13.353-1.759-7.345 0-14.187-.32-15.204-.712-1.018-.392-1.85-1.686-1.85-2.876 0-1.535 3.659-4.207 12.572-9.181 6.914-3.8594 14.809-8.3578 17.543-9.9976 4.255-2.5524 4.97-3.5424 4.97-6.8807 0-2.1454-.631-4.5336-1.403-5.3078-.944-.9466-6.246-1.4076-16.178-1.4076-8.127 0-15.127.3519-15.555.7824Zm87.534.6839c-.272.807-2.146 9.5551-4.163 19.4421-2.018 9.8863-3.38 18.2653-3.027 18.6183.353.355 1.36.368 2.239.03.922-.354 2.231-4.178 3.1-9.054l1.504-8.4401 10.494.4059c8.853.3412 10.767.7722 12.233 2.7502 1.285 1.734 1.543 3.953.991 8.505-.621 5.107-.439 6.158 1.068 6.158.999 0 2.073-1.187 2.387-2.639.313-1.453.648-3.695.741-4.986.095-1.29.11-3.534.036-4.985-.073-1.452-1.235-3.743-2.581-5.0929l-2.445-2.4527 2.4-1.6868c1.321-.9278 2.917-3.5576 3.546-5.8449.629-2.2874.834-5.0427.452-6.1242-.381-1.0803-1.483-2.8879-2.45-4.0174-1.464-1.7102-3.784-2.0528-13.893-2.0528-8.665 0-12.277.42-12.632 1.4663Zm23.727 3.4603c.771.7741 1.403 2.5923 1.403 4.0397 0 1.4486-1.264 4.1078-2.81 5.9095-2.571 2.997-3.622 3.3148-12.28 3.709-5.208.2369-9.47.0809-9.47-.3461 0-.4281.573-3.255 1.274-6.2825.7-3.0274 1.473-6.164 1.718-6.971.305-1.0099 3.292-1.4662 9.603-1.4662 5.563 0 9.709.5525 10.562 1.4076ZM83.8595 85.1601l-3.9132 1.7043 4.2056 7.6748c2.3133 4.2204 4.2056 8.1588 4.2056 8.7538 0 .595-2.1309.326-4.7354-.594-2.6045-.922-8.6568-2.419-13.4495-3.3271-4.7927-.9079-8.7141-1.2691-8.7141-.8023 0 .4657 4.8675 3.5414 10.8181 6.8354 5.9505 3.292 12.3969 6.593 14.3266 7.334 1.9297.742 6.2558 2.079 9.6147 2.971 3.3588.893 6.9151 1.312 7.9051.931.988-.38 2.114-1.957 2.501-3.503.386-1.546.339-4.758-.106-7.136-.445-2.38-2.15-6.9949-3.787-10.2569-1.639-3.2609-3.9987-7.3804-5.2465-9.1552-1.683-2.3928-3.2303-3.2139-5.9903-3.1799-2.0467.0258-5.4828.8129-7.6347 1.7501Z" fill="#090B0C"/>
</svg>
