<svg viewBox="0 0 216 213" fill="none" xmlns="http://www.w3.org/2000/svg">
  <path fill-rule="evenodd" clip-rule="evenodd" d="M.3898 2.6117C.0408 4.0487-.1003 51.9732.076 109.112L.397 213h214.735l.297-104.923c.219-76.5588-.057-105.3492-1.017-106.4995C213.32.2693 194.997 0 107.061 0H1.0247L.3898 2.6117Zm130.2162 34.376c4.218 1.3442 10.8 4.4562 14.627 6.917 3.827 2.4597 8.956 6.7765 11.399 9.5925 2.441 2.8172 5.71 7.5938 7.263 10.6152 1.554 3.0215 3.622 8.5061 4.597 12.188.976 3.682 1.792 10.6988 1.813 15.5926.021 4.8937-.568 11.162-1.307 13.929-.742 2.767-3.203 8.558-5.47 12.868-2.66 5.059-6.746 10.28-11.519 14.721-4.152 3.862-10.617 8.385-14.734 10.308-4.035 1.884-10.137 4.072-13.56 4.861-3.421.789-8.699 1.199-11.725.91-3.116-.298-10.29-2.751-16.5345-5.653l-11.032-5.126H55.2476l-.3069-51.0734c-.286-47.6261-.1669-51.1792 1.7505-52.6325 1.649-1.249 8.4307-1.4498 34.151-1.0098 28.4818.4863 32.9568.8229 39.7638 2.9924ZM85.007 90.6556v39.5834l14.8798-.408c14.1122-.385 15.2112-.592 21.2982-4.003 3.709-2.079 8.222-5.948 10.689-9.167 2.349-3.063 5.169-8.408 6.266-11.877 1.463-4.626 1.864-8.9874 1.502-16.3699-.372-7.6157-1.217-11.6145-3.474-16.4468-1.64-3.5113-5.261-8.6059-8.049-11.3209-2.92-2.845-7.706-5.9187-11.296-7.2548-4.834-1.7992-9.093-2.318-19.0229-2.318H85.007v39.582Zm-8.6839 81.6794c2.1065 1.584 1.9466 1.687-2.2757 1.451-2.5628-.142-4.7475.325-5.0148 1.071-.2614.73 1.7716 2.033 4.5316 2.902 3.2689 1.032 5.1525 2.357 5.4326 3.824.2357 1.235-.5158 2.932-1.6712 3.772-1.1554.841-3.5385 1.528-5.296 1.528-1.7564 0-4.0905-.89-5.184-1.979-1.4133-1.406-1.5778-2.117-.5648-2.453.783-.26 2.0096.109 2.7238.818.7131.711 2.5442 1.292 4.0672 1.292 1.9874 0 2.6608-.562 2.3854-1.989-.2323-1.199-2.0879-2.39-4.6658-2.997-2.354-.554-4.6145-1.874-5.023-2.934-.4726-1.222.1833-2.672 1.7914-3.967 1.3935-1.124 3.4265-2.042 4.5165-2.042 1.09 0 3.0004.766 4.2468 1.703Zm-35.4639 1.379c1.174 1.056 2.1345 3.326 2.1345 5.043 0 1.718-1.0293 4.049-2.2862 5.181-1.2581 1.133-4.6717 2.326-7.5858 2.652l-5.2995.595v-15.392h5.4512c3.4358 0 6.2414.71 7.5858 1.921Zm18.9737-.098c1.0083 1.005 1.8953 2.702 1.9711 3.773.077 1.072.0467 2.732-.0653 3.69-.1121.958-1.2838 2.655-2.6014 3.772-1.3187 1.118-3.6528 2.032-5.1863 2.032s-3.8384-1.045-5.1221-2.322c-1.2838-1.277-2.3341-3.716-2.3341-5.422 0-1.705.8695-4.055 1.9315-5.223 1.1215-1.233 3.5326-2.123 5.7523-2.123 2.1007 0 4.6448.821 5.6543 1.823Zm35.6775-.662c0 .638-1.8381 1.16-4.0847 1.16-2.8522 0-4.0846.525-4.0846 1.742 0 1.16 1.1671 1.741 3.5011 1.741 1.9256 0 3.5011.522 3.5011 1.16 0 .639-1.5755 1.161-3.5011 1.161-2.7227 0-3.5011.516-3.5011 2.322 0 1.879.7784 2.321 4.0846 2.321 2.2466 0 4.0847.523 4.0847 1.161s-2.6259 1.161-5.8352 1.161H83.84v-15.09h5.8352c3.2093 0 5.8352.522 5.8352 1.161Zm12.3906 3.772 3.364 4.933.359-4.933c.245-3.359.896-4.933 2.042-4.933 1.294 0 1.684 1.746 1.684 7.545 0 6.412-.307 7.545-2.042 7.543-1.166-.002-3.546-2.368-5.544-5.514l-3.501-5.511-.356 5.513c-.25 3.871-.858 5.514-2.042 5.514-1.298 0-1.686-1.739-1.686-7.545 0-6.592.275-7.545 2.178-7.545 1.258 0 3.602 2.086 5.544 4.933Zm24.666-3.595c.905.9.981 2.019.23 3.413-.721 1.342-.702 2.326.055 2.792.644.395 1.171 1.746 1.171 3.001 0 1.382-1.181 2.728-2.994 3.414-1.647.622-4.798 1.132-7.002 1.132h-4.009v-15.09h5.602c3.081 0 6.207.602 6.947 1.338Zm17.2 6.497c2.093 5.763 2.297 7.255.994 7.255-.902 0-1.943-.784-2.311-1.741-.386-.999-2.128-1.741-4.085-1.741-1.957 0-3.7.742-4.085 1.741-.37.957-1.404 1.741-2.298 1.741-.894 0-1.625-.198-1.625-.439s.849-2.461 1.889-4.933c1.039-2.473 2.353-5.706 2.919-7.186.713-1.861 1.794-2.579 3.5-2.322 1.851.277 3.127 2.185 5.102 7.625Zm17.866-6.442c.771.766 1.401 1.811 1.401 2.321 0 .511-.788.929-1.751.929-.963 0-1.75-.522-1.75-1.161 0-.638-1.519-1.161-3.375-1.161-2.633 0-3.537.642-4.113 2.927-.406 1.609-.182 3.959.498 5.223.681 1.263 2.013 2.297 2.962 2.297.949 0 2.745-.632 3.99-1.407 1.247-.774 2.682-.992 3.192-.485.51.506-.092 1.662-1.337 2.568-1.244.905-3.658 1.646-5.361 1.646-1.703 0-4.054-1.052-5.223-2.337-1.17-1.285-2.125-3.869-2.125-5.742 0-1.872.677-4.216 1.504-5.208.861-1.032 3.339-1.803 5.795-1.803 2.361 0 4.923.627 5.693 1.393Zm8.403 1.509c0 2.542.505 2.902 4.085 2.902 3.579 0 4.084-.36 4.084-2.902 0-1.806.662-2.902 1.751-2.902 1.376 0 1.75 1.612 1.75 7.545s-.374 7.545-1.75 7.545c-1.167 0-1.751-1.161-1.751-3.482 0-3.206-.324-3.483-4.084-3.483-3.761 0-4.085.277-4.085 3.483 0 2.321-.584 3.482-1.751 3.482-1.376 0-1.75-1.612-1.75-7.545s.374-7.545 1.75-7.545c1.089 0 1.751 1.096 1.751 2.902Zm-124.167-.234c-1.3596.989-1.9384 2.648-1.6817 4.817.2159 1.82 1.2394 3.836 2.2757 4.48 1.0364.645 2.7426.845 3.7929.445 1.3188-.504 1.9093-2.138 1.9093-5.285 0-3.083-.5964-4.783-1.8463-5.26-1.0153-.387-1.9653-.704-2.1111-.704-.1459 0-1.1974.679-2.3388 1.507Zm-20.5457 4.296c0 4.396.1879 4.644 3.5373 4.644 2.0703 0 3.8174-.724 4.2107-1.744.3699-.959.3443-3.048-.0584-4.643-.5753-2.281-1.4739-2.9-4.2106-2.9-3.2806 0-3.479.265-3.479 4.643Zm92.1957-2.825c0 1.29.909 1.712 3.12 1.451 1.715-.202 3.334-1.019 3.598-1.818.314-.949-.764-1.451-3.12-1.451-2.488 0-3.598.561-3.598 1.818Zm19.408.794c-.386 1.437-.711 3.004-.719 3.482-.009.479 1.09.871 2.443.871 1.762 0 2.258-.52 1.75-1.836-.389-1.01-.708-2.577-.708-3.483 0-.905-.465-1.646-1.031-1.646-.567 0-1.347 1.175-1.735 2.612Zm-19.408 5.514c0 1.806.779 2.321 3.501 2.321 2.723 0 3.501-.515 3.501-2.321s-.778-2.322-3.501-2.322c-2.722 0-3.501.516-3.501 2.322Z" fill="#090B0C"/>
</svg>
