<svg viewBox="0 0 301 191" fill="none" xmlns="http://www.w3.org/2000/svg">
  <path fill-rule="evenodd" clip-rule="evenodd" d="M202.181 2.1777c-4.174.8996-11.663 2.9797-16.64 4.621-4.976 1.6413-9.049 3.1782-9.049 3.415 0 .2368.488 1.6308 1.086 3.0969.596 1.466 3.546 9.1038 6.554 16.9727 3.008 7.8676 6.133 14.5594 6.944 14.8693.813.31 5.462-2.0232 10.331-5.1828 4.87-3.1596 12.685-7.3255 17.368-9.2582 4.681-1.9315 10.499-3.8781 12.926-4.3262 3.796-.6999 4.317-1.1607 3.722-3.2896-.382-1.3616-2.368-7.0412-4.414-12.621L227.287.3286l-8.758.1056c-4.816.058-12.173.8428-16.348 1.7435Zm7.487 6.8346c.606 2.4004 1.435 2.9019 4.797 2.9019 2.236 0 4.064.4794 4.064 1.0656s.311 1.87.691 2.8531c.479 1.2444-.239 2.0198-2.364 2.5502-2.749.6849-2.979 1.1527-2.312 4.6907.409 2.1613.29 3.9373-.264 3.9466-.552.0081-2.088.3041-3.41.657-1.786.477-2.753-.1184-3.762-2.3204-1.19-2.5966-1.733-2.8218-4.386-1.8189-1.665.6291-3.192 1.1445-3.395 1.1445-.2 0-1.026-1.5833-1.832-3.5195-.807-1.9361-1.264-3.6587-1.018-3.8281.248-.1695 1.889-.9229 3.649-1.6739 2.931-1.2501 3.084-1.6192 1.818-4.3807-1.123-2.4504-1.066-3.213.304-4.0743.927-.5827 2.811-1.0679 4.186-1.0783 1.702-.0116 2.735.91 3.234 2.8845ZM23.3344 42.1103C9.0848 49.2757 7.2538 50.5374 6.169 53.9477c-.6691 2.0987-2.117 7.2119-3.2194 11.3616C1.5939 70.4143.9236 77.5472.8792 87.3638.822 100.017 1.1688 102.76 3.5895 108.802c1.8321 4.573 4.811 8.952 8.7625 12.88 4.1151 4.091 8.1658 6.768 12.957 8.564 3.8429 1.439 10.9741 2.892 15.8937 3.237 4.9079.344 10.2467.296 11.8628-.108 1.6874-.42 6.0897-4.455 10.3436-9.476 4.0718-4.809 7.5493-9.162 7.728-9.674.1775-.511-3.5008.056-8.174 1.258-6.0721 1.563-11.5265 2.086-19.1097 1.833-9.4841-.316-11.1283-.708-15.4605-3.695-3.1225-2.152-5.8736-5.456-7.7326-9.286-1.5869-3.268-3.2334-8.6578-3.6573-11.9741-.425-3.3175-.4215-7.8874.007-10.1567l.7789-4.1265h39.7478l8.0339-6.094c4.4186-3.3523 8.063-6.4852 8.0981-6.9646.035-.4794-7.8179-.8706-17.4515-.8706s-17.5157-.4376-17.5157-.9739c0-.5351 4.5389-4.549 10.0867-8.9193l10.0867-7.9454-3.3724-2.7568c-1.8543-1.516-5.5688-4.2925-8.2534-6.1706-2.6845-1.8781-5.5746-3.386-6.4224-3.3535-.8477.0337-8.7193 3.6704-17.4923 8.0813Zm47.6497-3.1202c-.9867.7081-.9494 1.1155.146 1.5555.8162.3285 2.2618 2.0917 3.2112 3.9175 1.4106 2.7116 1.7282 9.6576 1.7317 37.9094.0035 32.4685.146 34.8225 2.3249 38.3735 1.2763 2.081 4.0321 4.821 6.1258 6.09 2.0926 1.268 4.8087 2.308 6.0348 2.311 1.2261.002 5.0363-2.103 8.4659-4.676 3.4306-2.575 6.2366-5.104 6.2366-5.62 0-.517-2.143-1.578-4.762-2.358-3.7014-1.103-5.1307-2.297-6.4222-5.37-1.3078-3.114-1.6605-11.2044-1.6605-38.1457V38.7824l-10.047-.3761c-5.5256-.2055-10.6484.0569-11.3852.5838Zm23.7676 34.9495c0 18.86.4928 34.2944 1.1502 36.0134.6329 1.653 1.9688 3.319 2.9695 3.701 1.0008.382 2.0736.441 2.3856.131.312-.309.04-1.94-.604-3.623-.6617-1.729-1.2397-16.7808-1.3308-34.6461-.0888-17.3732-.4216-32.2611-.7392-33.0853-.3176-.8229-1.3102-1.4973-2.2046-1.4973-1.3523 0-1.6267 5.5681-1.6267 33.0063Zm-60.087-25.9025c3.5043 2.6303 6.3722 5.1515 6.3722 5.6019 0 .4503-1.1829 1.8978-2.6273 3.2164-1.4445 1.3187-6.2356 5.0912-10.6473 8.3842-4.4104 3.2931-8.2674 5.74-8.571 5.4382-.3036-.3018.4928-4.657 1.7703-9.6784 1.2775-5.0215 3.1376-11.0691 4.1337-13.437.9949-2.3691 2.1217-4.3076 2.5036-4.3076.3818 0 3.5615 2.152 7.0658 4.7823Zm-9.2156 4.2136c-.9704 3.0319-2.1054 7.2107-2.5223 9.2861-.4332 2.1532-.279 3.7725.3585 3.7725.6142 0 1.6348-.6524 2.2677-1.451.6318-.7974 1.4982-2.9007 1.9244-4.672.4251-1.7725 1.8111-4.2531 3.0793-5.5137 1.2681-1.2606 2.3062-2.5165 2.3062-2.7904 0-.2728-.8256-1.3175-1.8345-2.3216-1.01-1.0029-2.2817-1.8235-2.8258-1.8235-.5453 0-1.7843 2.4817-2.7535 5.5136Zm26.6811 2.3529c-7.9545 6.4643-8.0829 6.6535-4.8051 7.0249 2.7137.3088 4.4735-.6988 9.0497-5.1793 3.1248-3.0586 5.681-6.2345 5.681-7.0563 0-.823-.3947-1.4811-.8758-1.4637-.4811.0162-4.5541 3.0203-9.0498 6.6744Zm160.2708 5.3615-13.718 7.0853.023 22.0545c.02 18.9591.327 22.7201 2.186 26.7891 1.19 2.604 3.573 5.836 5.296 7.183 1.722 1.346 5.598 3.219 8.613 4.159 3.014.94 7.599 2.005 10.188 2.367 4.35.606 5.263.205 11.969-5.255 3.994-3.251 7.261-6.373 7.261-6.938 0-.565-3.284-1.031-7.298-1.034-4.014-.004-9.226-.539-11.584-1.189-2.356-.651-5.411-2.09-6.788-3.198-1.52-1.224-2.73-3.83-3.084-6.645-.577-4.6-.518-4.68 8.623-11.8955 5.062-3.9954 10.698-8.816 12.526-10.7115 2.578-2.6756 3.438-4.8346 3.839-9.6448.503-6.0453.368-6.3761-5.492-13.3743-3.304-3.9478-6.645-7.1004-7.424-7.0075-.78.0928-7.591 3.3569-15.136 7.2547Zm-51.457 1.4579-6.634 5.2316-4.864-4.1381c-2.674-2.2751-6.607-4.4631-8.737-4.8601-3.228-.6025-4.853-.0244-9.738 3.4648-3.226 2.3042-6.126 4.1881-6.445 4.1881-.32 0-.581-1.8282-.581-4.0627v-4.0627h-23.121l3.97 3.9466 3.97 3.9466v63.1839l2.628-.7c1.445-.384 4.86-.707 7.59-.715l4.963-.016V97.8106c0-27.9198.085-29.019 2.259-29.019 1.243 0 3.557.4898 5.143 1.0899 1.585.599 3.984 2.2647 5.33 3.7005 2.33 2.4864 2.448 3.8294 2.448 27.93v25.318h15.18V68.5014l3.795.7394c2.087.4063 5.109 1.7028 6.715 2.881l2.919 2.1428.312 30.3444c.17 16.691.637 30.346 1.037 30.346.399 0 4.543-2.906 9.209-6.46 4.667-3.553 9.454-7.546 10.641-8.875 1.584-1.776 1.763-2.552.674-2.93-.813-.283-2.259-1.289-3.211-2.235-1.392-1.384-1.73-5.547-1.73-21.2944 0-11.0086-.543-21.0051-1.243-22.8426-.683-1.7969-2.653-4.7522-4.379-6.5665-1.724-1.8131-5.01-4.2565-7.301-5.4289l-4.167-2.13-6.632 5.2304Zm111.884-.8183c-3.211 2.5165-6.301 4.6048-6.867 4.6396-.565.036-.73-1.7632-.366-3.9977l.664-4.0627h-11.02c-6.061 0-11.02.231-11.02.5143 0 .282 1.182 2.5026 2.627 4.9332 2.512 4.2252 2.644 5.733 2.991 34.3087l.364 29.8899h15.037V68.4944l4.932.7847c2.713.4306 5.866 1.6239 7.007 2.65 1.214 1.0923 2.073 3.5055 2.073 5.8247 0 2.1776-.544 4.9693-1.208 6.2043-.691 1.2826-.746 2.2449-.13 2.2449.595 0 3.109-1.8166 5.589-4.036 2.479-2.2193 4.845-4.0475 5.256-4.0626.412-.0151 1.619-2.1904 2.684-4.8334 1.121-2.7859 1.64-6.1416 1.235-7.9803-.387-1.7446-1.913-4.3029-3.392-5.6854-1.481-1.3825-4.475-2.7522-6.655-3.0447-3.28-.4411-4.967.2554-9.801 4.0441Zm-145.38-1.0307c0 .6755.525.9065 1.167.5119.643-.3947 1.168-.9472 1.168-1.2293s-.525-.5119-1.168-.5119c-.642 0-1.167.5537-1.167 1.2293Zm140.125-.0685c0 .6384.526 1.1607 1.168 1.1607.642 0 1.168-.5223 1.168-1.1607 0-.6385-.526-1.1608-1.168-1.1608-.642 0-1.168.5223-1.168 1.1608Zm-48.236 8.4155c1.981 2.0743 4.448 5.444 5.484 7.4869 1.036 2.0441 1.882 5.1085 1.882 6.8114 0 2.0487-1.533 4.621-4.533 7.603-2.494 2.4782-5.059 4.5061-5.703 4.5061-.642 0-1.485-1.1759-1.873-2.6118-.386-1.4358-.711-8.2274-.719-15.0899-.009-6.8636.406-12.4782.922-12.4782.517 0 2.56 1.6971 4.54 3.7725Zm-33.513 1.4266c.647 1.6924 1.177 11.6192 1.177 22.0591 0 10.4413.319 19.8083.709 20.8183.39 1.01 1.441 1.836 2.335 1.836 1.326 0 1.627-3.597 1.625-19.4424-.002-16.2113-.341-20.1068-2.044-23.4359-1.122-2.1973-2.702-4.2008-3.51-4.4526-1.123-.3518-1.191.2646-.292 2.6175Zm109.774-1.2281c0 .982-.796 3.7643-1.769 6.1822-1.01 2.5073-4 6.1323-6.961 8.4388-2.857 2.224-5.213 4.6964-5.238 5.4939-.024.7986 1.042 1.4509 2.37 1.4509 1.326 0 4.17-1.3314 6.316-2.9599 2.147-1.6274 4.74-4.7104 5.761-6.8497 1.021-2.1393 1.857-5.7388 1.857-7.9988s-.526-4.4318-1.168-4.8265c-.642-.3946-1.168.0859-1.168 1.0691Zm-52.809 6.1265c-.534 6.3958-.8 6.8439-7.995 13.4614-4.092 3.7655-9.689 8.4515-12.437 10.4132-3.427 2.4454-4.995 4.4154-4.995 6.2714 0 1.487 1.164 3.862 2.587 5.277l2.588 2.572.822-3.997c.552-2.684 2.678-5.692 6.462-9.1495 3.103-2.8335 7.837-7.1666 10.521-9.6297 2.685-2.462 5.473-6.2589 6.196-8.4376.961-2.8938.972-5.2281.038-8.6779-.705-2.5955-1.719-4.7185-2.258-4.7185-.537 0-1.226 2.9774-1.529 6.6152Zm-177.6283.9298-6.4504 5.2234H18.5152l.7485 7.8352c.4111 4.3099 1.295 9.7782 1.9641 12.1516.668 2.374 2.5071 5.843 4.0858 7.708 1.5788 1.864 5.0387 4.253 7.6906 5.308 2.6519 1.054 5.0352 1.705 5.2956 1.445.2616-.259-.9774-1.416-2.7511-2.572-1.7738-1.155-4.1232-3.185-5.2221-4.51-1.0988-1.325-2.6005-4.868-3.3373-7.8719-.738-3.0041-.989-7.0563-.5581-9.0052.4308-1.949 1.7562-4.0616 2.9473-4.6942 1.1899-.6337 8.2067-1.1514 15.5924-1.1514 7.387 0 14.9094-.5537 16.717-1.2304 1.8076-.6756 5.2582-3.133 7.6661-5.458 2.409-2.3261 4.3789-5.1688 4.3789-6.3157 0-1.1468-.4776-2.0859-1.0603-2.0859-.5838 0-3.9644 2.3506-7.5119 5.2235Zm151.0333 5.2234c0 5.7458.461 10.4469 1.025 10.4469.563 0 1.543-.6524 2.177-1.451.634-.7974 1.443-4.4004 1.798-8.0046.466-4.7429.169-7.2281-1.077-8.9959-.945-1.343-2.216-2.4423-2.822-2.4423-.608 0-1.101 4.6744-1.101 10.4469ZM126.28 100.713v29.599h-9.427c-8.349 0-9.383.232-9.037 2.031.333 1.728 1.982 2.082 11.002 2.364 7.811.243 10.956-.083 11.918-1.235.883-1.058 1.345-11.134 1.422-30.977.09-23.1463-.212-29.6152-1.422-30.3778-.845-.5328-2.193-.9762-2.996-.9867-1.131-.0139-1.46 6.6663-1.46 29.5825Zm30.361 0v29.599h-9.342c-8.388 0-9.342.224-9.342 2.197 0 1.209.832 2.515 1.847 2.902 1.016.388 5.708.705 10.426.705 6.242 0 9.079-.497 10.415-1.824 1.573-1.564 1.834-6.097 1.834-31.797 0-26.2606-.229-30.0598-1.847-30.6773-1.016-.3877-2.33-.7046-2.919-.7046-.623 0-1.072 12.3981-1.072 29.5999Zm110.932-.662v29.1h-9.341c-8.218 0-9.342.252-9.342 2.09 0 1.149.63 2.716 1.401 3.482.847.841 4.894 1.386 10.218 1.375 4.849-.01 9.604-.513 10.567-1.117 1.486-.934 1.752-5.818 1.752-32.194V71.6935l-2.627-.3715-2.628-.3703v29.0993Zm22.044-10.1277c-1.042.8264-2.174 2.672-2.515 4.1009-.382 1.5996.268 3.718 1.688 5.5137 1.269 1.6041 3.319 2.9161 4.558 2.9161 1.238 0 3.301-1.045 4.586-2.322 1.284-1.2767 2.335-3.2662 2.335-4.4212 0-1.1549-.656-2.9541-1.459-3.9988-.803-1.0447-2.774-2.2124-4.379-2.5955-1.665-.3969-3.733-.0499-4.814.8068Zm7.855 7.5728c-.388.3854-1.021.3877-1.406.0046-.386-.383-.29-1.3581.213-2.1671.736-1.184 1.011-1.184 1.406-.0047.271.8068.174 1.7818-.213 2.1672ZM64.5266 126.249l-8.4519 9.867H45.8479c-5.9553 0-12.874-.776-16.5675-1.859-3.4892-1.021-9.3639-3.854-13.0574-6.296-3.6935-2.439-6.7143-4.06-6.7143-3.6 0 .461 1.9699 2.689 4.3789 4.953 2.409 2.264 6.0219 5.232 8.0303 6.598 2.0085 1.365 6.7167 3.274 10.4628 4.244 3.746.97 11.1493 1.764 16.4507 1.764 9.0393 0 9.8882-.216 13.6167-3.471 2.1871-1.909 6.1025-6.218 8.7018-9.576 3.6947-4.775 4.588-6.802 4.101-9.298-.3421-1.756-.9937-3.192-1.4479-3.192-.4543 0-4.6289 4.44-9.2764 9.866Zm121.3064-1.005c-6.101 4.871-11.268 9.309-11.482 9.863-.215.555.222 1.009.968 1.009.748 0 6.291-3.525 12.32-7.835 6.531-4.669 10.976-8.656 11-9.867.022-1.118-.355-2.03-.837-2.029-.481.002-5.867 3.989-11.969 8.859Zm52.548 1.092c-7.287 6.094-7.801 6.322-12.845 5.677-2.89-.37-6.174-.94-7.299-1.265-1.124-.326-2.043-.092-2.043.518 0 .611 3.375 2.018 7.5 3.128 4.126 1.11 8.767 1.702 10.316 1.316 1.547-.386 5.266-2.848 8.262-5.47 3.66-3.201 5.45-5.689 5.45-7.572 0-1.541-.394-2.775-.876-2.741-.481.034-4.291 2.918-8.465 6.409Zm-140.5337 2.148c-5.8829 4.541-6.3733 5.224-4.2341 5.9 1.4059.443 3.4985.044 4.9908-.953 1.414-.944 3.752-2.835 5.198-4.203 1.445-1.369 2.627-3.251 2.627-4.185 0-.933-.433-1.696-.963-1.696-.531 0-3.959 2.312-7.6187 5.137Zm-15.8447 16.223c-.801.96-1.1233 2.788-.7158 4.062.4064 1.275 1.789 2.649 3.0711 3.053 1.2822.405 3.1213.085 4.087-.711.9645-.797 1.5963-2.798 1.4036-4.448-.2639-2.251-1.107-3.089-3.3712-3.352-1.6605-.191-3.6736.437-4.4747 1.396Zm55.5654 2.63c-.428.425-.779 2.253-.779 4.063 0 2.879-.435 3.288-3.503 3.288-3.114 0-3.503.387-3.503 3.482 0 3.096.389 3.483 3.503 3.483h3.503v10.523c0 5.788.568 11.578 1.262 12.866.694 1.29 3.013 3.071 5.154 3.961 3.268 1.358 4.611 1.369 8.372.075 3.519-1.211 4.48-2.139 4.48-4.327 0-2.591-.376-2.759-5.389-2.415-4.802.33-5.469.077-6.116-2.321-.398-1.48-.732-6.191-.74-10.467l-.016-7.774 6.13-.351c5.667-.324 6.131-.57 6.131-3.253 0-2.682-.464-2.928-6.131-3.252l-6.13-.352v-4.001c0-3.42-.397-4.002-2.725-4.002-1.499 0-3.075.348-3.503.774Zm-112.2952 8.98c-1.9267.845-4.393 2.53-5.4801 3.745-1.0883 1.215-2.5059 4.553-3.1517 7.418-.7882 3.494-.7882 6.921.0012 10.411.6469 2.861 2.0645 6.196 3.1517 7.41 1.0871 1.215 3.7285 2.946 5.8712 3.847 3.1237 1.314 4.7421 1.368 8.174.277 2.353-.749 5.4614-2.432 6.9059-3.741 1.4444-1.311 2.6273-3.596 2.6273-5.081 0-2.143-.6352-2.7-3.0769-2.7-1.7831 0-4.2166 1.221-5.7837 2.902-1.4876 1.596-3.1972 2.902-3.7985 2.902-.6026 0-2.3355-.998-3.8512-2.219-2.291-1.844-2.7569-3.295-2.7569-8.584 0-4.63.606-7.031 2.2245-8.808 1.2237-1.344 3.1563-2.443 4.296-2.443 1.1385 0 2.8585.783 3.8219 1.741.9634.957 3.3654 1.741 5.3388 1.741 1.9723 0 3.586-.557 3.586-1.237 0-.681-.5675-2.292-1.2611-3.58-.6948-1.29-3.0419-3.083-5.2173-3.987-2.1755-.904-4.8928-1.622-6.0371-1.598-1.1444.026-3.6573.737-5.584 1.584Zm179.4272-.605c-.863.543-3.885.729-6.714.412l-5.146-.577v34.111l3.795-.364 3.795-.363.337-11.566c.253-8.668.811-12.086 2.225-13.639 1.038-1.14 3.109-2.073 4.603-2.073 1.923 0 2.93.847 3.448 2.902.567 2.241 1.487 2.901 4.04 2.901 1.82 0 3.619-.499 3.999-1.109.379-.611-.09-2.965-1.043-5.231-1.031-2.454-2.967-4.588-4.784-5.274-1.678-.635-3.937-1.146-5.019-1.137-1.082.011-2.673.464-3.536 1.007Zm50.47.644c-2.005.867-4.513 2.806-5.575 4.308-1.062 1.502-2.454 4.653-3.093 7.004-.744 2.737-.768 6.018-.067 9.123.603 2.668 2.479 6.285 4.169 8.039 1.69 1.752 5.051 3.777 7.467 4.496 2.95.879 5.663.946 8.259.207 2.126-.607 5.063-1.883 6.526-2.836 1.463-.953 3.564-4.083 4.667-6.956 1.424-3.703 1.78-6.733 1.224-10.413-.431-2.855-1.895-6.596-3.255-8.315-1.36-1.718-4.206-3.844-6.326-4.724-2.119-.881-5.315-1.58-7.102-1.556-1.786.026-4.889.756-6.894 1.623ZM81.9069 173.841v16.831h8.174V157.01h-8.174v16.831Zm186.3611-9.745c1.598 1.755 2.225 4.174 2.225 8.584 0 4.41-.627 6.829-2.225 8.584-1.224 1.344-3.491 2.443-5.04 2.443-1.548 0-3.789-.519-4.98-1.151-1.19-.634-2.789-3.031-3.551-5.328-.763-2.296-1.061-5.792-.663-7.768.397-1.976 1.585-4.541 2.641-5.699 1.09-1.198 3.528-2.108 5.644-2.108 2.304 0 4.574.932 5.949 2.443Z" fill="#090B0C"/>
</svg>
