<svg width="21" height="21" viewBox="0 0 21 21" fill="none"
    xmlns="http://www.w3.org/2000/svg">
    <path d="M10.4999 5.64844C9.54033 5.64844 8.60233 5.93298 7.80449 6.46607C7.00666 6.99917 6.38482 7.75688 6.01762 8.64339C5.65042 9.52989 5.55434 10.5054 5.74154 11.4465C5.92874 12.3876 6.3908 13.2521 7.06931 13.9306C7.74781 14.6091 8.61227 15.0711 9.55339 15.2583C10.4945 15.4455 11.47 15.3495 12.3565 14.9823C13.243 14.6151 14.0007 13.9932 14.5338 13.1954C15.0669 12.3975 15.3514 11.4595 15.3514 10.5C15.3514 9.21329 14.8403 7.97927 13.9305 7.06943C13.0206 6.15958 11.7866 5.64844 10.4999 5.64844V5.64844ZM10.4999 14.0859C9.79065 14.0859 9.09734 13.8756 8.50764 13.4816C7.91793 13.0876 7.45831 12.5275 7.1869 11.8723C6.91549 11.217 6.84448 10.496 6.98284 9.80042C7.12121 9.10481 7.46273 8.46586 7.96424 7.96436C8.46574 7.46286 9.10469 7.12133 9.8003 6.98296C10.4959 6.8446 11.2169 6.91561 11.8722 7.18703C12.5274 7.45844 13.0874 7.91806 13.4815 8.50776C13.8755 9.09746 14.0858 9.79077 14.0858 10.5C14.083 11.4502 13.7043 12.3607 13.0324 13.0326C12.3606 13.7045 11.4501 14.0832 10.4999 14.0859ZM15.1405 0.164062H5.85925C4.34876 0.164062 2.90014 0.764103 1.83206 1.83218C0.763981 2.90026 0.16394 4.34888 0.16394 5.85938V15.1406C0.16394 16.6511 0.763981 18.0997 1.83206 19.1678C2.90014 20.2359 4.34876 20.8359 5.85925 20.8359H15.1405C16.651 20.8359 18.0996 20.2359 19.1677 19.1678C20.2358 18.0997 20.8358 16.6511 20.8358 15.1406V5.85938C20.8358 4.34888 20.2358 2.90026 19.1677 1.83218C18.0996 0.764103 16.651 0.164063 15.1405 0.164062V0.164062ZM19.5702 15.1406C19.5702 16.3155 19.1035 17.4422 18.2728 18.2729C17.442 19.1036 16.3153 19.5703 15.1405 19.5703H5.85925C4.68443 19.5703 3.55772 19.1036 2.72699 18.2729C1.89626 17.4422 1.42957 16.3155 1.42957 15.1406V5.85938C1.42957 4.68455 1.89626 3.55784 2.72699 2.72711C3.55772 1.89639 4.68443 1.42969 5.85925 1.42969H15.1405C16.3153 1.42969 17.442 1.89639 18.2728 2.72711C19.1035 3.55784 19.5702 4.68455 19.5702 5.85938V15.1406ZM17.0389 5.01562C17.0389 5.22422 16.9771 5.42814 16.8612 5.60158C16.7453 5.77502 16.5806 5.9102 16.3879 5.99003C16.1951 6.06986 15.9831 6.09074 15.7785 6.05005C15.5739 6.00935 15.386 5.9089 15.2385 5.7614C15.091 5.6139 14.9905 5.42597 14.9498 5.22138C14.9091 5.0168 14.93 4.80473 15.0098 4.61201C15.0897 4.41929 15.2249 4.25457 15.3983 4.13868C15.5717 4.02279 15.7757 3.96094 15.9843 3.96094C16.264 3.96094 16.5322 4.07206 16.73 4.26985C16.9278 4.46764 17.0389 4.7359 17.0389 5.01562Z" fill="#090B0C"/>
</svg>
