<svg width="21" height="21" viewBox="0 0 21 21" fill="none"
    xmlns="http://www.w3.org/2000/svg">
    <path d="M6.91406 8.8125V15.5625C6.91406 15.7303 6.84739 15.8913 6.72872 16.01C6.61004 16.1286 6.44908 16.1953 6.28125 16.1953C6.11342 16.1953 5.95246 16.1286 5.83378 16.01C5.71511 15.8913 5.64844 15.7303 5.64844 15.5625V8.8125C5.64844 8.64467 5.71511 8.48371 5.83378 8.36503C5.95246 8.24636 6.11342 8.17969 6.28125 8.17969C6.44908 8.17969 6.61004 8.24636 6.72872 8.36503C6.84739 8.48371 6.91406 8.64467 6.91406 8.8125V8.8125ZM6.28125 4.38281C6.07265 4.38281 5.86874 4.44467 5.6953 4.56056C5.52185 4.67645 5.38667 4.84117 5.30685 5.03389C5.22702 5.22661 5.20613 5.43867 5.24683 5.64326C5.28752 5.84785 5.38797 6.03578 5.53547 6.18328C5.68297 6.33078 5.8709 6.43123 6.07549 6.47192C6.28008 6.51262 6.49214 6.49173 6.68486 6.4119C6.87758 6.33208 7.0423 6.1969 7.15819 6.02345C7.27408 5.85001 7.33594 5.6461 7.33594 5.4375C7.33594 5.15778 7.22482 4.88952 7.02703 4.69172C6.82923 4.49393 6.56097 4.38281 6.28125 4.38281ZM20.8359 1.64062V19.3594C20.8359 19.751 20.6804 20.1266 20.4035 20.4035C20.1266 20.6804 19.751 20.8359 19.3594 20.8359H1.64062C1.24902 20.8359 0.873447 20.6804 0.596538 20.4035C0.319629 20.1266 0.164063 19.751 0.164062 19.3594V1.64062C0.164063 1.24902 0.319629 0.873447 0.596538 0.596538C0.873447 0.319629 1.24902 0.164063 1.64062 0.164062H19.3594C19.751 0.164063 20.1266 0.319629 20.4035 0.596538C20.6804 0.873447 20.8359 1.24902 20.8359 1.64062V1.64062ZM19.5703 1.64062C19.5703 1.58468 19.5481 1.53103 19.5085 1.49147C19.469 1.45191 19.4153 1.42969 19.3594 1.42969H1.64062C1.58468 1.42969 1.53103 1.45191 1.49147 1.49147C1.45191 1.53103 1.42969 1.58468 1.42969 1.64062V19.3594C1.42969 19.4153 1.45191 19.469 1.49147 19.5085C1.53103 19.5481 1.58468 19.5703 1.64062 19.5703H19.3594C19.4153 19.5703 19.469 19.5481 19.5085 19.5085C19.5481 19.469 19.5703 19.4153 19.5703 19.3594V1.64062ZM12.6094 8.17969C11.7591 8.18036 10.9368 8.48314 10.2891 9.03398V8.8125C10.2891 8.64467 10.2224 8.48371 10.1037 8.36503C9.98504 8.24636 9.82408 8.17969 9.65625 8.17969C9.48842 8.17969 9.32746 8.24636 9.20878 8.36503C9.09011 8.48371 9.02344 8.64467 9.02344 8.8125V15.5625C9.02344 15.7303 9.09011 15.8913 9.20878 16.01C9.32746 16.1286 9.48842 16.1953 9.65625 16.1953C9.82408 16.1953 9.98504 16.1286 10.1037 16.01C10.2224 15.8913 10.2891 15.7303 10.2891 15.5625V11.7656C10.2891 11.1502 10.5335 10.5601 10.9687 10.1249C11.4038 9.68977 11.994 9.44531 12.6094 9.44531C13.2248 9.44531 13.8149 9.68977 14.2501 10.1249C14.6852 10.5601 14.9297 11.1502 14.9297 11.7656V15.5625C14.9297 15.7303 14.9964 15.8913 15.115 16.01C15.2337 16.1286 15.3947 16.1953 15.5625 16.1953C15.7303 16.1953 15.8913 16.1286 16.01 16.01C16.1286 15.8913 16.1953 15.7303 16.1953 15.5625V11.7656C16.1925 10.8154 15.8138 9.90495 15.1419 9.23306C14.47 8.56117 13.5596 8.18247 12.6094 8.17969V8.17969Z" fill="#ECEEEF"/>
</svg>
