<svg viewBox="2 2 944.0440063476562 944.0440673828125" fill="none" xmlns="http://www.w3.org/2000/svg">
  <path d="m291.57 375 28.369 9.907c6.899 5.749 7.474 5.174 5.749 16.673l-11.498 36.796c-1.557 4.599-7.474 6.899-13.224 6.899L270.228 434.5M482.5 681.403l-4.606-29.954c1.816-8.795 1.038-9.031 11.991-12.934l37.869-7.215c4.79-.797 9.609 3.336 12.321 8.406l5.425 29.231M645.803 357.5l-20.801 18.035c-8.355 3.294-8.126 4.074-17.387-2.958l-26.762-27.747c-3.288-3.573-2.466-9.868.293-14.912l20.259-19.063m344.639 163.167c0 260.69-211.332 472.022-472.022 472.022C213.331 946.044 2 734.712 2 474.022 2 213.331 213.331 2 474.022 2c260.69 0 472.022 211.331 472.022 472.022Zm-206.977 0c0 146.38-118.665 265.045-265.045 265.045-146.381 0-265.045-118.665-265.045-265.045 0-146.381 118.664-265.045 265.045-265.045 146.38 0 265.045 118.664 265.045 265.045Zm-31.047 0c0 129.234-104.764 233.998-233.998 233.998-129.234 0-233.999-104.764-233.999-233.998 0-129.234 104.765-233.999 233.999-233.999 129.234 0 233.998 ....393-170.723-62.138-2.691 7.393ZM46.4902 323.314l170.7228 62.138 2.691-7.393-170.7229-62.138-2.6909 7.393ZM721.698 581.636l167.85 69.526 3.01-7.269-167.849-69.526-3.011 7.269ZM53.4848 304.853l167.8502 69.526 3.011-7.269-167.8504-69.526-3.0108 7.269ZM736.546 536.825l177.373 39.322 1.703-7.681-177.373-39.323-1.703 7.682ZM30.4223 380.281l177.3727 39.322 1.703-7.681-177.3729-39.323-1.7028 7.682ZM743.388 490.116l181.506 7.924.343-7.86-181.506-7.925-.343 7.861ZM20.8076 458.567l181.5064 7.925.343-7.86-181.5062-7.925-.3432 7.86Zm721.6354 43.326 180.989 15.835.685-7.838-180.988-15.835-.686 7.838ZM21.9272 438.856l180.9878 15.835.686-7.838-180.9881-15.835-.6857 7.838Zm719.0598 74.763 180.125 23.714 1.027-7.8-180.125-23.714-1.027 7.8ZM23.9059 419.213l180.1251 23.714 1.027-7.8-180.1252-23.714-1.0269 7.8ZM739.019 525.27l178.92 31.549 1.366-7.748-178.92-31.549-1.366 7.748ZM26.7389 399.676l178.9191 31.548 1.366-7.748-178.9189-31.548-1.3662 7.748Z" stroke="#A77946" stroke-width=".1809"></path>
</svg>