<svg width="953" height="953" viewBox="0 0 953 953" fill="none" xmlns="http://www.w3.org/2000/svg">
<g clip-path="url(#clip0_341_221)">
<path d="M292.984 376.899L321.518 386.863C328.457 392.646 329.035 392.067 327.3 403.633L315.735 440.643C314.169 445.269 308.218 447.582 302.435 447.582L271.518 436.745M485.024 685.083L480.392 654.955C482.218 646.109 481.436 645.872 492.452 641.946L530.541 634.689C535.359 633.887 540.206 638.044 542.934 643.144L548.391 672.545M649.277 359.297L628.355 377.437C619.951 380.75 620.182 381.534 610.867 374.462L583.949 346.553C580.642 342.959 581.469 336.628 584.244 331.554L604.621 312.381M951.264 476.496C951.264 738.703 738.703 951.263 476.497 951.263C214.29 951.263 1.72998 738.703 1.72998 476.496C1.72998 214.289 214.29 1.72949 476.497 1.72949C738.703 1.72949 951.264 214.289 951.264 476.496ZM743.083 476.496C743.083 623.728 623.728 743.083 476.497 743.083C329.265 743.083 209.911 623.728 209.911 476.496C209.911 329.264 329.265 209.91 476.497 209.91C623.728 209.91 743.083 329.264 743.083 476.496ZM711.856 476.496C711.856 606.482 606.483 711.855 476.497 711.855C346.511 711.855 241.137 606.482 241.137 476.496C241.137 346.511 346.511 241.137 476.497 241.137C606.483 241.137 711.856 346.511 711.856 476.496ZM685.255 476.496C685.255 591.79 591.791 685.254 476.497 685.254C361.202 685.254 267.738 591.79 267.738 476.496C267.738 361.202 361.202 267.737 476.497 267.737C591.791 267.737 685.255 361.202 685.255 476.496ZM589.261 476.496C589.261 538.775 538.775 589.26 476.497 589.26C414.219 589.26 363.732 538.775 363.732 476.496C363.732 414.218 414.219 363.732 476.497 363.732C538.775 363.732 589.261 414.218 589.261 476.496ZM571.913 476.496C571.913 529.193 529.194 571.912 476.497 571.912C423.8 571.912 381.08 529.193 381.08 476.496C381.08 423.8 423.8 381.08 476.497 381.08C529.194 381.08 571.913 423.8 571.913 476.496ZM559.19 476.496C559.19 522.167 522.167 559.19 476.497 559.19C430.826 559.19 393.803 522.167 393.803 476.496C393.803 430.825 430.826 393.802 476.497 393.802C522.167 393.802 559.19 430.825 559.19 476.496Z" stroke="#A77946" stroke-width="3"/>
<path d="M717.132 450.736C721.388 452.184 723.572 453.697 723.683 455.274C723.793 456.851 721.855 458.748 717.87 460.965L717.693 458.446L721.395 455.507L717.281 453.095L717.132 450.736V450.736ZM727.874 452.39L724.137 455.352L728.213 457.746L728.389 460.266C724.133 458.625 721.95 457.017 721.84 455.44C721.729 453.863 723.681 452.06 727.695 450.033L727.874 452.39ZM718.866 466.984L718.826 464.693L725.543 464.578C726.845 464.555 727.886 465.039 728.666 466.03C729.152 466.692 729.404 467.523 729.421 468.52C729.446 469.989 728.934 471.108 727.885 471.881C727.232 472.332 726.461 472.566 725.569 472.581C724.121 472.606 723.001 472.04 722.207 470.884C721.834 470.229 721.64 469.493 721.626 468.676L721.625 468.603C721.614 467.976 721.756 467.418 722.051 466.928L718.866 466.984V466.984ZM725.532 470.401C726.374 470.386 726.986 470.07 727.367 469.452C727.509 469.175 727.577 468.888 727.572 468.589L727.569 468.442C727.557 467.728 727.172 467.203 726.411 466.869C726.101 466.776 725.812 466.732 725.543 466.737L725.433 466.739C724.577 466.753 723.968 467.111 723.608 467.812C723.5 468.108 723.449 468.366 723.453 468.586C723.467 469.457 723.93 470.036 724.841 470.325C725.15 470.378 725.38 470.403 725.532 470.401V470.401ZM728.995 481.539C728.942 483.016 728.768 484.117 728.473 484.841L726.485 484.769C726.752 484.265 726.908 483.408 726.951 482.201L726.961 481.907C727.019 480.303 726.563 479.484 725.595 479.449C725.369 479.441 725.254 479.551 725.245 479.782L725.155 482.313C725.123 483.207 724.992 483.992 724.762 484.664C724.316 485.779 723.503 486.316 722.325 486.274L722.031 486.264C721.732 486.253 721.414 486.191 721.075 486.075C719.639 485.426 718.964 483.901 719.05 481.499C719.067 481.011 719.157 480.465 719.321 479.864C719.48 479.394 719.647 479.038 719.822 478.795C720.023 478.375 720.425 477.964 721.027 477.56C721.421 477.348 721.7 477.226 721.863 477.193L721.778 479.591C721.253 479.989 720.975 480.648 720.943 481.567L720.924 482.103C721.038 483.425 721.506 484.099 722.328 484.129C722.908 484.066 723.234 483.361 723.306 482.011L723.479 477.192L725.649 477.305C726.163 477.324 726.697 477.443 727.252 477.664C728.484 478.271 729.066 479.563 728.995 481.539V481.539ZM723.685 498.711L721.403 498.509L722.063 491.071L724.316 491.264L723.887 496.437L723.685 498.711V498.711ZM716.57 506.904C716.58 506.832 716.686 506.056 716.886 504.577L723.393 505.494C724.289 505.622 725.033 505.983 725.627 506.576C726.57 507.585 726.924 508.924 726.687 510.591C726.526 511.724 726.153 512.64 725.569 513.339C724.637 514.367 723.517 514.789 722.208 514.603L715.609 513.664L715.958 511.207L722.521 512.141C722.792 512.18 723.089 512.165 723.41 512.096C724.227 511.813 724.692 511.264 724.808 510.449L724.832 510.282C724.923 509.647 724.765 509.089 724.358 508.605C723.95 508.251 723.551 508.046 723.164 507.991L716.546 507.071L716.57 506.904V506.904ZM721.385 523.589C721.094 525.077 720.417 525.944 719.355 526.19C718.899 526.255 718.478 526.249 718.094 526.174L715.875 525.738C714.857 525.538 714.209 524.789 713.93 523.492C713.86 522.94 713.874 522.407 713.975 521.893C714.328 520.097 715.114 519.082 716.332 518.847C716.613 518.817 716.87 518.825 717.105 518.872L717.315 518.913C718.246 519.096 718.785 519.666 718.931 520.623C718.981 521.156 718.941 521.751 718.811 522.409L718.459 524.203C718.454 524.227 718.464 524.242 718.488 524.247C719.199 524.385 719.652 523.956 719.848 522.957L719.89 522.749C720.052 521.927 720.056 521.222 719.902 520.634L721.544 520.957C721.65 521.636 721.597 522.513 721.385 523.589V523.589ZM716.877 520.832C716.416 520.741 716.058 521.087 715.805 521.871L715.733 522.238C715.596 522.934 715.734 523.438 716.147 523.749C716.233 523.791 716.329 523.822 716.436 523.842L717.076 523.969L717.409 522.276C717.535 521.638 717.481 521.212 717.248 521.002C717.15 520.918 717.026 520.861 716.877 520.832V520.832ZM722.226 533.172L721.629 535.542L715.77 534.065L715.767 534.08C715.853 534.178 716.39 534.871 717.377 536.159C717.849 536.793 718.094 537.112 718.113 537.117L717.457 539.722L714.691 536.065C714.688 536.075 713.166 536.768 710.123 538.147L710.848 535.27C710.941 535.243 712.112 534.723 714.361 533.71L711.428 532.971L712.025 530.6L722.226 533.172V533.172ZM714.665 549.306C714.218 550.755 713.453 551.545 712.372 551.678C711.911 551.694 711.494 551.645 711.12 551.529L708.959 550.861C707.969 550.556 707.402 549.743 707.262 548.423C707.249 547.866 707.321 547.338 707.475 546.837C708.016 545.089 708.904 544.162 710.14 544.057C710.422 544.057 710.677 544.092 710.907 544.164L711.11 544.226C712.017 544.507 712.493 545.13 712.537 546.097C712.531 546.632 712.428 547.22 712.23 547.861L711.69 549.608C711.683 549.631 711.691 549.646 711.714 549.654C712.407 549.868 712.903 549.489 713.204 548.516L713.266 548.312C713.514 547.512 713.592 546.812 713.502 546.21L715.101 546.704C715.134 547.39 714.989 548.257 714.665 549.306ZM710.473 546.089C710.024 545.95 709.632 546.257 709.297 547.009L709.187 547.366C708.977 548.044 709.061 548.56 709.439 548.912C709.521 548.963 709.613 549.004 709.716 549.036L710.34 549.229L710.849 547.581C711.041 546.959 711.032 546.53 710.823 546.297C710.735 546.203 710.618 546.133 710.473 546.089V546.089ZM710.619 559.374C710.736 559.933 710.687 560.504 710.473 561.088L710.448 561.157C710.324 561.492 710.165 561.817 709.971 562.132L708.015 561.412C708.365 561.17 708.609 560.858 708.75 560.477C708.826 560.271 708.864 560.011 708.864 559.699C708.749 558.92 708.292 558.385 707.492 558.09L704.081 556.836L704.832 554.796C708.461 556.142 710.807 557.01 711.868 557.4L711.882 557.405L711.094 559.549L710.619 559.374ZM706.458 571.089L705.558 573.189L698.697 570.245L699.578 568.171L704.367 570.192L706.458 571.089V571.089ZM708.571 573.203C708.438 573.513 708.217 573.73 707.909 573.853C707.603 573.983 707.297 573.982 706.991 573.851C706.69 573.722 706.478 573.5 706.357 573.188C706.234 572.879 706.239 572.57 706.372 572.259C706.503 571.953 706.724 571.736 707.034 571.608C707.343 571.486 707.648 571.489 707.95 571.617C708.255 571.749 708.468 571.968 708.586 572.274C708.708 572.587 708.703 572.897 708.571 573.203V573.203ZM694.649 579.102C694.677 579.044 694.98 578.419 695.558 577.225L698.731 578.79C699.543 579.19 700.151 579.738 700.556 580.434C701.181 581.6 701.164 582.852 700.504 584.191C700.057 585.099 699.465 585.755 698.733 586.158C697.585 586.727 696.418 586.719 695.233 586.134L691.973 584.527L692.944 582.559L696.17 584.15C696.416 584.271 696.7 584.355 697.019 584.404C697.864 584.428 698.448 584.113 698.77 583.459L698.835 583.327C699.086 582.818 699.084 582.29 698.83 581.745C698.536 581.311 698.214 581.007 697.862 580.834L694.583 579.234L694.649 579.102V579.102ZM682.063 601.909L683.286 599.972L688.965 603.561C690.065 604.257 690.67 605.233 690.779 606.489C690.822 607.31 690.577 608.142 690.044 608.986C689.26 610.227 688.216 610.883 686.916 610.952C686.122 610.971 685.349 610.743 684.595 610.267C683.371 609.493 682.745 608.405 682.716 607.003C682.763 606.251 683.004 605.53 683.442 604.839L683.481 604.776C683.815 604.247 684.24 603.858 684.755 603.61L682.063 601.909V601.909ZM685.761 608.423C686.472 608.874 687.157 608.944 687.815 608.637C688.086 608.484 688.301 608.28 688.46 608.028L688.538 607.904C688.921 607.3 688.885 606.65 688.434 605.953C688.226 605.706 688.008 605.51 687.78 605.367L687.687 605.307C686.963 604.85 686.258 604.815 685.572 605.205C685.321 605.393 685.136 605.58 685.018 605.766C684.552 606.502 684.622 607.24 685.224 607.981C685.453 608.195 685.632 608.343 685.761 608.423ZM683.541 605.588L679.187 606.457L680.403 604.534L684.757 603.664L683.541 605.588ZM674.158 613.82C675.038 612.577 676.013 612.062 677.081 612.273C677.524 612.401 677.905 612.578 678.225 612.805L680.069 614.112C680.916 614.712 681.201 615.66 680.923 616.958C680.758 617.495 680.526 617.975 680.226 618.398C679.168 619.892 678.036 620.495 676.828 620.209C676.56 620.122 676.329 620.009 676.133 619.87L675.96 619.747C675.184 619.199 674.927 618.457 675.185 617.525C675.359 617.018 675.639 616.491 676.027 615.944L677.084 614.452C677.098 614.433 677.095 614.416 677.075 614.402C676.484 613.982 675.894 614.189 675.306 615.019L675.182 615.192C674.322 616.449 673.843 617.375 673.745 617.971L672.379 617.003C672.934 615.771 673.528 614.71 674.158 613.82V613.82ZM677.144 618.176C677.528 618.447 677.996 618.278 678.549 617.668L678.765 617.362C679.175 616.784 679.256 616.268 679.006 615.815C678.941 615.737 678.865 615.669 678.782 615.611L678.249 615.234L677.252 616.641C676.875 617.172 676.749 617.583 676.872 617.875C676.93 617.988 677.021 618.088 677.144 618.176ZM666.443 624.15C667.387 622.956 668.387 622.493 669.443 622.76C669.878 622.911 670.25 623.108 670.557 623.352L672.331 624.754C673.144 625.397 673.379 626.36 673.033 627.64C672.841 628.168 672.583 628.635 672.261 629.043C671.126 630.478 669.962 631.021 668.772 630.673C668.508 630.57 668.283 630.446 668.095 630.297L667.928 630.165C667.184 629.576 666.966 628.822 667.272 627.905C667.473 627.408 667.78 626.896 668.197 626.37L669.331 624.937C669.346 624.918 669.344 624.901 669.325 624.885C668.757 624.436 668.156 624.61 667.525 625.408L667.393 625.575C666.468 626.784 665.941 627.684 665.811 628.274L664.498 627.235C665.118 626.034 665.766 625.006 666.443 624.15V624.15ZM669.195 628.658C669.564 628.949 670.039 628.805 670.624 628.225L670.856 627.931C671.297 627.375 671.404 626.864 671.179 626.398C671.122 626.322 671.05 626.25 670.966 626.183L670.454 625.778L669.383 627.13C668.979 627.641 668.831 628.046 668.939 628.342C668.99 628.459 669.076 628.564 669.195 628.658V628.658ZM666.651 640.391L665.137 642.11L657.242 635.157L658.726 633.451L664.243 638.271L666.651 640.391V640.391ZM646.759 660.709L646.667 660.793C645.305 662.044 643.826 662.546 642.229 662.299C642.243 662.286 642.435 661.488 642.803 659.907L642.819 659.892C643.829 660.268 644.799 659.831 645.732 658.581C646.668 657.336 646.537 656.073 645.342 654.793C644.205 653.657 642.957 653.518 641.598 654.375C640.238 655.239 639.718 656.221 640.039 657.322L640.023 657.337L637.714 657.604C637.495 655.911 638.137 654.374 639.64 652.993C641.392 651.384 643.292 650.999 645.342 651.841C646.058 652.208 646.665 652.663 647.165 653.207C648.523 654.685 648.947 656.348 648.439 658.197C648.123 659.133 647.562 659.97 646.759 660.709V660.709ZM635.063 666.957L634.995 667.013C633.678 668.1 632.293 668.295 630.841 667.596C630.37 667.319 629.965 666.975 629.625 666.563C628.753 665.506 628.487 664.364 628.831 663.135C629.07 662.402 629.545 661.744 630.255 661.158C631.569 660.074 632.944 659.871 634.38 660.551C634.878 660.837 635.296 661.187 635.636 661.599C636.553 662.708 636.794 663.914 636.361 665.219C636.099 665.878 635.667 666.458 635.063 666.957V666.957ZM633.991 662.939C633.446 662.278 632.795 662.028 632.04 662.189C631.796 662.263 631.587 662.371 631.414 662.515L631.323 662.589C630.938 662.907 630.736 663.32 630.715 663.825C630.717 664.311 630.896 664.77 631.251 665.201L631.27 665.224C631.815 665.884 632.454 666.138 633.184 665.985C633.459 665.91 633.696 665.79 633.896 665.625C634.546 665.089 634.704 664.393 634.372 663.538C634.264 663.316 634.138 663.116 633.991 662.939V662.939ZM619.886 672.012C619.627 672.204 619.342 672.28 619.033 672.241C618.721 672.205 618.473 672.065 618.293 671.822C618.109 671.573 618.046 671.295 618.103 670.985C618.155 670.678 618.311 670.429 618.571 670.236C618.83 670.044 619.117 669.966 619.43 670.002C619.74 670.041 619.986 670.184 620.169 670.432C620.35 670.676 620.413 670.952 620.361 671.259C620.304 671.568 620.146 671.82 619.886 672.012V672.012ZM202.965 470.894H20.2285V478.808H202.965V470.894ZM930.439 470.894H747.703V478.808H930.439V470.894ZM206.415 518.25L26.4552 549.982L27.8294 557.775L207.789 526.043L206.415 518.25V518.25ZM922.838 391.926L742.877 423.657L744.251 431.451L924.212 399.719L922.838 391.926V391.926ZM204.778 506.48L23.6055 530.332L24.6385 538.177L205.811 514.325L204.778 506.48V506.48ZM926.029 411.525L744.857 435.377L745.889 443.222L927.062 419.37L926.029 411.525V411.525ZM203.656 494.647L21.6155 510.575L22.3052 518.458L204.346 502.531L203.656 494.647V494.647ZM928.362 431.244L746.321 447.171L747.011 455.055L929.052 439.127L928.362 431.244V431.244ZM203.051 482.778L20.4894 490.749L20.8346 498.655L203.396 490.685L203.051 482.778V482.778ZM929.833 451.046L747.272 459.017L747.617 466.923L930.178 458.952L929.833 451.046ZM208.564 529.94L30.1597 569.491L31.8724 577.217L210.277 537.665L208.564 529.94ZM918.795 372.485L740.39 412.037L742.103 419.763L920.508 380.211L918.795 372.485ZM222.183 575.427L53.3566 645.357L56.3849 652.667L225.21 582.738L222.183 575.427V575.427ZM894.282 297.034L725.456 366.964L728.483 374.275L897.309 304.345L894.282 297.034ZM218.037 564.289L46.3213 626.788L49.0278 634.224L220.744 571.725L218.037 564.289V564.289ZM901.639 315.478L729.924 377.977L732.63 385.414L904.346 322.914L901.639 315.478V315.478ZM214.381 552.981L40.1022 607.93L42.4818 615.477L216.761 560.527L214.381 552.981V552.981ZM908.185 334.225L733.907 389.175L736.286 396.721L910.565 341.772L908.185 334.225ZM211.222 541.524L34.7119 588.819L36.76 596.462L213.269 549.167L211.222 541.524V541.524ZM913.907 353.239L737.398 400.534L739.447 408.179L915.956 360.883L913.907 353.239V353.239ZM226.812 586.373L61.1967 663.6L64.5411 670.773L230.156 593.545L226.812 586.373V586.373ZM886.128 278.929L720.512 356.157L723.856 363.328L889.472 286.101L886.128 278.929ZM249.953 627.835L100.264 732.648L104.803 739.129L254.492 634.316L249.953 627.835ZM845.865 210.572L696.176 315.385L700.715 321.867L850.404 217.055L845.865 210.572V210.572ZM243.495 617.858L89.3767 716.042L93.6285 722.716L247.747 624.532L243.495 617.858V617.858ZM857.041 226.986L702.922 325.171L707.174 331.844L861.292 233.661L857.041 226.986V226.986ZM237.477 607.609L79.2234 698.977L83.1801 705.83L241.434 614.462L237.477 607.609V607.609ZM867.489 243.872L709.235 335.24L713.192 342.093L871.446 250.725L867.489 243.872V243.872ZM231.913 597.107L69.8244 681.486L73.4784 688.504L235.567 604.126L231.913 597.107V597.107ZM877.191 261.197L715.102 345.575L718.756 352.594L880.845 268.216L877.191 261.197ZM256.84 637.52L111.866 748.763L116.684 755.041L261.658 643.798L256.84 637.52ZM833.985 194.661L689.01 305.904L693.828 312.183L838.802 200.939L833.985 194.661V194.661ZM288.407 672.99L164.952 807.717L170.786 813.062L294.241 678.336L288.407 672.99V672.99ZM779.881 136.64L656.427 271.367L662.26 276.712L785.715 141.985L779.881 136.64V136.64ZM279.943 664.647L150.729 793.861L156.324 799.457L285.538 670.243L279.943 664.647ZM794.345 150.245L665.131 279.459L670.726 285.055L799.94 155.841L794.345 150.245V150.245ZM271.849 655.944L137.122 779.399L142.469 785.234L277.196 661.779L271.849 655.944V655.944ZM808.2 164.469L673.473 287.924L678.819 293.758L813.546 170.304L808.2 164.469V164.469ZM264.145 646.896L124.16 764.356L129.247 770.418L269.231 652.958L264.145 646.896V646.896ZM821.422 179.284L681.438 296.744L686.525 302.806L826.509 185.346L821.422 179.284V179.284ZM297.227 680.955L179.767 820.938L185.829 826.025L303.289 686.041L297.227 680.955V680.955ZM764.838 123.677L647.378 263.661L653.44 268.747L770.901 128.763L764.838 123.677V123.677ZM335.722 708.751L244.354 867.005L251.207 870.962L342.575 712.708L335.722 708.751ZM699.459 78.7399L608.091 236.994L614.945 240.951L706.312 82.6966L699.459 78.7399V78.7399ZM325.653 702.439L227.469 856.557L234.143 860.809L332.327 706.69L325.653 702.439ZM716.525 88.8932L618.34 243.012L625.015 247.263L723.199 93.1451L716.525 88.8932ZM315.869 695.693L211.055 845.382L217.537 849.921L322.35 700.232L315.869 695.693ZM733.13 99.7815L628.317 249.47L634.8 254.009L739.613 104.32L733.13 99.7815V99.7815ZM306.387 688.526L195.145 833.501L201.422 838.318L312.665 693.344L306.387 688.526V688.526ZM749.245 111.383L638.003 256.357L644.28 261.175L755.524 116.2L749.245 111.383V111.383ZM346.058 714.618L261.679 876.707L268.699 880.362L353.077 718.272L346.058 714.618V714.618ZM681.968 69.3409L597.59 231.43L604.609 235.084L688.988 72.9948L681.968 69.3409V69.3409ZM389.656 733.425L334.707 907.703L342.254 910.082L397.204 735.804L389.656 733.425ZM608.412 39.6199L553.462 213.898L561.01 216.278L615.96 41.9995L608.412 39.6199V39.6199ZM378.46 729.441L315.96 901.157L323.397 903.863L385.897 732.148L378.46 729.441ZM627.271 45.8389L564.772 217.554L572.208 220.261L634.707 48.5454L627.271 45.8389V45.8389ZM367.447 724.973L297.518 893.799L304.828 896.828L374.758 728.002L367.447 724.973ZM645.839 52.8747L575.909 221.7L583.22 224.729L653.151 55.9031L645.839 52.8747ZM356.639 720.029L279.412 885.644L286.584 888.988L363.812 723.373L356.639 720.029V720.029ZM664.084 60.7132L586.856 226.328L594.028 229.672L671.255 64.0575L664.084 60.7132ZM401.018 736.915L353.723 913.425L361.366 915.473L408.661 738.963L401.018 736.915ZM589.303 34.2285L542.006 210.738L549.65 212.786L596.946 36.2766L589.303 34.2285V34.2285ZM447.654 745.839L431.728 927.879L439.61 928.569L455.537 746.529L447.654 745.839V745.839ZM511.057 21.1324L495.131 203.173L503.014 203.863L518.941 21.8221L511.057 21.1324V21.1324ZM435.86 744.373L412.008 925.546L419.854 926.579L443.706 745.406L435.86 744.373ZM530.814 23.1222L506.962 204.295L514.809 205.328L538.661 24.1552L530.814 23.1222V23.1222ZM424.142 742.395L392.409 922.354L400.203 923.729L431.935 743.769L424.142 742.395ZM550.466 25.9723L518.735 205.932L526.528 207.306L558.259 27.3465L550.466 25.9723V25.9723ZM412.519 739.906L372.969 918.311L380.694 920.024L420.245 741.619L412.519 739.906ZM569.974 29.6763L530.423 208.081L538.149 209.794L577.699 31.389L569.974 29.6763ZM459.501 746.788L451.53 929.35L459.436 929.696L467.407 747.133L459.501 746.788V746.788ZM491.233 20.006L483.261 202.568L491.167 202.914L499.138 20.3512L491.233 20.006V20.006ZM506.962 745.406L530.814 926.579L538.66 925.547L514.808 744.373L506.962 745.406V745.406ZM412.008 24.1557L435.859 205.329L443.706 204.296L419.854 23.1228L412.008 24.1557V24.1557ZM495.131 746.529L511.058 928.569L518.941 927.879L503.015 745.839L495.131 746.529V746.529ZM431.728 21.8221L447.655 203.863L455.537 203.173L439.611 21.1324L431.728 21.8221V21.8221ZM483.262 747.133L491.233 929.696L499.139 929.35L491.168 746.788L483.262 747.133V747.133ZM451.53 20.3512L459.501 202.914L467.407 202.568L459.436 20.0061L451.53 20.3512V20.3512ZM471.378 747.22V929.955H479.291V747.22H471.378ZM471.378 19.7451V202.481H479.291V19.7451H471.378V19.7451ZM531.58 741.62L571.131 920.025L578.857 918.312L539.306 739.908L531.58 741.62V741.62ZM374.125 31.3902L413.677 209.795L421.403 208.082L381.851 29.6774L374.125 31.3902V31.3902ZM519.891 743.769L551.624 923.729L559.417 922.355L527.685 742.395L519.891 743.769ZM393.567 27.3468L425.298 207.307L433.092 205.932L401.36 25.9726L393.567 27.3468V27.3468ZM543.164 738.963L590.459 915.473L598.103 913.424L550.808 736.914L543.164 738.963ZM354.88 36.2763L402.176 212.786L409.819 210.738L362.523 34.2282L354.88 36.2763V36.2763ZM588.014 723.373L665.242 888.988L672.413 885.644L595.186 720.029L588.014 723.373ZM280.57 64.0572L357.797 229.672L364.97 226.328L287.742 60.7129L280.57 64.0572V64.0572ZM577.068 728.001L646.997 896.827L654.308 893.798L584.379 724.972L577.068 728.001ZM298.675 55.9018L368.606 224.728L375.916 221.699L305.987 52.8734L298.675 55.9018V55.9018ZM565.929 732.147L628.429 903.862L635.865 901.156L573.365 729.44L565.929 732.147ZM317.119 48.5443L379.618 220.26L387.054 217.553L324.555 45.8378L317.119 48.5443V48.5443ZM554.621 735.803L609.571 910.081L617.117 907.702L562.168 733.423L554.621 735.803ZM335.865 41.998L390.815 216.276L398.362 213.897L343.412 39.6184L335.865 41.998V41.998ZM598.748 718.271L683.126 880.361L690.146 876.706L605.768 714.618L598.748 718.271V718.271ZM262.838 72.9941L347.216 235.083L354.235 231.429L269.858 69.3401L262.838 72.9941V72.9941ZM639.161 693.344L750.403 838.318L756.681 833.502L645.438 688.527L639.161 693.344ZM196.302 116.2L307.545 261.175L313.823 256.357L202.581 111.383L196.302 116.2V116.2ZM629.476 700.231L734.289 849.92L740.77 845.381L635.957 695.693L629.476 700.231ZM212.213 104.32L317.026 254.008L323.509 249.469L218.696 99.7805L212.213 104.32ZM619.499 706.69L717.683 860.808L724.357 856.556L626.173 702.438L619.499 706.69ZM228.627 93.1443L326.811 247.262L333.485 243.011L235.301 88.8924L228.627 93.1443V93.1443ZM609.25 712.707L700.617 870.961L707.471 867.004L616.102 708.75L609.25 712.707ZM245.512 82.6957L336.88 240.95L343.734 236.993L252.365 78.739L245.512 82.6957ZM648.536 686.041L765.996 826.025L772.058 820.938L654.598 680.955L648.536 686.041V686.041ZM180.924 128.763L298.385 268.747L304.447 263.661L186.986 123.677L180.924 128.763V128.763ZM682.595 652.958L822.579 770.418L827.666 764.356L687.681 646.896L682.595 652.958ZM125.318 185.346L265.301 302.806L270.388 296.744L130.404 179.284L125.318 185.346ZM674.63 661.778L809.358 785.233L814.704 779.398L679.977 655.943L674.63 661.778ZM138.28 170.303L273.007 293.758L278.354 287.923L143.626 164.468L138.28 170.303V170.303ZM666.288 670.243L795.502 799.457L801.098 793.86L671.884 664.647L666.288 670.243ZM151.886 155.841L281.1 285.055L286.696 279.458L157.482 150.245L151.886 155.841V155.841ZM657.584 678.336L781.039 813.062L786.873 807.717L663.418 672.989L657.584 678.336ZM166.11 141.984L289.565 276.712L295.398 271.366L171.943 136.639L166.11 141.984V141.984ZM690.168 643.798L835.142 755.041L839.96 748.763L694.986 637.52L690.168 643.798ZM113.024 200.939L257.998 312.183L262.816 305.904L117.842 194.661L113.024 200.939V200.939ZM716.26 604.127L878.348 688.505L882.002 681.486L719.914 597.108L716.26 604.127ZM70.9817 268.216L233.071 352.595L236.724 345.576L74.6357 261.198L70.9817 268.216V268.216ZM710.393 614.462L868.647 705.83L872.603 698.977L714.349 607.609L710.393 614.462V614.462ZM80.3809 250.724L238.635 342.092L242.592 335.24L84.3376 243.872L80.3809 250.724V250.724ZM704.08 624.531L858.198 722.716L862.45 716.042L708.332 617.858L704.08 624.531ZM90.5342 233.66L244.652 331.844L248.904 325.17L94.7861 226.986L90.5342 233.66V233.66ZM697.334 634.316L847.023 739.13L851.562 732.648L701.872 627.835L697.334 634.316V634.316ZM101.422 217.055L251.11 321.867L255.649 315.385L105.961 210.572L101.422 217.055V217.055ZM721.67 593.544L887.284 670.772L890.629 663.6L725.014 586.373L721.67 593.544ZM62.3536 286.101L227.968 363.328L231.313 356.156L65.698 278.928L62.3536 286.101V286.101ZM738.555 549.167L915.065 596.462L917.114 588.819L740.604 541.524L738.555 549.167ZM35.8694 360.883L212.379 408.179L214.427 400.534L37.9176 353.239L35.8694 360.883V360.883ZM735.064 560.526L909.343 615.476L911.723 607.929L737.444 552.98L735.064 560.526ZM41.2599 341.771L215.539 396.72L217.918 389.174L43.6396 334.224L41.2599 341.771ZM731.081 571.724L902.797 634.223L905.504 626.787L733.788 564.288L731.081 571.724V571.724ZM47.4791 322.913L219.195 385.412L221.901 377.976L50.1856 315.477L47.4791 322.913V322.913ZM726.613 582.737L895.44 652.667L898.467 645.356L729.642 575.426L726.613 582.737V582.737ZM54.5143 304.344L223.341 374.275L226.369 366.963L57.5427 297.033L54.5143 304.344V304.344ZM741.548 537.665L919.952 577.216L921.665 569.49L743.261 529.939L741.548 537.665ZM31.3177 380.211L209.722 419.762L211.435 412.036L33.0304 372.484L31.3177 380.211V380.211ZM748.43 490.685L930.991 498.655L931.336 490.749L748.775 482.778L748.43 490.685V490.685ZM21.6471 458.952L204.209 466.923L204.554 459.017L21.9923 451.046L21.6471 458.952V458.952ZM747.479 502.53L929.521 518.457L930.21 510.574L748.169 494.646L747.479 502.53V502.53ZM22.7732 439.126L204.814 455.054L205.504 447.17L23.4629 431.243L22.7732 439.126V439.126ZM746.015 514.324L927.187 538.176L928.22 530.331L747.048 506.479L746.015 514.324V514.324ZM24.7634 419.369L205.936 443.221L206.969 435.376L25.7963 411.524L24.7634 419.369V419.369ZM744.035 526.043L923.996 557.775L925.37 549.982L745.409 518.25L744.035 526.043ZM27.6129 399.719L207.572 431.45L208.946 423.657L28.9871 391.926L27.6129 399.719V399.719Z" fill="#A77946"/>
<path d="M202.965 470.894H20.2285V478.808H202.965V470.894ZM930.439 470.894H747.703V478.808H930.439V470.894ZM206.415 518.25L26.4552 549.982L27.8294 557.775L207.789 526.043L206.415 518.25V518.25ZM922.838 391.926L742.877 423.657L744.251 431.451L924.212 399.719L922.838 391.926V391.926ZM204.778 506.48L23.6055 530.332L24.6385 538.177L205.811 514.325L204.778 506.48V506.48ZM926.029 411.525L744.857 435.377L745.889 443.222L927.062 419.37L926.029 411.525V411.525ZM203.656 494.647L21.6155 510.575L22.3052 518.458L204.346 502.531L203.656 494.647V494.647ZM928.362 431.244L746.321 447.171L747.011 455.055L929.052 439.127L928.362 431.244V431.244ZM203.051 482.778L20.4894 490.749L20.8346 498.655L203.396 490.685L203.051 482.778V482.778ZM929.833 451.046L747.272 459.017L747.617 466.923L930.178 458.952L929.833 451.046ZM208.564 529.94L30.1597 569.491L31.8724 577.217L210.277 537.665L208.564 529.94ZM918.795 372.485L740.39 412.037L742.103 419.763L920.508 380.211L918.795 372.485ZM222.183 575.427L53.3566 645.357L56.3849 652.667L225.21 582.738L222.183 575.427V575.427ZM894.282 297.034L725.456 366.964L728.483 374.275L897.309 304.345L894.282 297.034ZM218.037 564.289L46.3213 626.788L49.0278 634.224L220.744 571.725L218.037 564.289V564.289ZM901.639 315.478L729.924 377.977L732.63 385.414L904.346 322.914L901.639 315.478V315.478ZM214.381 552.981L40.1022 607.93L42.4818 615.477L216.761 560.527L214.381 552.981V552.981ZM908.185 334.225L733.907 389.175L736.286 396.721L910.565 341.772L908.185 334.225ZM211.222 541.524L34.7119 588.819L36.76 596.462L213.269 549.167L211.222 541.524V541.524ZM913.907 353.239L737.398 400.534L739.447 408.179L915.956 360.883L913.907 353.239V353.239ZM226.812 586.373L61.1967 663.6L64.5411 670.773L230.156 593.545L226.812 586.373V586.373ZM886.128 278.929L720.512 356.157L723.856 363.328L889.472 286.101L886.128 278.929ZM249.953 627.835L100.264 732.648L104.803 739.129L254.492 634.316L249.953 627.835ZM845.865 210.572L696.176 315.385L700.715 321.867L850.404 217.055L845.865 210.572V210.572ZM243.495 617.858L89.3767 716.042L93.6285 722.716L247.747 624.532L243.495 617.858V617.858ZM857.041 226.986L702.922 325.171L707.174 331.844L861.292 233.661L857.041 226.986V226.986ZM237.477 607.609L79.2234 698.977L83.1801 705.83L241.434 614.462L237.477 607.609V607.609ZM867.489 243.872L709.235 335.24L713.192 342.093L871.446 250.725L867.489 243.872V243.872ZM231.913 597.107L69.8244 681.486L73.4784 688.504L235.567 604.126L231.913 597.107V597.107ZM877.191 261.197L715.102 345.575L718.756 352.594L880.845 268.216L877.191 261.197ZM256.84 637.52L111.866 748.763L116.684 755.041L261.658 643.798L256.84 637.52ZM833.985 194.661L689.01 305.904L693.828 312.183L838.802 200.939L833.985 194.661V194.661ZM288.407 672.99L164.952 807.717L170.786 813.062L294.241 678.336L288.407 672.99V672.99ZM779.881 136.64L656.427 271.367L662.26 276.712L785.715 141.985L779.881 136.64V136.64ZM279.943 664.647L150.729 793.861L156.324 799.457L285.538 670.243L279.943 664.647ZM794.345 150.245L665.131 279.459L670.726 285.055L799.94 155.841L794.345 150.245V150.245ZM271.849 655.944L137.122 779.399L142.469 785.234L277.196 661.779L271.849 655.944V655.944ZM808.2 164.469L673.473 287.924L678.819 293.758L813.546 170.304L808.2 164.469V164.469ZM264.145 646.896L124.16 764.356L129.247 770.418L269.231 652.958L264.145 646.896V646.896ZM821.422 179.284L681.438 296.744L686.525 302.806L826.509 185.346L821.422 179.284V179.284ZM297.227 680.955L179.767 820.938L185.829 826.025L303.289 686.041L297.227 680.955V680.955ZM764.838 123.677L647.378 263.661L653.44 268.747L770.901 128.763L764.838 123.677V123.677ZM335.722 708.751L244.354 867.005L251.207 870.962L342.575 712.708L335.722 708.751ZM699.459 78.7399L608.091 236.994L614.945 240.951L706.312 82.6966L699.459 78.7399V78.7399ZM325.653 702.439L227.469 856.557L234.143 860.809L332.327 706.69L325.653 702.439ZM716.525 88.8932L618.34 243.012L625.015 247.263L723.199 93.1451L716.525 88.8932ZM315.869 695.693L211.055 845.382L217.537 849.921L322.35 700.232L315.869 695.693ZM733.13 99.7815L628.317 249.47L634.8 254.009L739.613 104.32L733.13 99.7815V99.7815ZM306.387 688.526L195.145 833.501L201.422 838.318L312.665 693.344L306.387 688.526V688.526ZM749.245 111.383L638.003 256.357L644.28 261.175L755.524 116.2L749.245 111.383V111.383ZM346.058 714.618L261.679 876.707L268.699 880.362L353.077 718.272L346.058 714.618V714.618ZM681.968 69.3409L597.59 231.43L604.609 235.084L688.988 72.9948L681.968 69.3409V69.3409ZM389.656 733.425L334.707 907.703L342.254 910.082L397.204 735.804L389.656 733.425ZM608.412 39.6199L553.462 213.898L561.01 216.278L615.96 41.9995L608.412 39.6199V39.6199ZM378.46 729.441L315.96 901.157L323.397 903.863L385.897 732.148L378.46 729.441ZM627.271 45.8389L564.772 217.554L572.208 220.261L634.707 48.5454L627.271 45.8389V45.8389ZM367.447 724.973L297.518 893.799L304.828 896.828L374.758 728.002L367.447 724.973ZM645.839 52.8747L575.909 221.7L583.22 224.729L653.151 55.9031L645.839 52.8747ZM356.639 720.029L279.412 885.644L286.584 888.988L363.812 723.373L356.639 720.029V720.029ZM664.084 60.7132L586.856 226.328L594.028 229.672L671.255 64.0575L664.084 60.7132ZM401.018 736.915L353.723 913.425L361.366 915.473L408.661 738.963L401.018 736.915ZM589.303 34.2285L542.006 210.738L549.65 212.786L596.946 36.2766L589.303 34.2285V34.2285ZM447.654 745.839L431.728 927.879L439.61 928.569L455.537 746.529L447.654 745.839V745.839ZM511.057 21.1324L495.131 203.173L503.014 203.863L518.941 21.8221L511.057 21.1324V21.1324ZM435.86 744.373L412.008 925.546L419.854 926.579L443.706 745.406L435.86 744.373ZM530.814 23.1222L506.962 204.295L514.809 205.328L538.661 24.1552L530.814 23.1222V23.1222ZM424.142 742.395L392.409 922.354L400.203 923.729L431.935 743.769L424.142 742.395ZM550.466 25.9723L518.735 205.932L526.528 207.306L558.259 27.3465L550.466 25.9723V25.9723ZM412.519 739.906L372.969 918.311L380.694 920.024L420.245 741.619L412.519 739.906ZM569.974 29.6763L530.423 208.081L538.149 209.794L577.699 31.389L569.974 29.6763ZM459.501 746.788L451.53 929.35L459.436 929.696L467.407 747.133L459.501 746.788V746.788ZM491.233 20.006L483.261 202.568L491.167 202.914L499.138 20.3512L491.233 20.006V20.006ZM506.962 745.406L530.814 926.579L538.66 925.547L514.808 744.373L506.962 745.406V745.406ZM412.008 24.1557L435.859 205.329L443.706 204.296L419.854 23.1228L412.008 24.1557V24.1557ZM495.131 746.529L511.058 928.569L518.941 927.879L503.015 745.839L495.131 746.529V746.529ZM431.728 21.8221L447.655 203.863L455.537 203.173L439.611 21.1324L431.728 21.8221V21.8221ZM483.262 747.133L491.233 929.696L499.139 929.35L491.168 746.788L483.262 747.133V747.133ZM451.53 20.3512L459.501 202.914L467.407 202.568L459.436 20.0061L451.53 20.3512V20.3512ZM471.378 747.22V929.955H479.291V747.22H471.378ZM471.378 19.7451V202.481H479.291V19.7451H471.378V19.7451ZM531.58 741.62L571.131 920.025L578.857 918.312L539.306 739.908L531.58 741.62V741.62ZM374.125 31.3902L413.677 209.795L421.403 208.082L381.851 29.6774L374.125 31.3902V31.3902ZM519.891 743.769L551.624 923.729L559.417 922.355L527.685 742.395L519.891 743.769ZM393.567 27.3468L425.298 207.307L433.092 205.932L401.36 25.9726L393.567 27.3468V27.3468ZM543.164 738.963L590.459 915.473L598.103 913.424L550.808 736.914L543.164 738.963ZM354.88 36.2763L402.176 212.786L409.819 210.738L362.523 34.2282L354.88 36.2763V36.2763ZM588.014 723.373L665.242 888.988L672.413 885.644L595.186 720.029L588.014 723.373ZM280.57 64.0572L357.797 229.672L364.97 226.328L287.742 60.7129L280.57 64.0572V64.0572ZM577.068 728.001L646.997 896.827L654.308 893.798L584.379 724.972L577.068 728.001ZM298.675 55.9018L368.606 224.728L375.916 221.699L305.987 52.8734L298.675 55.9018V55.9018ZM565.929 732.147L628.429 903.862L635.865 901.156L573.365 729.44L565.929 732.147ZM317.119 48.5443L379.618 220.26L387.054 217.553L324.555 45.8378L317.119 48.5443V48.5443ZM554.621 735.803L609.571 910.081L617.117 907.702L562.168 733.423L554.621 735.803ZM335.865 41.998L390.815 216.276L398.362 213.897L343.412 39.6184L335.865 41.998V41.998ZM598.748 718.271L683.126 880.361L690.146 876.706L605.768 714.618L598.748 718.271V718.271ZM262.838 72.9941L347.216 235.083L354.235 231.429L269.858 69.3401L262.838 72.9941V72.9941ZM639.161 693.344L750.403 838.318L756.681 833.502L645.438 688.527L639.161 693.344ZM196.302 116.2L307.545 261.175L313.823 256.357L202.581 111.383L196.302 116.2V116.2ZM629.476 700.231L734.289 849.92L740.77 845.381L635.957 695.693L629.476 700.231ZM212.213 104.32L317.026 254.008L323.509 249.469L218.696 99.7805L212.213 104.32ZM619.499 706.69L717.683 860.808L724.357 856.556L626.173 702.438L619.499 706.69ZM228.627 93.1443L326.811 247.262L333.485 243.011L235.301 88.8924L228.627 93.1443V93.1443ZM609.25 712.707L700.617 870.961L707.471 867.004L616.102 708.75L609.25 712.707ZM245.512 82.6957L336.88 240.95L343.734 236.993L252.365 78.739L245.512 82.6957ZM648.536 686.041L765.996 826.025L772.058 820.938L654.598 680.955L648.536 686.041V686.041ZM180.924 128.763L298.385 268.747L304.447 263.661L186.986 123.677L180.924 128.763V128.763ZM682.595 652.958L822.579 770.418L827.666 764.356L687.681 646.896L682.595 652.958ZM125.318 185.346L265.301 302.806L270.388 296.744L130.404 179.284L125.318 185.346ZM674.63 661.778L809.358 785.233L814.704 779.398L679.977 655.943L674.63 661.778ZM138.28 170.303L273.007 293.758L278.354 287.923L143.626 164.468L138.28 170.303V170.303ZM666.288 670.243L795.502 799.457L801.098 793.86L671.884 664.647L666.288 670.243ZM151.886 155.841L281.1 285.055L286.696 279.458L157.482 150.245L151.886 155.841V155.841ZM657.584 678.336L781.039 813.062L786.873 807.717L663.418 672.989L657.584 678.336ZM166.11 141.984L289.565 276.712L295.398 271.366L171.943 136.639L166.11 141.984V141.984ZM690.168 643.798L835.142 755.041L839.96 748.763L694.986 637.52L690.168 643.798ZM113.024 200.939L257.998 312.183L262.816 305.904L117.842 194.661L113.024 200.939V200.939ZM716.26 604.127L878.348 688.505L882.002 681.486L719.914 597.108L716.26 604.127ZM70.9817 268.216L233.071 352.595L236.724 345.576L74.6357 261.198L70.9817 268.216V268.216ZM710.393 614.462L868.647 705.83L872.603 698.977L714.349 607.609L710.393 614.462V614.462ZM80.3809 250.724L238.635 342.092L242.592 335.24L84.3376 243.872L80.3809 250.724V250.724ZM704.08 624.531L858.198 722.716L862.45 716.042L708.332 617.858L704.08 624.531ZM90.5342 233.66L244.652 331.844L248.904 325.17L94.7861 226.986L90.5342 233.66V233.66ZM697.334 634.316L847.023 739.13L851.562 732.648L701.872 627.835L697.334 634.316V634.316ZM101.422 217.055L251.11 321.867L255.649 315.385L105.961 210.572L101.422 217.055V217.055ZM721.67 593.544L887.284 670.772L890.629 663.6L725.014 586.373L721.67 593.544ZM62.3536 286.101L227.968 363.328L231.313 356.156L65.698 278.928L62.3536 286.101V286.101ZM738.555 549.167L915.065 596.462L917.114 588.819L740.604 541.524L738.555 549.167ZM35.8694 360.883L212.379 408.179L214.427 400.534L37.9176 353.239L35.8694 360.883V360.883ZM735.064 560.526L909.343 615.476L911.723 607.929L737.444 552.98L735.064 560.526ZM41.2599 341.771L215.539 396.72L217.918 389.174L43.6396 334.224L41.2599 341.771ZM731.081 571.724L902.797 634.223L905.504 626.787L733.788 564.288L731.081 571.724V571.724ZM47.4791 322.913L219.195 385.412L221.901 377.976L50.1856 315.477L47.4791 322.913V322.913ZM726.613 582.737L895.44 652.667L898.467 645.356L729.642 575.426L726.613 582.737V582.737ZM54.5143 304.344L223.341 374.275L226.369 366.963L57.5427 297.033L54.5143 304.344V304.344ZM741.548 537.665L919.952 577.216L921.665 569.49L743.261 529.939L741.548 537.665ZM31.3177 380.211L209.722 419.762L211.435 412.036L33.0304 372.484L31.3177 380.211V380.211ZM748.43 490.685L930.991 498.655L931.336 490.749L748.775 482.778L748.43 490.685V490.685ZM21.6471 458.952L204.209 466.923L204.554 459.017L21.9923 451.046L21.6471 458.952V458.952ZM747.479 502.53L929.521 518.457L930.21 510.574L748.169 494.646L747.479 502.53V502.53ZM22.7732 439.126L204.814 455.054L205.504 447.17L23.4629 431.243L22.7732 439.126V439.126ZM746.015 514.324L927.187 538.176L928.22 530.331L747.048 506.479L746.015 514.324V514.324ZM24.7634 419.369L205.936 443.221L206.969 435.376L25.7963 411.524L24.7634 419.369V419.369ZM744.035 526.043L923.996 557.775L925.37 549.982L745.409 518.25L744.035 526.043ZM27.6129 399.719L207.572 431.45L208.946 423.657L28.9871 391.926L27.6129 399.719V399.719Z" stroke="#A77946" stroke-width="1.00582"/>
<path d="M482.991 526.032C455.616 529.635 430.503 510.366 426.899 482.991C423.295 455.616 442.566 430.503 469.94 426.899C497.315 423.295 522.428 442.565 526.032 469.94C529.636 497.315 510.367 522.428 482.991 526.032ZM430.441 482.525C433.787 507.945 457.107 525.838 482.526 522.492C507.946 519.145 525.839 495.826 522.493 470.406C519.146 444.987 495.827 427.094 470.407 430.44C444.988 433.786 427.094 457.106 430.441 482.525ZM481.593 515.411C460.085 518.242 440.353 503.102 437.522 481.593C434.689 460.084 449.831 440.352 471.339 437.521C492.848 434.689 512.58 449.83 515.412 471.338C518.243 492.848 503.103 512.579 481.593 515.411Z" stroke="#A77946" stroke-width="3"/>
</g>
<defs>
<clipPath id="clip0_341_221">
<rect width="953" height="953" fill="white"/>
</clipPath>
</defs>
</svg>
