<svg width="21" height="15" viewBox="0 0 21 15" fill="none"
    xmlns="http://www.w3.org/2000/svg">
    <path d="M0.600098 1.79985C0.600098 1.1361 1.15311 0.599854 1.8376 0.599854H16.6876C17.3721 0.599854 17.9251 1.1361 17.9251 1.79985C17.9251 2.4636 17.3721 2.99985 16.6876 2.99985H1.8376C1.15311 2.99985 0.600098 2.4636 0.600098 1.79985ZM3.0751 7.79985C3.0751 7.1361 3.62811 6.59985 4.3126 6.59985H19.1626C19.8471 6.59985 20.4001 7.1361 20.4001 7.79985C20.4001 8.4636 19.8471 8.99985 19.1626 8.99985H4.3126C3.62811 8.99985 3.0751 8.4636 3.0751 7.79985ZM17.9251 13.7999C17.9251 14.4636 17.3721 14.9999 16.6876 14.9999H1.8376C1.15311 14.9999 0.600098 14.4636 0.600098 13.7999C0.600098 13.1361 1.15311 12.5999 1.8376 12.5999H16.6876C17.3721 12.5999 17.9251 13.1361 17.9251 13.7999Z" fill="#090B0C"/>
</svg>
