<svg width="953" height="952" viewBox="0 0 953 952" fill="none" xmlns="http://www.w3.org/2000/svg">
<g clip-path="url(#clip0_299_295)">
<path d="M946.799 414.093C980.974 673.678 798.242 911.819 538.656 945.994C279.07 980.169 40.93 797.438 6.75491 537.852C-27.4202 278.266 155.311 40.1254 414.897 5.95022C674.483 -28.2249 912.624 154.507 946.799 414.093Z" stroke="#A77946" stroke-width="3.34293"/>
<path d="M524.915 326.093C519.169 308.935 514.301 163.923 510.907 73.8714C510.907 73.8714 519.193 61.7482 528.715 59.0895C538.237 56.4309 636.276 70.5793 698.498 114.539C752.27 148.449 775.696 169.852 817.285 219.353C820.798 231.084 825.228 233.277 823.7 241.795C823.574 248.46 822.663 255.641 813.824 262.729C726.454 307.862 673.917 326.47 583.298 363.425C575.373 364.675 565.246 362.133 551.811 354.886C538.376 347.64 530.662 343.251 524.915 326.093Z" stroke="#A77946" stroke-width="3"/>
<path d="M373.892 369.452C356.013 366.666 224.999 304.314 143.471 265.923C143.471 265.923 136.515 252.991 138.532 243.313C140.549 233.634 198.19 153.079 265.836 118.035C320.673 85.8748 350.45 74.9138 413.531 60.7412C425.563 63.0146 429.548 60.0893 436.409 65.3626C442.27 68.5393 448.228 72.6496 450.459 83.7574C450.367 182.097 442.735 237.307 433.888 334.77C431.353 342.382 424.44 350.207 411.828 358.806C399.215 367.405 391.771 372.237 373.892 369.452Z" stroke="#A77946" stroke-width="3"/>
<path d="M334.602 513.488C323.105 527.46 202.754 608.503 128.213 659.144C128.213 659.144 113.541 658.55 106.237 651.888C98.9322 645.226 58.9259 554.61 63.1889 478.545C63.414 414.974 69.1339 383.763 89.0385 322.25C97.1193 313.05 96.6292 308.131 104.66 304.908C110.378 301.48 116.948 298.444 127.645 302.176C212.249 352.305 255.89 386.973 335.283 444.192C340.546 450.248 343.763 460.181 344.746 475.415C345.728 490.648 346.1 499.515 334.602 513.488Z" stroke="#A77946" stroke-width="3"/>
<path d="M431.103 622.741C436.778 639.923 441.039 784.955 444.056 875.02C444.056 875.02 435.719 887.108 426.187 889.727C416.654 892.346 318.675 877.787 256.638 833.568C203.007 799.434 179.672 777.932 138.29 728.258C134.826 716.513 130.405 714.301 131.969 705.79C132.123 699.125 133.064 691.948 141.932 684.897C229.49 640.129 282.104 621.741 372.877 585.165C380.807 583.949 390.923 586.533 404.328 593.836C417.733 601.139 425.429 605.559 431.103 622.741Z" stroke="#A77946" stroke-width="3"/>
<path d="M579.252 586.463C597.045 589.755 726.236 655.802 806.641 696.492C806.641 696.492 813.227 709.616 810.936 719.233C808.645 728.85 748.741 807.737 680.127 840.846C624.399 871.436 594.322 881.547 530.865 893.923C518.902 891.309 514.836 894.12 508.127 888.654C502.358 885.312 496.52 881.035 494.605 869.868C497.489 771.571 506.685 716.6 518.296 619.427C521.046 611.89 528.178 604.265 541.03 596.027C553.882 587.79 561.46 583.17 579.252 586.463Z" stroke="#A77946" stroke-width="3"/>
<path d="M621.637 444.544C633.489 430.872 755.882 352.945 831.698 304.235C831.698 304.235 846.35 305.206 853.481 312.053C860.612 318.9 898.278 410.513 892.064 486.444C890.207 549.988 883.687 581.042 862.21 642.023C853.896 651.013 854.259 655.943 846.148 658.958C840.344 662.239 833.698 665.105 823.1 661.099C739.812 608.815 697.075 573.038 619.177 513.799C614.072 507.61 611.111 497.598 610.52 482.344C609.928 467.09 609.785 458.217 621.637 444.544Z" stroke="#A77946" stroke-width="3"/>
<path d="M166.769 276.658L166.771 276.659L166.772 276.66C187.96 286.652 211.101 297.565 234.017 308.28C279.742 241.762 352.415 194.158 438.743 182.793C441.585 182.418 444.424 182.086 447.257 181.795C449.132 152.121 450.262 120.909 450.297 83.4342C448.066 72.3264 442.109 68.2161 436.247 65.0394C431.98 61.7594 428.825 61.6513 424.154 61.4911C421.316 61.3938 417.917 61.2773 413.369 60.4179C350.289 74.5905 320.511 85.5516 265.674 117.712C198.028 152.755 140.387 233.311 138.37 242.989C136.353 252.667 143.309 265.6 143.309 265.6C150.757 269.107 158.618 272.815 166.769 276.658Z" stroke="#A77946" stroke-width="2"/>
<path d="M127.483 301.853C158.852 320.439 184.589 336.9 208.605 353.172C186.437 401.787 177.196 457.011 184.684 513.888C188.843 545.478 197.854 575.239 210.869 602.52C190.045 616.75 168.94 631.07 149.609 644.187L149.523 644.246L149.515 644.251L149.511 644.254C142.054 649.314 134.862 654.194 128.051 658.821C128.051 658.821 113.379 658.226 106.075 651.564C98.7703 644.902 58.764 554.287 63.027 478.222C63.2521 414.651 68.972 383.439 88.8766 321.927C91.9313 318.449 93.7612 315.583 95.2896 313.189C97.8046 309.25 99.5033 306.59 104.499 304.585C110.216 301.157 116.786 298.12 127.483 301.853Z" stroke="#A77946" stroke-width="2"/>
<path d="M191.724 512.962C195.732 543.406 204.358 572.11 216.804 598.462C217.588 597.925 218.372 597.388 219.155 596.852C206.985 570.915 198.545 542.691 194.606 512.77C187.445 458.377 196.102 405.548 217.023 358.916C216.204 358.354 215.384 357.791 214.563 357.229C193.294 404.402 184.473 457.888 191.724 512.962Z" stroke="#A77946" stroke-width="2"/>
<path d="M239.826 638.479C240.691 638.108 241.556 637.739 242.42 637.371C287.677 703.013 359.294 747.833 439.917 758.515C439.949 759.351 439.98 760.187 440.012 761.024C358.264 750.417 285.626 705.034 239.826 638.479Z" stroke="#A77946" stroke-width="2"/>
<path d="M244.238 636.598C289.139 701.529 360.033 745.883 439.843 756.553C439.801 755.464 439.76 754.376 439.718 753.291C361.044 742.866 291.093 699.373 246.554 635.616C245.782 635.943 245.01 636.27 244.238 636.598Z" stroke="#A77946" stroke-width="2"/>
<path d="M252.03 633.311C295.49 694.927 363.267 737.016 439.49 747.401L439.433 745.938C439.36 744.097 439.287 742.262 439.214 740.435C365.851 730.15 300.597 689.744 258.369 630.667C256.254 631.544 254.142 632.425 252.03 633.311Z" stroke="#A77946" stroke-width="2"/>
<path d="M260.204 629.906C302.068 688.266 366.594 728.2 439.135 738.469C438.924 733.247 438.71 728.092 438.492 723.028C372.682 712.668 314.175 676.349 275.459 623.653C270.341 625.732 265.265 627.811 260.204 629.906Z" stroke="#A77946" stroke-width="2"/>
<path d="M233.147 587.252C222.134 563.354 214.482 537.416 210.867 509.957C204.29 459.999 211.923 411.446 230.644 368.369C228.816 367.088 226.985 365.809 225.149 364.533C205.556 409.009 197.516 459.247 204.323 510.953C208.074 539.443 216.064 566.336 227.574 591.081C229.439 589.801 231.297 588.524 233.147 587.252Z" stroke="#A77946" stroke-width="2"/>
<path d="M258.232 319.563C256.221 318.63 254.202 317.691 252.176 316.749C294.852 256.252 361.701 213.079 440.889 202.654C442.545 202.436 444.2 202.233 445.852 202.045C445.683 204.296 445.51 206.544 445.333 208.791C444.09 208.938 442.847 209.093 441.602 209.257C364.792 219.369 299.885 261.069 258.232 319.563Z" stroke="#A77946" stroke-width="2"/>
<path d="M260.018 320.392C301.378 262.474 365.728 221.197 441.855 211.175C442.963 211.029 444.07 210.89 445.177 210.759C444.742 216.203 444.286 221.648 443.81 227.125C373.618 236.664 314.14 274.437 275.329 327.47C270.3 325.153 265.187 322.789 260.018 320.392Z" stroke="#A77946" stroke-width="2"/>
<path d="M232.262 369.503C213.791 412.179 206.274 460.248 212.785 509.704C216.359 536.849 223.907 562.497 234.766 586.139C239.348 582.987 243.875 579.865 248.323 576.788C238.902 555.454 232.325 532.435 229.127 508.143C223.158 462.8 229.708 418.695 246.108 379.309C241.488 376.012 236.883 372.749 232.262 369.503Z" stroke="#A77946" stroke-width="2"/>
<path d="M516.165 211.79C516.41 217.239 516.658 222.611 516.909 227.879C581.623 238.133 639.256 273.49 677.924 324.831C682.706 322.871 687.448 320.912 692.171 318.942C650.701 261.751 587.382 222.465 516.165 211.79Z" stroke="#A77946" stroke-width="2"/>
<path d="M722.806 373.949C718.561 376.712 714.363 379.45 710.23 382.154C717.844 401.186 723.231 421.468 726.029 442.725C732.412 491.206 724.481 538.273 705.503 579.668C709.43 582.628 713.346 585.563 717.27 588.482C738.37 543.848 747.307 492.831 740.384 440.244C737.315 416.935 731.316 394.729 722.806 373.949Z" stroke="#A77946" stroke-width="2"/>
<path d="M718.854 589.659C740.227 544.617 749.294 493.098 742.302 439.992C739.194 416.385 733.103 393.903 724.457 372.875C725.18 372.405 725.904 371.934 726.629 371.463C727.86 370.663 729.095 369.86 730.333 369.057C739.494 391.003 745.935 414.511 749.188 439.22C756.42 494.147 746.896 547.417 724.567 593.884C722.659 592.478 720.755 591.07 718.854 589.659Z" stroke="#A77946" stroke-width="2"/>
<path d="M688.069 636.438C683.629 634.226 679.235 632.044 674.906 629.9C635.875 679.768 578.032 714.966 510.287 723.885C508.587 724.109 506.888 724.315 505.192 724.504C504.601 729.587 504.028 734.641 503.474 739.69C506.083 739.423 508.697 739.118 511.314 738.773C584.391 729.153 646.615 690.732 688.069 636.438Z" stroke="#A77946" stroke-width="2"/>
<path d="M503.259 741.657C506.024 741.379 508.793 741.057 511.567 740.692C585.307 730.984 648.077 692.162 689.832 637.317C691.033 637.915 692.236 638.516 693.443 639.118C694.355 639.573 695.269 640.029 696.184 640.487C653.378 697.269 588.693 737.504 512.622 747.519C509.245 747.964 505.873 748.345 502.509 748.664C502.755 746.327 503.005 743.992 503.259 741.657Z" stroke="#A77946" stroke-width="2"/>
<path d="M694.006 318.176C652.167 260.268 588.118 220.513 516.077 209.82C515.977 207.564 515.877 205.296 515.777 203.017C590.705 213.722 657.324 255.077 700.483 315.456C698.326 316.366 696.167 317.273 694.006 318.176Z" stroke="#A77946" stroke-width="2"/>
<path d="M501.551 757.997C501.635 757.163 501.719 756.329 501.803 755.496L501.899 754.551C505.717 754.205 509.545 753.78 513.38 753.275C591.44 742.998 657.757 701.559 701.462 643.126L704.939 644.867C660.786 704.129 593.65 746.172 514.594 756.58C510.236 757.154 505.887 757.626 501.551 757.997Z" stroke="#A77946" stroke-width="2"/>
<path d="M732.479 599.679C731.426 598.912 730.376 598.145 729.327 597.378C752.468 549.698 762.379 494.938 754.944 438.462C751.574 412.867 744.854 388.533 735.283 365.846L738.269 363.911C748.218 387.184 755.191 412.187 758.657 438.511C766.201 495.811 756.071 551.363 732.479 599.679Z" stroke="#A77946" stroke-width="2"/>
<path d="M709.098 311.795C708.635 311.993 708.171 312.192 707.708 312.389L707.15 312.627C706.753 312.797 706.355 312.966 705.958 313.135C661.705 250.619 592.907 207.865 515.523 197.117C515.485 196.241 515.448 195.364 515.41 194.486C594.106 205.027 664.128 248.319 709.098 311.795Z" stroke="#A77946" stroke-width="2"/>
<path d="M440.132 196.898C442.185 196.628 444.237 196.38 446.286 196.156C446.344 195.35 446.401 194.543 446.458 193.736C444.504 193.953 442.547 194.19 440.588 194.448C358.343 205.276 289 250.342 245.014 313.414L246.83 314.261C290.379 252.036 358.897 207.593 440.132 196.898Z" stroke="#A77946" stroke-width="2"/>
<path d="M218.644 360.031C219.193 360.409 219.742 360.787 220.29 361.166C199.952 406.836 191.564 458.513 198.567 511.711C202.442 541.14 210.746 568.901 222.72 594.41L220.773 595.744C208.758 570.061 200.423 542.125 196.525 512.517C189.429 458.619 197.971 406.268 218.644 360.031Z" stroke="#A77946" stroke-width="2"/>
<path d="M279.162 622.152C317.13 673.402 374.171 708.771 438.321 719.081L438.263 717.758C374.498 707.684 317.763 672.661 279.967 621.827L279.162 622.152Z" stroke="#A77946" stroke-width="2"/>
<path d="M283.679 620.329C320.722 669.715 375.987 703.788 438.088 713.81L437.968 711.151C377.155 700.956 323.058 667.496 286.601 619.153C285.625 619.545 284.651 619.937 283.679 620.329Z" stroke="#A77946" stroke-width="2"/>
<path d="M262.113 567.218C262.568 566.901 263.022 566.585 263.475 566.27C255.541 547.478 249.972 527.322 247.18 506.118C241.83 465.477 247.334 425.909 261.452 390.334C260.914 389.945 260.377 389.557 259.841 389.17C245.591 425.055 240.033 464.971 245.431 505.97C248.275 527.574 253.98 548.1 262.113 567.218Z" stroke="#A77946" stroke-width="2"/>
<path d="M286.09 332.413C285.34 332.07 284.588 331.725 283.833 331.379C320.944 281.9 376.96 246.662 442.902 237.366L442.756 238.973C377.786 248.52 322.635 283.483 286.09 332.413Z" stroke="#A77946" stroke-width="2"/>
<path d="M290.593 334.472C326.182 287.261 379.52 253.473 442.302 243.932C442.23 244.719 442.157 245.508 442.084 246.298C380.277 255.784 327.725 288.97 292.497 335.341C291.864 335.053 291.23 334.763 290.593 334.472Z" stroke="#A77946" stroke-width="2"/>
<path d="M517.741 244.668C517.783 245.478 517.825 246.284 517.866 247.086C574.473 257.084 624.952 287.848 659.901 332.163C660.647 331.861 661.392 331.56 662.136 331.259C626.747 286.037 575.371 254.683 517.741 244.668Z" stroke="#A77946" stroke-width="2"/>
<path d="M517.489 239.716C577.21 249.809 630.432 282.343 666.797 329.37L667.597 329.045C631.055 281.613 577.527 248.743 517.424 238.424L517.489 239.716Z" stroke="#A77946" stroke-width="2"/>
<path d="M700.315 388.653L701.016 388.193C707.93 405.923 712.839 424.763 715.434 444.475C721.422 489.958 714.306 534.146 697.004 573.237L695.996 572.471C713.33 533.564 720.481 489.537 714.514 444.214C711.952 424.76 707.119 406.163 700.315 388.653Z" stroke="#A77946" stroke-width="2"/>
<path d="M696.179 391.375C702.649 408.247 707.255 426.142 709.717 444.845C715.51 488.845 708.685 531.598 692.038 569.459C691.513 569.058 690.986 568.656 690.459 568.254C706.705 530.911 713.332 488.815 707.63 445.499C705.196 427.012 700.65 409.32 694.266 392.635C694.902 392.216 695.539 391.796 696.179 391.375Z" stroke="#A77946" stroke-width="2"/>
<path d="M255.796 386.254C255.053 385.719 254.311 385.185 253.569 384.652C238.151 422.226 232.037 464.214 237.718 507.367C240.715 530.136 246.801 551.742 255.497 571.818C256.354 571.223 257.208 570.631 258.058 570.04C249.545 550.265 243.583 529.001 240.634 506.601C235.068 464.323 240.916 423.173 255.796 386.254Z" stroke="#A77946" stroke-width="2"/>
<path d="M291.257 617.285C326.758 663.816 379.015 696.087 437.74 706.204C437.715 705.687 437.691 705.172 437.667 704.657C379.594 694.591 327.917 662.678 292.758 616.685C292.257 616.885 291.757 617.085 291.257 617.285Z" stroke="#A77946" stroke-width="2"/>
<path d="M509.782 720.048C576.194 711.305 632.94 676.909 671.362 628.146C670.62 627.779 669.88 627.414 669.143 627.05C631.018 675.635 574.593 709.918 508.527 718.616C507.632 718.734 506.737 718.847 505.842 718.955C505.779 719.489 505.716 720.023 505.653 720.557C507.028 720.399 508.405 720.229 509.782 720.048Z" stroke="#A77946" stroke-width="2"/>
<path d="M508.022 714.779C572.753 706.257 628.081 672.778 665.595 625.3L664.242 624.634C627.046 671.175 572.502 703.956 508.768 712.347C508.043 712.442 507.32 712.534 506.596 712.623C506.501 713.416 506.406 714.208 506.312 714.998C506.882 714.927 507.452 714.854 508.022 714.779Z" stroke="#A77946" stroke-width="2"/>
<path d="M507.193 707.673C507.508 707.633 507.822 707.592 508.136 707.551C570.199 699.38 623.367 667.603 659.794 622.447L658.124 621.627C621.998 666.414 569.267 697.93 507.714 706.033C507.605 706.048 507.496 706.062 507.387 706.076C507.323 706.609 507.258 707.141 507.193 707.673Z" stroke="#A77946" stroke-width="2"/>
<path d="M722.192 443.23C719.472 422.57 714.27 402.846 706.924 384.317L704.323 386.022C711.505 404.259 716.597 423.659 719.271 443.969C725.398 490.51 718.023 535.715 700.172 575.64C700.586 575.954 701.001 576.268 701.415 576.581L702.338 577.279C720.767 536.712 728.436 490.659 722.192 443.23Z" stroke="#A77946" stroke-width="2"/>
<path d="M517.228 234.465C579 244.843 634.001 278.658 671.315 327.532C672.284 327.137 673.252 326.742 674.218 326.348C636.312 276.447 580.149 242.033 517.099 231.83C517.142 232.711 517.185 233.589 517.228 234.465Z" stroke="#A77946" stroke-width="2"/>
<path d="M443.464 231.079C443.395 231.855 443.326 232.632 443.257 233.409C375.569 242.701 318.105 278.877 280.236 329.727L278.918 329.122C316.977 277.459 375.013 240.625 443.464 231.079Z" stroke="#A77946" stroke-width="2"/>
<path d="M232.964 507.638C227.129 463.312 233.446 420.187 249.341 381.619L250.339 382.334C234.414 420.729 228.065 463.699 233.881 507.872C236.962 531.275 243.254 553.469 252.254 574.067L251.565 574.544C242.45 553.73 236.079 531.298 232.964 507.638Z" stroke="#A77946" stroke-width="2"/>
<path d="M294.625 615.938C329.397 661.206 380.337 692.644 437.573 702.676C437.467 700.456 437.361 698.262 437.254 696.097C382.673 686.277 334.036 656.477 300.387 613.64C298.455 614.409 296.535 615.175 294.625 615.938Z" stroke="#A77946" stroke-width="2"/>
<path d="M507.629 704.093C568.44 696.042 620.557 664.945 656.342 620.753C654.32 619.763 652.321 618.786 650.345 617.823C615.881 659.689 566.261 689.24 508.452 697.391C508.175 699.637 507.9 701.871 507.629 704.093Z" stroke="#A77946" stroke-width="2"/>
<path d="M705.711 445.751C703.317 427.565 698.862 410.156 692.611 393.727C690.916 394.846 689.238 395.956 687.579 397.055C693.29 412.497 697.38 428.812 699.619 445.825C705.058 487.139 698.894 527.306 683.643 563.044C685.395 564.386 687.139 565.719 688.874 567.045C704.846 530.122 711.344 488.536 705.711 445.751Z" stroke="#A77946" stroke-width="2"/>
<path d="M658.031 332.918C623.478 289.325 573.738 259.033 517.971 249.071C518.066 250.867 518.161 252.645 518.257 254.403C571.646 264.355 619.255 293.438 652.571 335.12C653.385 334.792 654.197 334.465 655.007 334.139C656.018 333.731 657.026 333.324 658.031 332.918Z" stroke="#A77946" stroke-width="2"/>
<path d="M441.899 248.285C380.97 257.765 329.144 290.481 294.302 336.164C295.911 336.897 297.506 337.622 299.088 338.34C332.845 294.414 382.764 262.906 441.41 253.502L441.514 252.392C441.577 251.73 441.639 251.07 441.7 250.41C441.767 249.7 441.833 248.992 441.899 248.285Z" stroke="#A77946" stroke-width="2"/>
<path d="M269.93 561.76C268.336 562.876 266.725 564.002 265.098 565.137C257.315 546.61 251.848 526.75 249.099 505.866C243.816 465.737 249.204 426.664 263.07 391.504C264.528 392.559 265.991 393.619 267.46 394.684C254.446 428.505 249.455 465.967 254.518 504.423C257.176 524.616 262.441 543.826 269.93 561.76Z" stroke="#A77946" stroke-width="2"/>
<path d="M296.827 542.697C300.633 539.956 304.225 537.344 307.572 534.882C303.536 523.363 300.618 511.259 298.961 498.678C295.472 472.171 297.94 446.252 305.332 422.271C301.751 419.663 298.235 417.099 294.774 414.574C285.74 441.486 282.542 470.819 286.497 500.86C288.419 515.454 291.927 529.45 296.827 542.697Z" stroke="#A77946" stroke-width="2"/>
<path d="M292.754 545.621C287.488 531.675 283.731 516.909 281.701 501.492C277.576 470.155 281.042 439.57 290.679 411.587C289.317 410.594 287.962 409.606 286.616 408.624C276.481 437.56 272.798 469.248 277.074 501.722C279.222 518.039 283.259 533.644 288.937 548.346C290.229 547.426 291.501 546.517 292.754 545.621Z" stroke="#A77946" stroke-width="2"/>
<path d="M329.812 352.064C333.942 353.87 337.866 355.565 341.552 357.134C365.839 329.168 398.795 308.56 436.965 299.81C437.374 295.54 437.778 291.345 438.176 287.213C394.424 296.267 356.828 319.806 329.812 352.064Z" stroke="#A77946" stroke-width="2"/>
<path d="M438.662 282.178C392.693 291.33 353.26 316.052 325.203 350.04C323.66 349.359 322.09 348.665 320.497 347.958C349.571 312.094 390.9 286.065 439.184 276.779L438.752 281.244L438.75 281.273L438.662 282.178Z" stroke="#A77946" stroke-width="2"/>
<path d="M519.983 282.944C519.862 281.161 519.741 279.338 519.62 277.476C563.349 286.772 602.486 310.366 631.131 343.731L625.996 345.791C598.497 314.399 561.394 292.095 519.983 282.944Z" stroke="#A77946" stroke-width="2"/>
<path d="M520.337 287.983C559.609 296.972 594.835 318.102 621.23 347.704C617.266 349.296 613.235 350.917 609.131 352.57C585.657 327.392 555.194 309.158 521.331 300.623C520.995 296.748 520.664 292.52 520.337 287.983Z" stroke="#A77946" stroke-width="2"/>
<path d="M660.266 415.371C656.485 417.947 652.908 420.407 649.564 422.733C652.391 432.053 654.497 441.726 655.81 451.698C659.637 480.767 656.299 509.128 647.16 535.001C650.763 537.77 654.299 540.49 657.778 543.167C668.499 514.566 672.552 482.993 668.287 450.597C666.682 438.408 663.97 426.637 660.266 415.371Z" stroke="#A77946" stroke-width="2"/>
<path d="M625.713 605.961C627.16 606.647 628.631 607.347 630.123 608.059C600.385 642.266 559.099 666.662 511.277 674.717L511.596 672.168L511.596 672.166L511.599 672.143L511.858 670.079C557.56 662.01 597.057 638.624 625.713 605.961Z" stroke="#A77946" stroke-width="2"/>
<path d="M621.159 603.81C593.593 634.779 555.96 657.029 512.488 665.05C513.049 660.566 513.619 656.005 514.196 651.356C551.637 643.574 584.247 624.44 608.849 598.096C612.685 599.848 616.801 601.759 621.159 603.81Z" stroke="#A77946" stroke-width="2"/>
<path d="M435.431 663.696C435.111 658.79 434.786 654.21 434.454 650.006C399.489 641.41 368.098 622.487 344.205 596.249C339.866 597.975 335.609 599.664 331.424 601.324C358.256 632.45 394.695 654.599 435.431 663.696Z" stroke="#A77946" stroke-width="2"/>
<path d="M326.67 603.208L323.097 604.624L323.053 604.642L323.051 604.643L322.308 604.937C351.206 639.487 391.221 663.889 436.025 673.289C435.934 671.741 435.842 670.217 435.75 668.72C392.883 659.469 354.573 636.136 326.67 603.208Z" stroke="#A77946" stroke-width="2"/>
<path d="M661.784 546.249C673.167 516.565 677.524 483.7 673.083 449.965C671.376 436.998 668.446 424.491 664.425 412.545C665.868 411.568 667.337 410.576 668.83 409.57C673.129 422.117 676.251 435.276 678.049 448.933C682.686 484.161 677.959 518.463 665.79 549.332L661.784 546.249Z" stroke="#A77946" stroke-width="2"/>
<path d="M320.414 605.688L317.273 606.933C347.325 643.226 389.303 668.716 436.303 678.106C436.25 677.159 436.196 676.221 436.142 675.291C390.49 665.836 349.73 640.96 320.414 605.688Z" stroke="#A77946" stroke-width="2"/>
<path d="M312.549 608.806C343.627 646.907 387.465 673.583 436.58 683.092C436.774 686.664 436.965 690.342 437.155 694.112C383.415 684.33 335.517 655.006 302.262 612.893C305.654 611.543 309.081 610.182 312.549 608.806Z" stroke="#A77946" stroke-width="2"/>
<path d="M511.026 676.721C559.738 668.657 601.767 643.808 631.934 608.924C632.613 609.249 633.296 609.576 633.984 609.906C603.324 645.634 560.445 671.089 510.704 679.291L511.026 676.721Z" stroke="#A77946" stroke-width="2"/>
<path d="M648.556 616.951C645.122 615.279 641.764 613.652 638.493 612.075C606.774 649.493 562.04 676.08 510.079 684.292C509.611 688.037 509.151 691.737 508.698 695.401C565.622 687.241 614.504 658.142 648.556 616.951Z" stroke="#A77946" stroke-width="2"/>
<path d="M686.977 447.354C691.96 485.198 686.628 522.022 673.154 554.995C676.153 557.3 679.118 559.577 682.057 561.829C697.034 526.514 703.07 486.859 697.701 446.077C695.501 429.368 691.501 413.337 685.921 398.154C682.77 400.243 679.689 402.293 676.689 404.298C681.519 417.989 685.007 432.386 686.977 447.354Z" stroke="#A77946" stroke-width="2"/>
<path d="M682.181 447.986C680.311 433.783 677.044 420.108 672.535 407.079C671.849 407.539 671.168 407.997 670.492 408.451C674.919 421.266 678.129 434.715 679.967 448.68C684.675 484.443 679.823 519.261 667.386 550.56L669.173 551.934C681.971 520.03 686.988 484.494 682.181 447.986Z" stroke="#A77946" stroke-width="2"/>
<path d="M633.027 342.97C603.955 308.887 564.071 284.823 519.492 275.47C519.462 275.003 519.432 274.534 519.403 274.062C519.366 273.474 519.329 272.881 519.292 272.286C565.07 281.858 605.974 306.725 635.57 341.95L633.027 342.97Z" stroke="#A77946" stroke-width="2"/>
<path d="M640.291 340.056C609.651 303.031 566.885 276.984 518.989 267.283C518.779 263.757 518.572 260.122 518.366 256.392C570.913 266.304 617.781 294.914 650.696 335.875C647.267 337.254 643.801 338.647 640.291 340.056Z" stroke="#A77946" stroke-width="2"/>
<path d="M439.377 274.772L439.71 271.319C388.905 280.551 345.478 307.846 315.25 345.621C315.897 345.91 316.542 346.198 317.183 346.484C317.679 346.705 318.174 346.925 318.666 347.144C348.147 310.589 390.208 284.087 439.377 274.772Z" stroke="#A77946" stroke-width="2"/>
<path d="M310.692 343.579C341.923 304.078 387.178 275.603 440.19 266.319C440.54 262.672 440.884 259.065 441.222 255.492C383.455 264.887 334.265 295.925 300.898 339.161C304.232 340.672 307.5 342.146 310.692 343.579Z" stroke="#A77946" stroke-width="2"/>
<path d="M287.31 549.504C286.366 550.175 285.412 550.853 284.449 551.536C278.273 535.97 273.899 519.397 271.614 502.038C267.161 468.22 271.138 435.236 281.92 405.2C282.937 405.941 283.958 406.686 284.983 407.433C274.604 436.795 270.812 468.983 275.155 501.975C277.346 518.618 281.484 534.527 287.31 549.504Z" stroke="#A77946" stroke-width="2"/>
<path d="M266.817 502.669C269.209 520.838 273.837 538.165 280.387 554.409C277.514 556.438 274.566 558.511 271.553 560.623C264.215 542.955 259.053 524.043 256.437 504.171C251.441 466.229 256.318 429.263 269.082 395.86C271.978 397.962 274.898 400.086 277.849 402.234C266.45 433.328 262.195 467.56 266.817 502.669Z" stroke="#A77946" stroke-width="2"/>
<path d="M501.118 762.387C501.159 761.972 501.199 761.556 501.24 761.141L501.357 759.956C505.841 759.577 510.338 759.092 514.846 758.499C594.565 748.004 662.245 705.559 706.696 645.748C707.368 646.085 708.041 646.422 708.714 646.76C663.866 707.31 595.459 750.295 514.853 760.907C510.263 761.512 505.684 762.004 501.118 762.387Z" stroke="#A77946" stroke-width="2"/>
<path d="M735.889 602.154C735.628 601.966 735.368 601.777 735.108 601.589C734.761 601.337 734.415 601.086 734.069 600.834C757.928 552.117 768.187 496.071 760.576 438.259C757.071 411.639 750.004 386.362 739.917 362.843L741.901 361.559C752.107 385.325 759.256 410.872 762.798 437.778C770.496 496.245 760.08 552.92 735.889 602.154Z" stroke="#A77946" stroke-width="2"/>
<path d="M713.16 310.051C712.412 310.373 711.665 310.695 710.918 311.015C665.585 246.83 594.838 203.074 515.327 192.522C515.289 191.618 515.251 190.714 515.213 189.808C595.766 200.463 667.414 244.891 713.16 310.051Z" stroke="#A77946" stroke-width="2"/>
<path d="M446.787 188.984C446.724 189.915 446.66 190.845 446.595 191.774C444.511 192.003 442.424 192.255 440.335 192.53C357.409 203.447 287.51 248.937 243.234 312.584C242.337 312.166 241.44 311.747 240.542 311.328C285.204 246.919 355.84 200.869 439.669 189.833C442.045 189.52 444.417 189.237 446.787 188.984Z" stroke="#A77946" stroke-width="2"/>
<path d="M306.987 423.477C299.826 447.021 297.459 472.437 300.88 498.426C302.492 510.667 305.311 522.453 309.202 533.68C310.026 533.071 310.834 532.472 311.626 531.883C308.047 521.265 305.44 510.147 303.923 498.619C300.586 473.273 302.847 448.481 309.75 425.488C308.825 424.814 307.904 424.144 306.987 423.477Z" stroke="#A77946" stroke-width="2"/>
<path d="M310.58 426.091C303.791 448.866 301.579 473.407 304.882 498.493C306.377 509.849 308.935 520.806 312.442 531.274C313.907 530.181 315.313 529.124 316.657 528.105C313.437 518.264 311.077 507.987 309.676 497.348C306.565 473.716 308.487 450.582 314.614 429.025C313.26 428.04 311.915 427.063 310.58 426.091Z" stroke="#A77946" stroke-width="2"/>
<path d="M347.681 359.716C370.57 334.078 401.098 315.073 436.324 306.537C436.18 308.053 436.035 309.579 435.89 311.114C402.717 319.49 373.905 337.441 352.089 361.535C350.672 360.957 349.202 360.35 347.681 359.716Z" stroke="#A77946" stroke-width="2"/>
<path d="M521.848 306.282C521.735 305.117 521.623 303.912 521.511 302.666C554.505 311.116 584.205 328.88 607.206 353.346C606.155 353.77 605.099 354.196 604.038 354.624C581.796 331.436 553.37 314.533 521.848 306.282Z" stroke="#A77946" stroke-width="2"/>
<path d="M521.949 307.309C553.033 315.514 581.073 332.182 603.071 355.014C601.586 355.614 600.09 356.219 598.585 356.828C577.761 335.577 551.504 319.943 522.437 311.939C522.273 310.485 522.111 308.94 521.949 307.309Z" stroke="#A77946" stroke-width="2"/>
<path d="M644.549 426.246C643.144 427.237 641.79 428.199 640.491 429.129C642.678 436.895 644.337 444.912 645.421 453.146C648.862 479.284 646.146 504.814 638.393 528.273C639.803 529.354 641.203 530.428 642.592 531.494C650.871 507.038 653.817 480.356 650.219 453.028C649.007 443.822 647.097 434.879 644.549 426.246Z" stroke="#A77946" stroke-width="2"/>
<path d="M645.384 425.657C647.992 434.436 649.945 443.533 651.178 452.902C654.812 480.498 651.809 507.439 643.403 532.116C644.119 532.666 644.833 533.214 645.544 533.76C654.426 508.326 657.648 480.484 653.891 451.951C652.621 442.3 650.599 432.932 647.894 423.897C647.041 424.494 646.204 425.08 645.384 425.657Z" stroke="#A77946" stroke-width="2"/>
<path d="M604.686 596.208C605.441 596.548 606.209 596.895 606.99 597.25C582.848 622.914 550.99 641.59 514.448 649.326C514.548 648.52 514.648 647.711 514.749 646.9C550.206 639.235 581.144 621.087 604.686 596.208Z" stroke="#A77946" stroke-width="2"/>
<path d="M603.751 595.788C580.442 620.326 549.881 638.244 514.875 645.883C515.105 644.022 515.336 642.147 515.568 640.256C548.112 632.798 576.627 616.179 598.696 593.549C600.306 594.252 601.992 595 603.751 595.788Z" stroke="#A77946" stroke-width="2"/>
<path d="M436.421 305.518C400.747 314.091 369.847 333.336 346.737 359.322C345.657 358.871 344.553 358.406 343.426 357.929C367.278 330.658 399.493 310.528 436.771 301.841C436.655 303.06 436.538 304.286 436.421 305.518Z" stroke="#A77946" stroke-width="2"/>
<path d="M434.291 647.972C400.192 639.457 369.559 621.005 346.128 595.484C346.999 595.137 347.873 594.789 348.75 594.44C371.51 619.098 401.123 637 434.08 645.454C434.151 646.276 434.221 647.115 434.291 647.972Z" stroke="#A77946" stroke-width="2"/>
<path d="M433.992 644.431C401.469 636.021 372.238 618.356 349.714 594.056C351.427 593.373 353.153 592.685 354.892 591.99C376.155 614.294 403.316 630.633 433.462 638.774C433.64 640.547 433.817 642.435 433.992 644.431Z" stroke="#A77946" stroke-width="2"/>
<path d="M141.77 684.574C176.152 666.995 205.146 653.483 233.178 641.341C280.279 710.492 355.559 757.577 440.279 768.218C441.282 795.507 442.2 823.374 443.034 848.715L443.036 848.758L443.036 848.772L443.036 848.775C443.333 857.781 443.619 866.468 443.895 874.697C443.895 874.697 435.558 886.785 426.025 889.404C416.492 892.023 318.514 877.464 256.476 833.245C202.845 799.111 179.51 777.609 138.128 727.935C136.819 723.495 135.372 720.417 134.164 717.847C132.177 713.617 130.834 710.76 131.807 705.466C131.961 698.801 132.902 691.625 141.77 684.574Z" stroke="#A77946" stroke-width="2"/>
<path d="M494.443 869.545C495.564 831.35 497.637 799.697 500.435 769.568C505.534 769.162 510.65 768.623 515.78 767.947C598.813 757.016 669.214 712.559 715.153 649.992C738.365 661.655 761.872 673.567 783.344 684.449L783.347 684.451C791.384 688.523 799.135 692.452 806.48 696.168C806.48 696.168 813.066 709.293 810.774 718.91C808.483 728.527 748.579 807.414 679.965 840.522C624.237 871.113 594.16 881.224 530.703 893.6C526.181 892.612 522.787 892.399 519.952 892.221C515.288 891.929 512.138 891.731 507.965 888.331C502.196 884.989 496.358 880.711 494.443 869.545Z" stroke="#A77946" stroke-width="2"/>
<path d="M822.939 660.776C791.432 640.998 765.729 623.582 741.729 606.365C766.899 555.665 777.782 497.189 769.838 436.851C766.154 408.864 758.66 382.312 747.949 357.648C768.956 344.074 790.22 330.429 809.708 317.924L809.709 317.923L809.775 317.881C817.336 313.029 824.629 308.349 831.536 303.912C831.536 303.912 846.188 304.883 853.319 311.73C860.45 318.577 898.117 410.19 891.902 486.12C890.045 549.665 883.526 580.719 862.048 641.7C858.905 645.099 857.002 647.917 855.413 650.271C852.798 654.144 851.031 656.76 845.986 658.635C840.182 661.916 833.536 664.782 822.939 660.776Z" stroke="#A77946" stroke-width="2"/>
<path d="M813.663 262.406C778.28 280.684 748.61 294.611 719.81 307.169C672.744 239.417 598.446 193.294 514.913 182.607C513.753 154.478 512.683 125.627 511.712 99.4697L511.712 99.4671C511.378 90.4619 511.055 81.7752 510.745 73.5481C510.745 73.5481 519.032 61.425 528.554 58.7663C538.075 56.1076 636.114 70.2561 698.336 114.216C752.109 148.125 775.534 169.529 817.123 219.03C818.451 223.464 819.91 226.536 821.129 229.101C823.134 233.322 824.488 236.174 823.538 241.472C823.412 248.137 822.501 255.317 813.663 262.406Z" stroke="#A77946" stroke-width="2"/>
<path d="M435.183 318.637C405.33 326.673 379.274 342.838 359.148 364.35C360.171 364.747 361.153 365.122 362.092 365.474C381.506 344.999 406.422 329.539 434.905 321.618L435.183 318.637Z" stroke="#A77946" stroke-width="2"/>
<path d="M524.43 324.668C524.538 325.08 524.645 325.448 524.753 325.77C525.705 328.613 526.712 331.105 527.789 333.318C546.509 339.967 563.67 350.238 578.312 363.396C580.007 363.442 581.613 363.342 583.137 363.102C584.434 362.573 585.724 362.048 587.006 361.526C569.398 344.671 547.983 331.959 524.43 324.668Z" stroke="#A77946" stroke-width="2"/>
<path d="M523.944 322.496C548.482 329.904 570.764 343.115 588.968 360.728L591.442 359.723C572.537 341.11 549.194 327.221 523.441 319.612C523.608 320.675 523.775 321.638 523.944 322.496Z" stroke="#A77946" stroke-width="2"/>
<path d="M630.693 436.342C628.14 438.294 626.023 439.993 624.395 441.409C625.493 446.153 626.372 450.993 627.021 455.92C629.771 476.804 628.111 497.252 622.76 516.326C624.828 517.901 626.87 519.459 628.89 521.002C635.186 500.2 637.261 477.755 634.239 454.806C633.41 448.509 632.22 442.349 630.693 436.342Z" stroke="#A77946" stroke-width="2"/>
<path d="M587.433 588.853C584.257 587.622 581.743 586.766 579.983 586.334C562.737 602.346 541.627 614.456 517.903 621.036C517.615 623.442 517.328 625.822 517.043 628.178C544.221 621.247 568.243 607.411 587.433 588.853Z" stroke="#A77946" stroke-width="2"/>
<path d="M432.201 628.404C432.332 629.256 432.463 630.174 432.592 631.156C405.72 623.392 381.432 608.801 362.02 589.139C362.925 588.776 363.835 588.412 364.748 588.045C383.41 606.759 406.584 620.741 432.201 628.404Z" stroke="#A77946" stroke-width="2"/>
<path d="M431.845 626.274C407.165 618.728 384.814 605.236 366.702 587.261C368.688 586.463 370.692 585.657 372.715 584.842C372.852 584.821 372.989 584.801 373.128 584.783C389.152 600.067 408.453 611.774 429.666 618.857C430.103 619.98 430.528 621.165 430.941 622.418C431.247 623.343 431.548 624.638 431.845 626.274Z" stroke="#A77946" stroke-width="2"/>
<path d="M516.793 630.237C544.904 623.209 569.708 608.893 589.407 589.632C590.132 589.923 590.885 590.23 591.667 590.552C571.385 610.655 545.679 625.56 516.489 632.739L516.793 630.237Z" stroke="#A77946" stroke-width="2"/>
<path d="M630.531 522.256C637.069 501.004 639.25 478.04 636.158 454.554C635.282 447.904 634.009 441.404 632.366 435.074C633.004 434.594 633.665 434.101 634.349 433.595C636.105 440.242 637.46 447.076 638.381 454.073C641.562 478.241 639.25 501.867 632.407 523.69C631.784 523.214 631.158 522.735 630.531 522.256Z" stroke="#A77946" stroke-width="2"/>
<path d="M434.714 323.682C407.152 331.486 383.001 346.446 364.069 366.205C366.853 367.218 369.189 367.994 371.023 368.506C388.26 351.366 409.726 338.269 434.039 331.016C434.265 328.544 434.49 326.1 434.714 323.682Z" stroke="#A77946" stroke-width="2"/>
<path d="M324.984 436.546C326.812 437.87 328.659 439.206 330.526 440.554C326.357 457.996 325.249 476.482 327.729 495.323C328.652 502.334 330.042 509.169 331.865 515.801C330.502 517.064 328.756 518.563 326.665 520.273C324.351 512.442 322.617 504.329 321.517 495.977C318.821 475.495 320.183 455.415 324.984 436.546Z" stroke="#A77946" stroke-width="2"/>
<path d="M323.299 435.326C322.446 434.708 321.598 434.093 320.753 433.481C315.436 453.413 313.856 474.698 316.716 496.421C317.945 505.754 319.944 514.796 322.641 523.493C323.478 522.836 324.277 522.202 325.038 521.591C322.581 513.426 320.748 504.957 319.599 496.229C316.834 475.227 318.285 454.642 323.299 435.326Z" stroke="#A77946" stroke-width="2"/>
<path d="M329.648 495.07C330.511 501.63 331.789 508.034 333.452 514.259C333.84 513.858 334.17 513.493 334.44 513.164C345.938 499.192 345.567 490.325 344.584 475.092C343.601 459.858 340.384 449.925 335.121 443.869L332.225 441.78C328.261 458.771 327.236 476.751 329.648 495.07Z" stroke="#A77946" stroke-width="2"/>
<path d="M373.73 369.128C373.574 369.104 373.409 369.075 373.236 369.042C389.928 352.707 410.551 340.178 433.849 333.094L433.726 334.447C431.192 342.059 424.278 349.884 411.666 358.483C399.053 367.082 391.609 371.914 373.73 369.128Z" stroke="#A77946" stroke-width="2"/>
<path d="M428.683 616.478C408.918 609.628 390.882 598.698 375.721 584.568C383.166 584.328 392.399 587.102 404.166 593.513C415.875 599.892 423.228 604.072 428.683 616.478Z" stroke="#A77946" stroke-width="2"/>
<path d="M577.617 585.881C560.986 601.028 540.805 612.535 518.193 618.944C520.985 611.459 528.107 603.884 540.868 595.704C553.359 587.698 560.869 583.109 577.617 585.881Z" stroke="#A77946" stroke-width="2"/>
<path d="M625.103 456.173C627.781 476.519 626.22 496.446 621.102 515.064L619.015 513.476C613.91 507.287 610.949 497.274 610.358 482.021C609.766 466.767 609.623 457.893 621.475 444.221C621.812 443.832 622.238 443.392 622.75 442.902C623.723 447.247 624.51 451.673 625.103 456.173Z" stroke="#A77946" stroke-width="2"/>
<path d="M551.649 354.563C560.923 359.565 568.62 362.325 575.105 363.145C561.604 351.422 546.032 342.14 529.128 335.864C534.396 345.123 541.338 349.001 551.649 354.563Z" stroke="#A77946" stroke-width="2"/>
<path d="M486.023 346.951C486.683 351.962 483.155 356.559 478.145 357.218C473.134 357.878 468.537 354.351 467.877 349.34C467.218 344.329 470.745 339.732 475.756 339.073C480.767 338.413 485.363 341.94 486.023 346.951ZM486.023 602.851C486.683 607.862 483.155 612.459 478.145 613.119C473.134 613.778 468.537 610.251 467.877 605.24C467.218 600.23 470.745 595.633 475.756 594.973C480.767 594.313 485.363 597.841 486.023 602.851ZM369.644 403.666C374.313 405.6 376.531 410.953 374.597 415.622C372.663 420.292 367.309 422.509 362.64 420.575C357.971 418.641 355.754 413.288 357.688 408.619C359.622 403.949 364.975 401.732 369.644 403.666ZM596.213 543.573C594.279 548.242 588.926 550.459 584.256 548.525C579.587 546.591 577.37 541.238 579.304 536.569C581.238 531.899 586.591 529.682 591.26 531.616C595.93 533.55 598.147 538.903 596.213 543.573ZM360.571 532.81C364.581 529.734 370.326 530.49 373.402 534.5C376.479 538.509 375.723 544.254 371.713 547.331C367.703 550.407 361.959 549.651 358.882 545.641C355.805 541.632 356.562 535.887 360.571 532.81ZM582.188 404.86C586.197 401.784 591.942 402.54 595.019 406.549C598.095 410.559 597.339 416.304 593.329 419.38C589.32 422.457 583.575 421.701 580.498 417.691C577.422 413.682 578.178 407.937 582.188 404.86Z" stroke="#A77946" stroke-width="3"/>
<path d="M476.497 589.26C538.775 589.26 589.261 538.775 589.261 476.496C589.261 414.218 538.775 363.731 476.497 363.731C414.219 363.731 363.732 414.218 363.732 476.496C363.732 538.775 414.219 589.26 476.497 589.26Z" stroke="#A77946" stroke-width="3"/>
<path d="M482.991 526.032C455.616 529.635 430.503 510.366 426.899 482.991C423.295 455.616 442.566 430.503 469.94 426.899C497.315 423.295 522.428 442.565 526.032 469.94C529.636 497.315 510.367 522.428 482.991 526.032ZM430.441 482.525C433.787 507.945 457.107 525.838 482.526 522.492C507.946 519.145 525.839 495.826 522.493 470.406C519.146 444.987 495.827 427.094 470.407 430.44C444.988 433.786 427.094 457.106 430.441 482.525ZM481.593 515.411C460.085 518.242 440.353 503.102 437.522 481.593C434.689 460.084 449.831 440.352 471.339 437.521C492.848 434.689 512.58 449.83 515.412 471.338C518.243 492.848 503.103 512.579 481.593 515.411Z" stroke="#A77946" stroke-width="3"/>
</g>
<defs>
<clipPath id="clip0_299_295">
<rect width="953" height="952" fill="white"/>
</clipPath>
</defs>
</svg>
